<mxfile host="65bd71144e">
    <diagram id="mMZM0izr0a8jvRTVfFWv" name="Page-1">
        <mxGraphModel dx="602" dy="203" grid="1" gridSize="10" guides="1" tooltips="1" connect="1" arrows="1" fold="1" page="1" pageScale="1" pageWidth="1100" pageHeight="850" math="0" shadow="0">
            <root>
                <mxCell id="0"/>
                <mxCell id="1" parent="0"/>
                <mxCell id="2" value="" style="shape=image;verticalLabelPosition=bottom;labelBackgroundColor=default;verticalAlign=top;aspect=fixed;imageAspect=0;image=data:image/jpeg,/9j/4AAQSkZJRgABAQAAAQABAAD/2wBDAAMCAgICAgMCAgIDAwMDBAYEBAQEBAgGBgUGCQgKCgkICQkKDA8MCgsOCwkJDRENDg8QEBEQCgwSExIQEw8QEBD/2wBDAQMDAwQDBAgEBAgQCwkLEBAQEBAQEBAQEBAQEBAQEBAQEBAQEBAQEBAQEBAQEBAQEBAQEBAQEBAQEBAQEBAQEBD/wAARCAEuARUDASIAAhEBAxEB/8QAHAABAQADAQEBAQAAAAAAAAAAAAgFBgcEAwkC/8QAPRAAAQMDAwIEAwUGBgIDAQAAAQACAwQFBgcIERIhEyIxQQkUURYjMmFxFSQzQmKBF0NScoKRJaEYJ3NT/8QAFAEBAAAAAAAAAAAAAAAAAAAAAP/EABQRAQAAAAAAAAAAAAAAAAAAAAD/2gAMAwEAAhEDEQA/AP1TREQEREBERAREQEREBcg1/wBz2nm32nttuvUVxv8Al2QuMOPYnY6c1V0usvcARxN/CzkcGR3AHBA6j5T/AHue1+odvOmj8nhtRveTXerisuLWKM/e3a6znphhaB36QfM4j+VpA7kA6rti2zVmnVRW6y6zXGLK9acuZ4t9vkoD2W9jgOLfQj0ip4xw3y8dXT/pDWgNLo9P98m4Vv7V1M1QptB8XquHw4zh7GVl88IgcCpuL/LFIOT/AARx6ctBC9zfhp7bbkPFz6r1BzqsPd9ZkWZV0s0h+rjC+Mc/2VWIglJ/w3dDrMPH0tzLVHTitZ3iqcbzKrYWO9uRO6QOH1HuFj6uPfTtp/8AIxXSj3GYLTd6ikdSNtuVUsXI7xFnMVYWgk8EGR5AA6VXqIOc6G6/6Y7h8Tflumt7fUMpZjS3G31URgr7ZUjnmCpgd5o3gg/Vp4JaXDuujKVtymgmWYhlD92W2CjjotSbNF4mQWSIFlJmdtb3lpqhjexqA1vMcnHUS0D1DC3uGiWsGI69aX2DVXCagvtl9phL4T3Ay0swPTLTyAej43hzT+nI5BBQbyiIgIiICIiAiIgIiICIiAiIgIiICIiAiIgIiICIiAiIgIiIJIx6nG4DftkeRXIfM4rt7tcNos8Lu8MmRXCPxKmoAPYuihAiPbyuDHA9lW6lP4eLRc8E1SzmfzVuW6r5Lc6h59e0zI2s/JrRH2HoOSqsQFruZai6fac0cNx1CzvHsYpah/hxT3m6QUUcj/8AS10rmgnuOw+q2JQtvT236DWzIcl3dbpblkucYparbTWyhxGhc6lFFI+RkbHRSsqYi7l7iS0lvJcT5uAEFv2u62y92+C7WW40tfQ1TBJBU0szZYpWH0c17SQ4fmCvUoS+EZZ7jRaJ5Xd6a/0smLXjJZ6rHrHHdWV09npiP4c/Q4+FI7lpLDw7t1EAuV2oCkjRinGgW9PULQmlHy+I6n2wajY3TjtFS3ESCG5U8YHYdZ4m6QAGtY0frW6lPdI0WPddtYzSl8lT9oL5YJSP8yCsoA0td9QCzkfQnlBViIiAiIgIiICIiAiIgIiICIiAiIgIiICIiAiIgIiICIiAiIglLYO/7Of446SVfkrcP1UvMkcZ9TQVhZPSyEe3WPEP9lVqkPU6pbtk3m2PWyq/d8C1so6bD8pqj2ioL7T9rbVTO7BrZI+YeSeGhr3Ejsq8QFCet+8bWXaTuQvbtcsRveR6KXmiYcbq7BaacvpKk9PMckjywPfz1tLXyNPSWuDXK7EQQf8ADdw3NrpqDrJuLr8ErsGxDUi5xzY/YqyIwPcxr5HuqBF2AB6wOoDhxLukkDk3giIClLcM/wC1+9fbZp9R+c2H7QZjdAPWGCOlENM7j6OmLmqpq2to7bRVFxuNXDS0lLE+eeeZ4ZHFG0Eue5x7NaACST2AClDaFHVa5avajb0LnSSxWrIenDsCbPGWP+z9HITLUgHuG1FSOsDnsWP9iEFbIiICIiAiIgIiICIiAiIgIiICIiAiIgIiICIiAiIgIiICIiDQteMJ0z1C0gyvGNYoIXYfLbJqi6zSHpNLDC0ympY7g9D4ujxGu4PBaOx9FHWy/eVk+IYZhmCbqKa42Sy5PB06d5zd4wyC70LXuZFBXTBzmRVPQ1pa5/SHsLC48kPk6lvcu9z1QvWC7McRrZYa/VCsFdlFRAeH0GMUjxJUvJ/lMzmCNh54d0vYfxKhMk0o03zDAW6XZRhVqumKMpIqKO01NOHwRwxtDYwwHuwsAHS5pDm8AggoNqY9krGyRva9jwHNc08gg+hBX9KRoNqG4PQjy7RdwQix2IH5fBtQYZLna4B7R09Wz95p4x34Y3n1JLiV7W62b/8AHB8rkGyrHMrkb2dW47qHSUcLj9WxVbDJx+pQVYvNcrnbbNb6i7Xi4U1DQ0kbpqipqZWxRQxtHLnve4gNaB6knhS3Jq18Q/LgaTGNpmDYHJJ2ZW5XnMdzhZ/U6KhaH8fl6r4QbLs+1gr4LzvL1yr8+o4JmVEOF2GE2nHIntILfFYwiWr4I5DpC09yDyOyDim5PdA/cxkOK6W4X+2rbt7yHMqHD8tzumgdALxVSueRQ0kriOKYmPpkm6eO479B4k/Q3G8csWH4/bcVxi1U9stFopYqKho6dnTHBBG0NYxo+gAAXIN0GgVo1K2uZVo9hVjpbXJS2r5jGqW3QinZS11IRPSthbGB4fMkbWeUej3LPbXdXotd9AcJ1R8RprLxa4xcmt4+7r4uYqpvHtxNHJwPpwg6miIgIiICIiAiIgIiICIiAiIgIiICIiAiIgIiICIiAiIgLy3W6W+yWysvV3rIqShoIJKqqqJXcMhiY0ue9x9gGgk/ovUpS31ZHes3gw3aBgldLT5BrHXmnu1TB3fbscpyJK+oPYgdTR4bQ7gP5kb6oPjsmtlw1YyTPd6OV0csVVqRVm1YlBO0h9DjFG8sgAHbpM8jDI8ccEsY4HzKs1jMZxyy4djlrxLG6COhtNlo4bfQ00Y4ZDTxMDI2D8g1oH9lk0BERAREQFJW1YjRzcfrZtgqCIbdUVzNSMSh9v2fXkMrI2A9wyKpDWADkcucf1rVSVvKB0j1Z0X3X0pMNHjd8OH5W9vobLc/uxLIf9EEwDh3/FIPX2CtUREBERAREQEREBERAREQEREBERAREQEREBERAREQEREHyq6uloKWaurqmKnpqeN0s00rw1kbGjlznOPYAAEklSXs4oqnW/UvUDevkFNIKfKp3YvgUc7OHU2N0chb4rQRy01E7XSOHsWu47OWX31Zhf7zjmM7XNPK50GX613A2R00XJdb7GwB9yq3Adw0Q8s7juHv47tVEYXh9g0+xCzYNitC2js9goYLdQwN48kMTAxoPHqeByT7nk+6DNIiICIiAiIgLn24DSqh1v0VzPSivDAMktM9JA9/pFUgddPKf9kzY3/8V0FEHC9k2qtdq7tsxG+X7rZkdmgfjmQQy/xYrjQuMEvifRzwxsp//Qfou6KStGQNEd7uqmjMgFPYdVKKLUrHmccMFdz4FzjHHYve8CXj1DWj19VWqAiIgIiICIiAiIgIiICIiAiIgIiICIiAiIgIiIC/iWWKCJ888jI442l73vIDWtA5JJPoAv7Uxb78/wAip8Cse3zTer8LO9a7j9l7c5p81HbyAbhWkAg9EcBIJB5Hicj0QYLaayTcDrRqBvMu0bpLNUSPwnTtsg8rLNSSn5msYDzx8xUB3BHBHTI09iq6Wt6cYDjulmBY/pxiVL8vaMct8FupGH8RZGwN6nH3e4gucfUuJJ9VsiAiIgIiICIiAiIgk/ftTVOn1Npruus8EjqrR/KIZrt4LSZJbDXltLXRjjuezo+OxAHUePVVXSVVNXUsNdRTxz09RG2WKWNwc17HDlrgR6ggg8rAak4JZtUNPsk05yFnVbcmtdTa6k9PJYyaNzOtv9TeeoH2IBXEtgOdXnJtvdFg+YPIyzS241WCX2NziXNmoH+HETz3IMBh8x9SHIKRREQEREBERAREQEREBERAREQEREBEU9a8brnYNl9Loloph0mo+rdzYJGWOml6KS0QkDiquVR+GCMAghpIc7kd29TSQoRzmtaXOIAA5JPoAudZDuR284lUuoso120+tVSw8OgrMlo4pQf9jpA7/wBLhdHsoznWYMvm87W+/ZjJUDrfhmNVctoxul545iLYi2ap444Ejix3c88+q6pjmzLadilK2ktG3bAHNYOA+tsUFbLx/wDpUNe8/wDaDa8V160NzqpZRYVrLg9+qZDw2C25BSVMpP06I5C7n+y3tcNy7Y5tDzelkpL1t5wqFsgIdJa7ay2S/r4lJ4bwfz5XNKva5r9t9Bvu0XWm53a105D36eZ7Vur7dPGOOY6SrPEtIeB5RzwXHzPAQV6pB20A7jdx2e7ua7mfGLAZMB065PMb6WB5NdcGd+D40pLWv4B6Opp/CtK1Z3vVeqmkNZobhWMXbDNe8xu0GC1GKXRjm1NndVBwnrmydIbLTNgEhbM3jguY7gDgmxtJdNMd0c00xvS7FIui141b4qCAkcOlLR55Xf1veXPd/U4oNtREQEREBERAREQEREBSVYXf4GfEHvWOuIp8c3A46280QJ4Z9oLWOioYwHsC+md4riDyXFvI91Wqjb4kWUWLFLBpnkthuDJ9VcazSgvOHWGlY+avvLRII6uljija53hvjfy5xAHLGt55cAQslY675Fj+Pxtlv19t1tY78LqyqZCD+heQpSo9LN5e5Li860apVGiOI1Y6ocOwaZrryYXAcCrujgfDk45BbE0tPPdoI4WxWX4bmz+2vNZetMZ8pucnee5ZDea2uqJz9X9UvRz+jQgoaz5bimROLMfya03NzRyRR1scxA/4OKyymm9/Dg2ZXlgdHovSWmpjPVDV2m5VlFNC72c0xSgcj8wQtbq9uO6PQb/zG2PX+5ZjaabzPwfUmb56KZnIJjprgA2WAgdQY08N5I6ndkFdIuF7f912L6z3Ot09ybHrhgOqFjZ1XjDb15aqNo45mpn8BtTAeQRIwehBIALSe6ICIiAiIgIiICIiAiIg4Pu311yPSPErNiWl9DBc9UdRriLBh9BN3Y2ocB4tZKCCPCp2OD3E9uSzq8pJGb217dcd284S+2RVb73ll7l/aGVZNVcuq7zcH8ukle93LugOc4MZzw0fVxc48n0gg/xr3w6qau3ICe0aR00GnuMNPdsda9njXOYD0Egc4Rc9yWP4PHACrVARFM+474he3TbHk8eEZvcL1dsh6GS1FusVGyokpI392umdJJGxvI79PUXccHp7jkKYRc/0R130x3D4RDqBpXkTbpa5HmGZrmGKelmABdFNG7ux45H5EEEEjuugIJ93VbcK7VKktmquk1TT2DWXA3Guxa9hrW/MdIPXb6kns+nla57OHchpeT+Fzw7bdsuu1u3EaS23P4rebXd4pZbXkNofz12u7QENqKZwd3HBIc3nv0PYTweQuqqSsWg/wO+IJf8AEaICDGdd8bOSwQjs1mQW93RU9A9vEp3GV5Hq4jkdggrVERAREQEREBERAREQc53Ba3Y3t60pvOqGSwy1TaBjYaG3wd5rjXSnogpox3Jc95A5APDQ53HDSuX7Vtu1+sdwqtx+v723nWbM4RLVSTN5ixuieOY7XRtPIjaxp6XuHdx6hyRy52u6l0jNe992FaXVoFRimi1l+3V1p3AGKovdQ/wqBjx380TOZ2+nq4KuEBFr+dZ/hWmOM1eZ6g5RbsfslCAZ62vnEUbSfRoJ/E4nsGjkk9gCVz3R/d/ts17vM2OaUasWu93aFjpDQOhnpKh7G/idHHURxukaPcsBAHdB2JFyjWbdVt9291NHQ6wanW3H6yvaH09IYpqmpcwnjrMMDHvaznkdRaG9j37Fbzg+eYbqXjFFmeA5LQX6yXBpfTV1DMJIn8HgjkejgexaeCCOCAUHK90O2a367WWhyTF7q7FtUMRca3EMqpfJPR1LeSIJSB56eQ8tew8gBxIB7h3o2pa+1Wu+n1S7K7QbFn2IVz8fzKyvHSaO5xdnOYOf4Ug87D3HdzQT0krtSkfP6Rmg+/LBdRrYBT2DXW3TYhkcbABGbxSMEtvqXfWR7OYB39A7t3QVwiIgIiICIiAiIgIiIJU+HQ0VWleoORS96y/6pZPcqxx9XTOqGsJP58RtVVqUNj8gw7NtwmhtafDrMY1JrL9Swu7OFsu0bKilPHuOGP7+ncKr0Bfl5c9Tn7F98Grmd6x6T5Rkdj1TMLscutloY6l7+TyYG+K9jSTyGOYHdQ8NvlIK/UNRZr3iPxCMA13uGp22a52zPMUyGiZSnF8iufTTWebhofLHFJPA3jlvUHNeT5ngtI45Dkfwq8gu9Tr/ALhbVNi9TilBV1tNd2Y7UR+G+3SSzz8RuYAA1wY5oI47cAduF+l6mHZDtfzHQe15dnerl6orrqPqPczdb9LRd4Kfu5zIGO4HVwZHkkDgE8DkDk08gKVN2LRb9zO1XI6ftWQ5bd7a1w9fBqqDolH6EMHKqtShrRIM/wB++g+n9EfFZgVlv2c3hje/RHNG2jpCf9P33Pr68oKvREQEREBERAREQEREEqbVGi7bo91OWVPmq5MnstmDj6tgo7f0sA+g85VVqUdBpBhO+bcRp7WeT7V0Vgza1NPYyQiA01W/8wJ+kcqrkHAt1e063bqhhVtyPNam12HFby27VtqZRiaK7AFoMUjvEaWDoEjeQDx4hPspGzbCNHcu+IXpNiG03CLFaajTiaWuze44zQx0lDTxtI4ilMLWsfLwHxk8kky9J54PHc/iR6n7hMW03t+n+3bTnNb5dcsMsdzu2OWaqrH26iZwHMbJDG4RSydXAJ7hocR37jjGz7XLUTR843o7ifw1NR8Std4uFPBesnuD658r3vcGvrauR9sYH9PJPBe1rR2HSEHr276f4FuL367k77rHiFpy9mLzUtptVHeqOOsp6aLrkj5ZHIC0ENgHB45HU4jglbT8NClODambi9GLW5zMexjMTLbKbrLmUzXulaWM59B0xxj/AI/3WAzmxbkNmO6zUXWzSfQG6as4dqtHDLLSWeWQVFDWNPP3jYopXgB7pDz4fSWv/E0grrXw9dCtTdObLn2q+s9mZZsv1Sv771Nag4OfQU/L3MjfwSA7mR56fUDp578gBXalT4ibRQ6b6b5bD5azGNVcYudK8fiDxO6MgH8xIeyqtSjvukGU3jQTRmk89Zl+qFtr5oh3Jt1ua6ercB/SHRlBVyIiAiIgIiICIiAiIgkLcpJUbadw+J7wKSnldh17pY8I1IETeRS00koNDcnD6RSkMe7jno6Wju9VxS1VLXUsNdQ1MVRT1EbZYZonh7JGOHLXNcOxBBBBHYheDKMYx/NcduWJZXaKa6We700lHXUdSzqjnhe3hzHD8wf1HqO6jiw5Rnfw9LpHgmosd3yzbzUTFuP5XFE+qrcPa53aiuDGAufStJ4ZKB2HAA7iNoW2iw+JZhiue4/SZVhWRW6+WevYJKauoKhs8MjT9HNJHP1HqPQrMICItT1M1X040bxeozPU/Mbbjlnpx5qitl6TI7/RGwcvlefZjA5x9ggyeY5fjmAYrdc1y+7QWyy2Skkra6rmdwyKJg5J/M+wA7kkAckhTfsox7Ic+ueb7w89tU9vu2rVTEMeoKkDxLdjNMOmiYeOwdKPvXcdneR38y1GgsOffEFyagyPPscueH7d7HWMrbXYK9joLhm1RGeY6irj9YqIHzNjP4+x78h0dpwQQUsEdLSwxwwwsEcccbQ1rGgcBoA7AAduEH0REQEREBERAREQEREEmb0KC76RZxp7vQxignq49Ppn2TNKWnaXSVONVjg2STpAJcaeU+KAOBy4knhpVSWK+WfJ7JQZJj1xguFrulNFWUVXA/qjngkaHMe0+4LSCP1X2uVtt94t1VaLtRQ1lDXQvpqmnnYHxzRPaWvY5p7OaWkgg+oK/N3bvuMum2a85vb4MdyTINq1ozCtsNjylsZq5camYWOlBa3mSW3eLI9rJADxx6ucS0h+laLEYnl2L53j9FleGZBQXuz3GMS0tdQ1DZoZWn3Dmkj9R6g9j3WXQERea43K3WegqLpdq+noqKkjdNUVNTK2OKJjRyXPe4gNAHqSeEHoc5rGl73BrWjkkngAKP8AQqsO5/dfk+5uEmbAdOKSbB8Em/y6+reebjcY+R3b38FrgS1zD9WkDku77eTeNWcPr8d0NhvdPo3SXWhs2oep1HF4cTKSpqo6eamtzn8eJ5ZD1ygEcEN/C8OdfWnuDYlpphFlwLBLZDb7BY6OOkoKeI8tbEB+Iu/mc4kuc493OcSeSUGwoiICIiAiIgIiICIiAvlVUtNXU01FW08VRT1EbopoZWB7JGOHDmuaexBBIIPqvqiCXci2D4Par9V5ltz1DyvRK/Vr/FqGYxUh1oqX/Wa3SfcuA4HDWFje3ovK3CPiUY0PlbPrhozmUbOwqsixqrt8z/zcyiJYD+iqxEEpP01+IxmA+UyXcdpjg1PJ2klxPFJa+fp9w01zgGnj39R6rOafbEtJsfyin1F1TvORavZrTnqivOa1prmUruQf3elP3MQBALeWuLSB0kKkUQEREBERAREQEREBERAREQT5vd1cv+mujhxjT0ul1B1IrosPxOCMkSCsq/I+oHAJaIoy9/XxwHdHPquhaJaMYtopozjmjFnpYKm12S2ChqPEiaW1srwTUSyNI4PiyPkc4Ht5yPRcD0xaNzW8nJ9a5x8zg2iTZ8MxEnzRVV7kANzrWeoPQ3phDgeC3ocO4Kr1BLF+2I2rFr/V5ttV1VyHRO91shmqaC1MZWWCrk7eaW2SnwwewA6CGtHPDV8WVXxMMPHyk1p0N1Bpmdo6uOor7VWSD6yMIMIP+zsqtRBKbr78TDJR8pQYHoZhrX9n1dwulfcHxj6sZCA0u+nV2+q+MOx/JdU6+nvG7/XvIdT4oJGzx4vQRCzY8x7SC3rpoD1VBaQOHOc0nvyDyqyRBzzUTRPDM10OyDQm32S32fH7rY57PSUtJTthp6LqYRE+ONgAb4b+l4AHq1aBsR1Kumo223HqfKC9uUYVJPhmQxPPL4q+3u8Eh593OiELz+byqCUladc6Ib98903fzDj2ttlizazA8CNl4pOYa+JnuXyM+/d69g1BWqIiAiIgIiICIiAiIgIiICIiAiIgIiICIiAiIgIiICIiAuFby9Zrvo5otVnCmPqM7zGrhxTD6SI/ey3WsPhxvYOeeY2l0nPpyxoPqu6qQcOeNz29m9Z+8/M4Dt8ZLjtk79UNZlFQ0fOzjuQTTx8R9x2cY3NKDu+3bRm0bf8ARrF9KLQ9kxstGBXVYHesrnkvqZySOT1yueRz3Dekey6OiICIiAiIgKVfiA2u4YvhuE7mMdpJJrvork9NfJmxjl81onc2nuEA/J7HRknn8MZVVLC5piVmz7D75g+RU4nteQW6otlbHwPNDNG6N47+/DjwgyFqulvvdro71aauOqobhTx1VNPGeWyxPaHMePyLSD/depTH8PnLLzU6H1GkGY1HiZTo5eqzBbnyCC+OlfxSyNB5+7MBja08kHwyQqcQEREBERAREQEREBERAREQEREBERAREQEREBERAREQcU3g621mhOh13yTHYjU5depYsdxOiYA6SqvFWTHThrSR1dHmlI9xER7rLbX9EqTb5ohjWmbJhU3GkpzVXqtLi51bc5z4lVMXHku5kc4Akk9LWj2XGKQf/J3fDPcD+8YDtyjdSwe8VbltS37x3t1fKxgN7glkjeR2eq8QEREBERAREQEREElyf/RvxCmSfwMc3CY10H+WMZDaW9if5QX0juPYue73PrWimX4guHXm46FM1Ww6AvyrR+8Ued2kt5Bc2jfzUxuI79BpzK5w7g+GAQu/YNmFm1CwuxZ3js4mteQ22mulG/kHmGaNsjeePfhw5/PlBnEREBERAREQEREBERAREQEREBERAREQERY+75Fj+Pxtmv18t9tjd+F1XVMhB/QuIQZBFibPlmK5C4ssGS2q5uaOSKOtjmIH/AlZZAXIt1mtzdv+h+QZ9Rw/NX1zGWvHaIN631l2qD4dNG1vB6uHnrLfdrHLrqkG6E7nd8NHY2g1GA7c42XGsPHMVbllS37hnpw75aMF/IPLJAQRw5B1/ahoi7QHQ+w4NcZvmshnD7vktaX9b6u71J8Spkc/k9fDiIw73bG1dfREBERAREQEREBERB5rnbaG8W6qtF0pY6miroH01RDIOWyxPaWvaR9CCR/dS5sAudbiWLZ3tgyCrfLdtFsoqbRTGQ8yS2Wpc6ot8x9/Mx0gA9msb/arFJWpgOiG/HTzU+MmHH9aLRLgd747Rtu1ORNb5nfV8g+4b39GnsgrVERARYW65thlin+VvmXWW3TD/Lq6+KF3/TnAr3Wy72m9U/zdnulJXwc8eLTTtlZ/20kIPYiIgIiICIiAiIgIiICIiAuS7gNy+nW3i00TsldW3fJL44wY/i9ohNTdLxP6BkMLe/TyQC88NHPHckNOU3Ba241t60pvOqGTRS1TbexsNDb4P41xrpT0QU0Y7kue8gcgHhoc7jhpXLtq23a/2O4VW4/X94vOs2ZwiWqfM3mLG6J45jtdG08iNrGnpe4d3HqHJHLnhrFHpdvM3JcXnWbVKo0QxCrHVDh+DzNdenQuA4FXdHA+HJxyC2Jpb37tBHC2Gy/Db2f26Q1t70zqMpucnee5ZDeq2uqJz9X9UoZz+jQqdRBNF6+G/syvLA6LRiltNVGeqGrtNzrKKaF3s5pjlA5H5gha5V7ct0ug3/mNsmv9yzO0U3mfg+pM3z0czOQTHTXEBssBA6gxp4ZyR1OPCrpEEeXj4i2GWfSPNrhlOLXHDNXMQoeiTAby0/NzV8rmw0xpnAD5qndLJH95GOQwlxaAWk9V2daJV2hmh9rsmTSGpzHIJpcky2tfwZKm8VZEk5e4AdRZ5Y+fcR8+68O7Lanju47GqK7W2WCx6j4lKy44jkjYWukpKuJ4kjil5BEkDntHLXAhp8wHPIOS2pa+1Ou+n1S7K7QbFn2IVz8fzKyvHS6jucXZzmDn+FIPOw9x3c3k9JKDtSIiAiIgIiICIiAiIgLgG+rTK56mbbMk+zPW3J8RdDl+PSxjmSK4W93jN6P6nRiWMfnIu/qc93WtGZY2zHdA9EuiXVXVCSSjtUzmB8dkt7R+9XSYcHhsbCegEd3AkB3QWkNNk+IBb84xrEbBt1wabUnVHK7LSXOex0cvh0GPeNG1z3XKqPlhDHOI6Oep3A7t6mk/ak2ha1axtF33Z7k8jrW1HD3Yhgc7rNZKcEd4nyAeNVNHfzP6XfmQF2HbXtr042u6cUun2n1A0vIbLdbrKwCqulUBwZpSPbuQ1gPSxvYe5PV0E3Wj4c2yyzU4gg0HtFSf5pa6sq6qR59yXSyuPJWNu3w2dqsk5umEYzf9PryB93dsSyKsoamL6FodI+MEf7FUaII9rqLevtXDrvb7/JuK07pR1VNvrYW02WUEI45dDKwFtdwOokOHiOPAAaO4oPRTXXTPcDhzM20yv7a+kbJ8vWU0rPCq7fUgcup6mE+aKQfQ9j6tJBBO/qRNzGk+Q6HZhPvR29W2Vt6trRJqDi9IOmDKrQ08zTdA7CrhbzI2QDkgEnk8teFdote09z3GNUcHseomGXAVtkyGiir6KbjgmN454cP5XtPLXNPcOBB7hEGwoiICIiAiIgIiIJH1LpGa977sK0trQKjFNFrL9u7rTuAMVRe6h/hW+N47+aJnM7fT1cFXClTao0XbdHupyyp81XJk9lswcfVsFHb+lgH0HnKqtAXP8C180i1QzTK9PcBzOnvN+wiSOG+08FPMGUj3lwa0TOYIpDyx4PhudwWkHgrDbkdKtSNZcKpMG091YrdPoquub+27nQR9VZLb+hwfBCRwWPcS3zBzeBz6/hMa/DDwaz6Z7m9y2n+Py1Utux+toKCmkqpPEmexk9WA57uBy4+pPAQWBrbu+267c71b8e1l1Fbj9xulMaykgFqrasyQh3SXE00Mgb5gRw4gnhZbQ/cpopuPoLpdNGM0+0VNZpo6euf+zquk8KR7S5o4qYoy7kA92ghQVuc083M53viyHPcF2nUGptlsOOQ2W1RZpQw/sKR3Ae+oYKmSKOdzXvlADXh3J59AFRHw+dZ8E1GsuY4hRaD4xpJnmJXBlJlVjsNrhooJpPM1kwbG0Hjlj28OLiOOznA8oK6Uj5/SM0H35YNqNbAKfH9drdNiORRsAEZvFGwS2+pd9ZHs5gHf0Du3dVwpU+Im0UOm+m2XQ+WsxjVXGLnSvH4g8TujIB+hEh5CCq0REBERAREQEREBERAUj7QKRmsetGsO7S7AVDa+9S4JiDngEU9ktzg2SSI+zZ5+Xnv+JjvTlU5nN2nsOE5BfKU8TW61VdXGf6o4XOH/ALC4X8Oi0U9l2WaXU9OB+822eukd7uknq5pXEn3PLygpBERBMF3+JlsisV1rbJdda/ArbfUSUtTF9m7u7oljcWvby2lIPBBHIJH0XVdENx+jG461XO96MZl9oaKz1DKWtl/Z1XSeFK5vU1vFTFGXcjvy0EKX/iC2LQDRjSxtPhu3LTKt1J1HuQsdgccQt75/mpz95UlxhJL29XYn+d7eSu8bO9seN7WNGrbg1tijlvdYxlbkNeB3q64tHV+jGfgaPoPqSUHcl/MkbJWOilY17Hgtc1w5BB9QQv6RBD+3/UbDtoWo+ru2zOLuLZi1lvlPkeFdYHTHbbox8z6WMduGQzRvb+rndyilP419ubbtc8Ev9HI6Ge4YoaWYxuLS8Q1czmk8ev8AGcEQfsYiIgIiICIiAiIglHQaQYTvm3Eae1nk+1dHYM2tTT2MkPgGmqn8e4E/SOVVykvehQXfSHOdPd6OM0E9XHp/M+x5pS07S6SpxqscGySdIBLjTyu8UAcDlxJPDSqmsV8s+T2SgyPH7jBcLXdKaOso6uB/VHPBI0OY9p9wWkEfqg9yh7ZLp5n+KbudzmS5Tg2QWe0X+700tpuFwtk9PTXBgnqiXQSvaGygBzTywns4fVXCiCC9W8x3u7Y9x+T59i2nWVa4aYZdAwW2yUVZM91kn7csbHHHK6IB3V5vCLXMcB1AtW27BdDNWMZyHUzcXrlj8eOZZqrcmVLbEx4c6hpGOc5okAJ6XEv46T5gGjngkgWOiApR33SDKbxoJozSeesy/VC2V80Q7k263NdPVuA/pDoyqtc5rGl73BrWjkkngAKP9Cqw7n92GT7moSZsB03pJsHwSb/Lr6x55uVxj5HdvfwWuBLXMP1aQAsFERAREQEREBERAREQeO82unvlnrrLV8+BcKaWll4/0PaWn/0VNPw2rvPNtTseF3Pht5wC63bE7tH/APyqaaskIYR7ERSRf9qolHttrhtY3sXa03d3yunm4p7K+21Lu0NDlkLQyaBx44aaphDwSeXP6WgdjwFhIiIIh1l09z7U/wCJPpRV3HBsglwHAbHLdGXg22Z1sNweJXeGZ+jwg8ObAeOrnlo/vbyIgIi1PVbU7E9GtO79qdnFe2ks2P0b6uofz5nkdmRMHu97y1jR7ucAg/ML4mOmud7mN0T8S01oDXjTjGLbTXRrQXGKprZKmdoPHpzE2IorT2Laf5ZbMAv+t2plE6lzjWa8Pyy50z+eqho3jigo+4B4igIIBHLfELT3CIKWREQEREBERAREQea5W233m3VVou1FDWUNdA+mqaedgfHNE9pa9jmns5paSCD6gqK7TdMz+HZf5scySlu2TbbbnVPmtV3gjfVVmCySP5NNUtby+SiLnHpeAS3n3ceH26vlVUtNXU01FW08VRT1EbopoZWB7JGOHDmuaexBBIIPqgxuKZbi+dY/RZXhmQUF7s9xjE1LXUM7ZoZWH3a5pI/UeoPY91l1K9+2I2vFL/V5rtU1WyHRO9VrzNU2+1MZW4/VydvNLbZT4YPYAdBDWjnhq1bL9Ut/2h8EbM1/wNzKjcPua2L9qW+slA95GNY6Jp/JvZBaK89xuNvtFDUXS7V1PRUVLG6aeoqJWxxRMaOS573EBoA9STwosw7XrfdrPM62YBYdDcccWkyVVxqrtVvjb7ljGxtaXfQO7LaYdkGTap11PeN3+veQ6nRQSNnjxa3xCzY8x7SC3rp4D1VBaQOHOc0+vIPKDXc/1azbe9d6vQ/bJcK21aZCR1Jm+pjIjHHPB6S261Fw+9keOWulHlDT/pIL60wDA8V0vwuzafYRaYrbYrDSMo6Kmj9GRt9yfVznHlznHu5ziT3JXvx7HbBiNkosaxay0NotNuiEFJQ0NO2CCnjHo1jGANaPyAWRQEREBERAREQEREBERAXPtd9E8O3B6aXTTPNWSspa4Nmpa2nIbU26sj7w1UDv5ZGO7j6guaeziF0FEEi6S7mcv0TyKj2870KplrvrHilxjP5GlloyqnHZhkmPlgqwOA9ryAT35BLeuuGPZIxskbw5rgC1wPIIPuFr+f6d4Nqpi9VheouK23IbJW8eNRV8AljLh+F7ee7Xj1D2kOB7ggqa6fZ5rPovyNpm5a7WCyMPMOHZlTftu0wt9o4JXHx6aMcDs3qPc90FbIoayrc5vc0tr3WDOsM0Ru1bEegz2u43aCNx+vTJE4j/ALWexnJviE64W41WP5Rorp5aHnpdXUVHcLrcYifdsdQ1sDuPzCCm9TdVdPNG8Tqs41Oy234/ZaMeeoq5OC93syNg5dI8+zGAuPsFLWM4zn++vP7PqhqfjdwxXQrFaxlxxTFLjH4dZlNYz+Fca+L+WnbzzHEfxc+7SS7e9P8AYtgNtyym1M1wy+/6z5xSnrprllkgfR0LuQf3Sgb9zAOWhwB6+COQQVSyAiIg/9k=;" vertex="1" parent="1">
                    <mxGeometry y="170" width="277" height="302" as="geometry"/>
                </mxCell>
                <mxCell id="3" value="inorder=[9,3,15,20,7]&lt;br&gt;postorder=[9,15,7,20,3]" style="text;html=1;align=left;verticalAlign=middle;resizable=0;points=[];autosize=1;strokeColor=none;fillColor=none;" vertex="1" parent="1">
                    <mxGeometry x="330" y="170" width="150" height="40" as="geometry"/>
                </mxCell>
                <mxCell id="4" value="l n r" style="text;html=1;align=center;verticalAlign=middle;resizable=0;points=[];autosize=1;strokeColor=none;fillColor=none;" vertex="1" parent="1">
                    <mxGeometry x="470" y="165" width="40" height="30" as="geometry"/>
                </mxCell>
                <mxCell id="5" value="l r n" style="text;html=1;align=center;verticalAlign=middle;resizable=0;points=[];autosize=1;strokeColor=none;fillColor=none;" vertex="1" parent="1">
                    <mxGeometry x="470" y="180" width="40" height="30" as="geometry"/>
                </mxCell>
                <mxCell id="6" value="" style="shape=stencil(lVjbUhsxDP2avGpkS749U/ofzBBKppQwAXr5+2qbcYjl7El522yObF2Pj3cjN6+Pdy/bTeTXt8P++/bX7v7tcSNfNjHunh+3h92bPW3kdiM3D/vD9tth//58f/z9crcgl6cf+5/LCr+Pdq1Ra4tV5D/HN0xZ/r34esQ/7Z5HfNIBH6kwwFdqdcArpQLxYVw/U0PrZ6rj+o1KBfhEkQd8EFp+rhoIhTwaFApoB+4JOWUoUAYh1EI1jQaZYgYG2kvUDSQQN2AQfFIlUQNVLoU0jFWzqECWilAaXdJECgzy1EeJiRUY2HrOQPubywaBZIwhVUogS8k6bax0jpRBpVP0MeRMCRhoJR6zVJgExKCW1jgaSJ/XiwZSu8cng0IZ7CBCZczS0iygcHHawdpRQdBRKI8MYw2fQXuHRlzGkWZKYICCUhkLZ0PLARgwVWeQKCTQ3qTjSBvtNJAkpehIqZKAsgWqLuJGCuaTKU541BY8kR7btIGUMgWZNgA146lkrfPyGj56fAHHwsnbM3wGBbuET6Aj2A+m4VHBDF89PsJ4HQEveOhPDB6PDh2eGs7w0H9Jkz+AJtifB0t+YIPqFK/Cemn2eMSk3Fc77x+YT536rUL/ZfIHDbzhp35ruF6jP/8xkFPAeANuEx4PwFSwivFTQ2Q8MPNAYkKZCoYZkaeCCfQ/TOtHuH6YBwwP/KfwodPf2YmBdLh6VdoKFDdlOjFyp/i1I7I4RlQSwNB2CGfXEREK61D7RJ10QYMa04SEk1vVxD+I2aSKU09VIEvIvMOJCNbkVhrbumR47pmgE6cABRKv2uXAacwGbxMmSsUZpL7EmuwtI7WYcm6Aq3Pw3JJK1y9r0t3Jj2R1QNLdZnHcQRvUyUsS3S1T4Q6mit2BbBccBkHXSTLaFQqd+KaKXR3kdMitXQPdFSomqHFMFcs408YiSPbaQNZxREPuQ3vZQP3NNEQo3Y1UkiMBiiiE4lkmQ5Y3UkyjQwp1e5uuEjYd6O7e/DyfDvZVvDh8vIIvDo8uW8uhGh0edemCrx6PCtz6lJzhsf/V5+fK+m5qrvrfwufy0/z6V/LffH5Qfc9U2YeBwpvlBYN0JYJPfn+7greHj499D7unp+O3wvP//cdBe3X8sCi3fwE=);lineShape=1;" vertex="1" parent="1">
                    <mxGeometry x="461.46634317320957" y="201.06816508899735" width="36.30986162730043" height="20.254441133556423" as="geometry"/>
                </mxCell>
                <mxCell id="7" value="root" style="text;html=1;align=center;verticalAlign=middle;resizable=0;points=[];autosize=1;strokeColor=none;fillColor=none;" vertex="1" parent="1">
                    <mxGeometry x="430" y="205" width="40" height="30" as="geometry"/>
                </mxCell>
                <mxCell id="8" value="" style="shape=stencil(lVhJchsxDHzNXFEkuJ8d5x+ushypokguWc7y+2AyoTIEJ035NhLRJJYGAXByD2/7p9fdxObtejl/3f04PF/3k/s0MR9O+93lcJWvyT1O7uHlfNl9uZzfT8/L79enWXL++nb+Pu/wc8G5SNnNKDa/ln8M5fTnj8+L/PFwauU5NPKeYgTygbJv5DPeP1Bo9bFM1kKAsy1AVCwQYFsL2JLBKpnWBI7kGAA8lfYEZykjlXxdvgESxQFARcGRHwC4BRSyyGhPqVUpSKANBuQWUChglVJsANGTH5zQGh0zpQ8BEpNHZBVAG+kUKGJquNbolCt//5c+f514Swdb2bUNECKo/HEUQD54Q9wmUI5kgUrCnKIAmSICFM3WYskCt4ZE3Ea6YBuiXAKt0SWQB14KTke65Oq3bYBkcAdwgEtRwpQ1wCAbUtX4BkiUASAJ+ZIGJHDNZK4arwEBAApxp1IBRhe5NaI22gK3ynLovIQyzhpDxmhEBuyT5aKOkJsM3DNCneg0IAC/FlPrxwqQwAlzRnYnFBCIFHVFWflhm015w4gC3BSZTOiMADpJkhqrAR7cfVIPDHeBACpJknp1Qq6U3wYEfZXNbAIpJBVHZ4TwFblVegFFplQpvx05Ju6TFGREKrrwzgDgpZw0N2aVUM65WsjXNxOItOzXJ6lDgKJ7gYILb7lV/hU1UIv1YQBLIVduDdXR2xdNrF3kqgahpC66b5Ui54BGvq6uqijKN1uLwapMM/Bpd08O+gCraTRoNDpiDzoZrpXjzlapl8e9GOsmY9DsiXxL6kE3yXUMubNdZd1xD/ph1nPVoOEW+dY/g46edcczGBm4rt45k4h8y8/B0MNV2zunKmle1JyHxzbW+TuYC/v8gnOnJHerPh5rjd4dT82yu1fiaPeOywZX4n535Mms71pTB+Jt3Vk3sgaWF4ljDFoeJYqhovWB8tIVaN8jfeQmN1ofZK/r2mrsTtf17ThaMgI6rT98Qfn4C81AXj7+PQe9HI7H5TVpva6fj+Sv5enJPf4G);lineShape=1;" vertex="1" parent="1">
                    <mxGeometry x="450.7039194592354" y="204.5888484071416" width="0.5238126364511118" height="10.704484712237104" as="geometry"/>
                </mxCell>
                <mxCell id="9" value="" style="shape=stencil(lVvJkhVHDPyauVbUvpwx/g8iGMyEMUMA3v7eWZ6onlep19lwm0XqrkVLKqV+SG++fXz35fEh+m/fvz7//vj30/vvHx/SLw8xPn3++Pj16Tt+ekhvH9KbD89fH3/7+vzn5/cvv395NyXnT388/zWf8M+LXg6uhakV/b8vf8Ef8v9/+PVF/tPT5xv5NNz83418cr4L+er6Lp9dTkK+uFA2+aLlkwt1k6+uBiEfnN+f39yI5/Kxu9o3+eGSWA9en/fnB++6OCCcR2i7QnR5CIWwFnwo4BHiDWHwFYTihjij0FyjJTVpFHheS7vCWGZ1XyHxqWJXVWw6YNP7scLu1D3j1NO+6WlI4pS662OXby6KFTWzg+6GkK+u+d1vvKvC8ApvOEUXhOEVF/c7g2eoE82u7X4Dz0tiPdnFfb+pyfUks36cT1PydJ5Z+01yOe/y0XXl+C7s95uz60W4mRu7SefmvAoU6+2H/HBByrd9/SXowOI6yR8ncLZfki+uyPOp+35Lc0XcF+xh328ZK2qcyI/dPmuQ8keIOuTTCmMn/ujp+cVVcb+d40NtK7PdlR+u7PZc+/KgswBEF9y8i2JBM8TtO244IbEiBFFKle249PsK2aXdBxp8QNwB4nqhPdT1iPsKldFE69ILkFjIzdqQbonEkvY39OCKyq+4h33TPbkkLg6eRpbRD0xyX8GEul7XO+8rFI4Vves3NNf35NFhjl4o4BD36D78iq9nsGjspzS08aXM8XRErVDXqR8KSV4c8kXZ72FkmZGRMEpjBWVLyBiM7YARVAwzSRMKQ+whV6NQpfHlztBrHMDhfpj0K8vfKChwV7BpegNCpzjWks0pNRnISjVLai6LJVVvbrpJrFbjnTcof6jIPt4oqCUd4OZHFRCXzCkVla8AeKvZtIjeCO7DXFwUiAGxOhrT6ArSmpw4dLjv3gSBsqzrvkJcpnbjok1l6ew8XRyihloSHHJPWYhLKil2AHlSgDkKF0XoJSSM6N2FAp5H1RHeqZaE0Dt208CussImcUWhmxynwAkOsVHKwikJB8I1cdr1skqd90pYo0usAcuJhGZg3uqULDgpMsdBgbLodCm1h+o8vSHqJVU2DWC+pJZUOfIBVWZ1cZXzQ60yzEyXJ4W8kP6ZAtELiLYqA00FQsZe+vRU2M279HUzpwq7LSHFXL2BFLL2B6sQZfU5FfZjLQex9IObRn14YUt0rFnnh6lAFbGugKYClbhJ4iVrGkBQXh8reRwwmkpZ0x/2MAMUeOFAfl9SqjJPj8I5LukMhEBWiLiJksiYCWq/B4DrpC4uury/YcJ3tenAnCeq2aJyHJ633zQqiiLuARmNoEOskg1AxUOoEkWOQvfIaJ74M8QlEQRm1UZLSjJqoC4kJnZyKMJaUXlSMIaCVwCrGQXN4SBBURZFdaouriU+pUmsKlTpObGHLssB5JtoFBShX8vCXzfksCICa+RQGeriKs/KATqloOFPacxdhSxBYikL7BwKSXrcLJqMQtRlWdxNI8RFIJ0VfnzTUfKNKC0DKYSFZM+K15RZIQnTQKzm1pCXlDJidTcKKnonYL7KCkEsCYGREBkUvNg0AmOmgkMGb8hzveGaYpfaIvFf5WXzpnEUu2CJ2wooB+6W/g95Cnpds8rNsJSS0MDjqFvV9Ho6V+qaVY4HKLqRV8zYcT2v8lXE+OTt81VJnAyn1BfvfSbPhZXMasmwxGMZ4Ol6iDXQHmbi0JBgfv6bnz+U/Zh28HRIpdAZKEwF5fKdWe4hs/g0SGJu5A1YjxmS3brnkRfrIY/v64WnEYWfr+i5+W+i3CUsmlCR5VUjdRpkJfkLj/wpeeQAwtdN9kWTibi6N52G9WBlbzksZHwTQRVjmzit6giNoozy9pDMSzaNLU39o6z0/HwV0VG3RuOQCrmXo/F+gyMu+OBggMcQV1Y6B8UQJbNTDdQHPFNpuGauoEKWWKhWHg8IuilUB5s1UK+yuxYXELhRUA3tlrn6CNpzWr1TGyhevnVmFFB9qEkTlFycDbTxoagjwizqrj/KRnoDSi7VFu6N+9SzClRlY2fictaZilHwpjDNq1d/Vu9TRkNxrZL+ZGtp001a6yg85BS73kPlkitd0LtYgBlPiYqz6KteuuFdJAneuWxMVSbCMThwJ917HqZJiopHNqu95+rgigAbzCteUWyDmfwrEm/wMV3RhONnicjBROQV1TmYV7wiUwfzild0rX1DvVSgPVw4hFGYpLZi/QbHykmbK6pzmAGXLGfmhhnjq/VKgRJ17Ve2RERk01AAClwNRtlAn05N4C1L7AAF6s41nUZnnKElNX1KjSueNiTgm11XGsa4pP4ZUeoUNJuopJAltTM5alKomjZPnBUn46tiZeDxRaQ9GfmOMvBQCLJOmiMwxIwk3UuuBugWeXEAG+Rxs5umWHC76SYHe6blEFbvko6AMVO4h0vJnn5mF51erhjkwHODM44oaGz2cJP27muYWYlLjWzQ9JVG5GmJSw2/Gqk3G1fdXmSEZI526LrGKqjkjqxGsWlenpqBjIa9GXIwpnhDlmg2I1u+U4/pZjOXCQWVIwB4mOHqkuNFAZ7tJI2aNB7mpqseHW5cdczGvXpDZjQwLr5KiGaoJMuLS96MDyX5hldW6FCIcjpuDh2akUDlD69lz5EjhuyqzBF+4j67dNEwOAwgpssR2W6mULIclwhm/q5H6XHBdCS6l2krmKmsNmT/LEQeyGgasIfA1V8remrXc7OqZV2bMaMJFCeHsjgqIclEleWWvx84dMjnm08fgFsV7ZDZ7gCM9Wh8JiCtv0mKiyW5gfbqPAMzlNVLrsgzCChN9mw9f/pQiqQcPTNLJckZCVPlzk8ThB97ZqDzkNjQc/c1V2nQnocRcpZ0oGeGew76yvNphgdQqC1wEzJ1/fESY7akCzfzgRfyj+K4IveEUpI9mMQILx0rPPEvOv/ZglEjxsubbtgnlfHNTFvU1YsBalihmqIwnErUdPKMuLRhr7NG4jmn0PUbCqNyZCploqHd+ehP2dB0SvNZoQoq87MHQvFBf5SQzbi9/ibBTI/pYsq2FrVVTCOmL5IkUwAnIdiYZKafwwrEJMvWaDKDxUFPgHhOk8d09Zk88c7HlZ/JUzWrG6/A4TRapwuuHNiAvKRFskmTOktCnoCT15+DRPYALyE45AOfp2qV58ijBF7aQzbF3DHGd7oe/jJb2X8OplujC7Of/PL7Wh4/vH5m/uHp06eXr9Rv/8+fpeNPL5+0p7f/AQ==);lineShape=1;" vertex="1" parent="1">
                    <mxGeometry x="445.083172201611" y="190.0041154907677" width="8.896372005480544" height="12.270954062837518" as="geometry"/>
                </mxCell>
                <mxCell id="10" value="" style="shape=stencil(lZxJshy3FUVX86cZQKIfy/I+FCHKZJgmFRTd7d4P/oFU5btZJ1kzsj5uAXh9h3pLP/3x8ZffP7zt4Y/v377+/cO/P/36/eNb+svbvn/68vHDt0/f7V9v6ee39NNvX799+Nu3r//88uv7/3//Za6c//rH13/Nb/jPOy5se5mgPfx3fRDC/z/46/vyz5++nJaP7JaP+nx53HI7Ld+3GGn5GKflaSvl+fJ9K+fDlK2258vTFsNped/STstrPS2PYev9+fq87em83jbMtL679WVLcNuyZXeetnVgVd3Cfl4/tgbEr1s5E9/Y0eD8bYtufdo60LOtvx7ryzbgvn3L/by+LwZerh+L2ofwmGzD+cei3rF+3xKIj7E/nxmWjOVwoBi3cL5BqttO4m8EP5Mo9S0QwE7sdjAeA00NMM6AHFFI46GBB8D2HADIXstyWoL1DODkLufF+WtA2YIDlK2QESpyh7plkFQDODuUGzPOvi94AOmaAXo8A0y46UhtyfIDoNAOxwEeAIN26N5+5cGc7ltrHlATAOz7qgeQBZu+6HyHwt7JAE0AEe4wHVT1AHIK5nP23QMy8MEATpYmAMTbrGiTHQodydQlCwD0wexu1B3oSGVrSQB0abNzXchKfKhelsoRmFwDRB8mp4lKbavO8o3FmWtA91Sa0sqAIvrQiUrDe+jM1tsAeQgAdjAPGPIrlzZADZ6sxLgUlws8ABH5YAAX9pQdddq8ci4eQHFYSltwsmQqBfpgACcaJaMhM7+fnAIVVFEDuLC51C3SDkX4YBpCVKreehuAzL0BuiNrYz40L3wTANKaRIEmgPjQV7z5ozuYQ4lyaZJWU0jhA+l0DsJp4wMlAWH9+QFQCRDFkFWMlwxQmwdkAuw+XpoAsBoGKCJ8CaTVAEOotEMobSFhKgKgHZL4h4qOPUs2NncA8TaAF76K6YMFnUl2IFNpQWcQslbaoS6z9SitRKW2bMSjPhAfuuzQlvG8Bpj7iB5A+UOJPiszAPHBjHuSIxEfzLhX3QHMjBl3L61thSvXgOozXQMkukMTq9GWpboG9JV5PgLAepchCsSAGpZCPgJAlmpcDurHAf21HXYfL90B0gUfiNMG6CKtJHw1+3x6ijcDhnpR4oPkojcuq5rwyZGoJlAvHTuId20r+H+8NLjdeiWtSNaxvu8HddoASlZyKC1chA47kLVF4QPrdLuyS6TTzaRVASAaBlC7hACLUtUugQK1I0p9ABQia73gNEWV7SDiAehYwm1dwp/BfBjesZtpIxXtYdmIBwDdoUcfVZppo7Ss755K07SBxvXkqw7TtAEfet5K8oAKlq+XC0CnHaovIhiAKvu9CVkz5g8GcKXHCQAF6n2r+0tHUtHImIv2I91+AJDGDemWGIA4bYAmR+pwhxHlDmVx5hnA34GLm2NfhvEANIwqDeAcu5lnPFLyhXKztgGM8ci+EGK2kDJFA9TzpdsNlSxYP4v3NDzUTLBg/XwHMwvYfaie06a0gY7UFpsOQF2Vv2tA93UNk99EO3Sfixorqeowhue03SoSH4Z3WQbIYConQHYYRNbhy6eTbtilCT7NMjpQ0/Fii754+RRwNn32CSUQQ7Im+4SqOZMRxQOoVza/bwiAVG54cZ178qVdkcw+oTr2BGRP1nED2D0gvQZo2LEcR3/iAUDZ6wSIuFbS0eGL9wagFGUCugdQtH4hGpUN01gK9gCgKHFI8P2nbftxHaVo/UpHG9bhLnW03JzJcW7cWgFRCHTtaiy5PzCGz0Yf6PBUONQM8CVeBHTvSM1TFjpS85Vs8ymoc82HGzOIYkfq+sEWOVI7y07cHSBjvG4A17OwCB5ddV7driN6GCx9aXUoDkDjoCz5vMkCmkqM2z2nW8bCw3T9Z3G1jBbvEP38i0VxGAxE2SFgHcEEweWvM7CkOwTffK0dVa6LOa7sUmYK4XI/NkwXSQpL60Ua1FDjLhKtho73IpVrGBx3KQsYINEdRB8q+9GZ8Loj1WV4nqbUktVQK8ii892RtSxheVoWkMyMyvez8HBWUUtHsXjSRZZ27B21JnfYVxbytDzjRCNiZ2cWgKS0QfV+LTHVgGGiFrEmgKbIpEx2B5BC3ARQiUlKfRMA4q3FxAkAKmm5cgKoqCsF0ZualJZcKw9ealF3cvqlsnGNXDaWwvRsGVDZWErfNWLVS4vrlYfVtHw/7/BSg+COrNKCmAAqfUuT40aBtI1yD4hSEEWAtIJuANpsulFRbWfdAaRhdqPT2pK70Wlt+lWe5tW24g2ntXF5o9PaGr0RPm2+TvGGHbS9W7kQpw3kKV3c09YdcFRAmuAGoNEZbbPPajy1qKWRbwDig44KTADxQYYRJuClcYe7I8lAxTQLPONRhKw4KiBDITdNDh07qRGn7XWwZXKaADI6M6MZnrXxViNidK/jPwagQoUOGN24LB1hqlw21iGpG7erY1gTQENSl46dZs+qZFlh1UauAeXCx1HBaI7DBQ+gXuoctHd9yME7JF/pM59EOj2HBqMHIKePMfgD0DD2TvFihAlH+qJ0zbk0mIIMVBRsviadry6oDzqAagDKH3TEdQIgEtAh2um5aQedMsw8piuDwAZoDPAt6oyW72KYOa+XSs8AuxwJx6V1IDsz43Tkm9+uXAyVZ8ynL8bWM1a+LwbjMxqBi9H7jA92Lob78/rkGqDPB7i9e/FAIaNdijq3lTG1jDqhlzFuNYAfkso4/Rybr/OVjF40ysMvi5XJP8Tqa5UGIFMZq4xW7jhJH6UEPIfKiazymK5wISRmeRLEDbb5rMk9Cer8NCt7WcoNhS/KFEnmEdf5+MsdKWMoHWVUwCJZepURo3e7maP7GHybJg1sghvAiYYFRFjs9wWsVLhL4/v+FhlQIC2p7nzgQPNL/jy2I/HgGJk/1nOPs3qhmI9iKc/1mrMnHEouPiI2K0sd0ewzymkCKTHxQw6Rn94lH5HEjKmVZFYm5NRzkBeWYzXAruXTV294Xi5KzQANY/AKXLAeFryhzjicEXw9IiOngjz0xOg0eEFOqOhB9BBHLMQRc6ld+s87zqPKt0eM3IO8vEa7HFb+tpYHtGjBZ+78Qku4Gl6TmbvfA3jx5wNults//vylgt8+ff78/kMHj3/3v2xgH73/KkL6+X8=);lineShape=1;" vertex="1" parent="1">
                    <mxGeometry x="395.3352504765262" y="187.13593835273699" width="48.74449295425279" height="4.784317626619516" as="geometry"/>
                </mxCell>
                <mxCell id="11" value="" style="shape=stencil(lZzbkly3DUW/Zl5ZvF+eHec/XGU5UkWRXLJy+/uANWFrzkb36vHbqAX0OSRx2dgA+6X89MfHX37/8JLjH9+/ff37h39/+vX7x5fyl5ecP335+OHbp+/210v5+aX89NvXbx/+9u3rP7/8+vrv33/Zkvuvf3z91/6G/7zqlR5W3Vo5/vf1kxzK6wd/fZX//OnLW/kSVlT5CPIxpCzyvT2WzzNElV/wPrmF1S7yJZQM8jXEKvKT5HNI4yJfQ+0gH892HPkWMrx/mqGmi3w/D7wv38O8yo+Q4H1SC7Vc5GdIE+RrSFf5FfICeTuedZFPMVQ44JTCuC7gxyf3FWLo1x3dz4QtWqFfT8zWlEF+hiHyLQww6eEWMHDFPYyrxaUVCmypWbR4QAoVTKgdA7jJl9BgvTW0eZXn9ZrHyPePMMHkbk+/eVg8PvdAPl+/v5jPgUGUkMTjC4YIkxePb6GDyxfdzzJCLih/9YAyMaTYeq/2U81jwCXLCSA3+Rwi2I/bz1pC5++/2kO1kAX2bAFW3t8sHPenyPtPDHEmL++/TgR4JH99/5ZCRPuRiNuepLwT8G/yNUzc/3q1hzbOJ4/8RTKG2Q+el8j3iPHNy6cn9tCv8aebheP+S/zsFQN60YzdO8ZDl5H6RPuvmvH6ChPsuYYlGTWFBvbcNH6Ogim1qz2Piuc7NJ4M+wbMXxIPh2UoiM/rWMtNfh2M9igBt+sLTQtYhFEsPl3faKazZ/cVzOSuIWLmMAk1NY2Jk3OApegoa2ghglFbjk5Xr5kdgZwlaQG6c4RCSNfirjxhYhwyw5NAOtcJxfcVhkauFY+t3FewQOsUJoX2FJYoJI7VVY175RO+7yv0g31uCoXRhMG5pQqdwkU63ntTqKHAoi2dNqewwOEsn0rNtNpxqfsKzqVXP6DhfkhyVcfinNyyUxgY5C3n5aUKlZ7Q3baO0EnBVX6mQLi0rQND3yg0OAfLe7OoAiEdS2QSNWxbCfpaJmtFFQopWKq/BmMzDTo4y02CThejEUtORV6p4BqG2aZ4XMZ8bulGANXiBGr5JstJRwxk05WAFvkoelu+6VL1DsT8lm+GKHT0B8s3UmXOeoLnfYWquzRvwPuRwpJXSgc53VdoB0a9ydNUCJpCFySzMMfZnkSBDlYK0i51PYdnWMY8+GoaZr+Ddmkomhz5bPR9ham7NLhcMIV13SXDkwR/zDZl0X0gmtlZ+epxFkeIdFm3gvEt5AbzNoVxjRqG6SNhxNuevCkaiOQwBUFkFp7p4DZQEIWBMN0UhKm0FENBwMKWFNqWxBKdQ9YwY2kyQSBbvpRfJ9U/UphX46sWl8D4LLh3eUJDJGDpQ8J9zVwNNM1AldH9zmjCv0zkRzYUEYKkI8FjWVnCzIaNZBrDUUKZrdUrRHbRcd74RoItBOt+DZs1I582hevBWeH45Bzk4KxAiBQEuqasTQ3QOXStH6zImfxKEshyZI9rpxlw40YnL7pqwbEJcVp0Vf7eakeqdrdPX8/BqlNClT7MWP2LT0i6S1ZhE9C16B0FrHNeH4rgnmTppgxvR/xmYEkYwIbZx1CFwOiGBM4YinHrsdxHiFUZSSzgDFJILVNOE+OdmLvg+xioX/r9FCu66+kURCSW7Lv24Aa8f8/K+GQsP3vU88oYJyxxC4OW0YlbO7H2nfK3Ft075V2dl5Fgt6Tt34fkh55vRoK3OuifD8q9Lx8PP/hGnnuy7v0bEfjF2wM2ILKix4zw1OSF8UzoXyUrdZa4QeP4xYSYaH//dT8jxsOSFV5zS9PkpWMXkRAurqMQT+5/RJoJNIjc4KhK2EZMSKUpVonIXJp81fViQ6EpiE3nge+WR/t078Mwxa83Hyr2nfuZkfry5/XUfxVnYXzw9paxqPb2nLmh4/wlhcH27/wRG2rO3+OhOt4ZTyIiMh+v4mmJvjMeRrZPF28jFqJ/Vt7Hf/Z3n184nvj8FZEMqLf+2fv2x+dfkwf/bff2hwYkXMkambseyuBwPNz9VF0vzdgYvuq6XqLRelN/iUhZ9aEd5YhMel/K67F/jaT7mfD9R/X+TnhjdO10JW6ATq2oMtL0Mx2m6Q1+Zu5W6qOCDejZ1Z4r5qM5D1z+Ue/gANLS/e+nS/awgBQaFvGGVajtGg8nzuxtlkraT1jv7KJcCtqEDrO6sotWMiN/6ciRVHEmyhTUpDvm+DWVjkwTg+5a2slMiymkdZzkDZtCsMkUhigUrGtNQeuwinRkio5ZeEY6LaXbzfaQ8VzKeG7ijGxjHWz+lprjbepSbXP5YwoSTg2wEd7dR321vsJdvW1MQhhMjBhrKuIyDDDYvoXLqwVz8nIDELXxLrlW5oYNTP6JLbWIYXs1dYhmQJVsqSk115joMQWJM60zVV0VObbJzHM9leEtdDO2MwVZw57GomBfFKx1nnA2BWll9sa9HjdA1ztOfVg+kcZ7f8LaZh1JHIzYLMP9Px3cFBhi7PaTPCFjs3RFDTPjSRCIZ9dvCtypt6yurzSxDDHYINs6FuK8edv1W15P2K/azdLrGmbGwSxTkDXMitB8dteDbvyEdkrXm8LAYsFeIMsabqn7EVsti148L2mbKE8w66Iegx2TH7F4QnBnP3LEDLd2ABr2DUd2M0odOa/hewzcNNhFiYyJTGQtenWjLgt3qWeF0RtC0ROim41ZSARZYSidyTeI6FHpKQ2rZ48omuT2Iqi4TYpOTIHYzeqt73aj4VH5L+WbKRA2rvXO3BTeMHAFx+o4nlndBMTuMhPFOTRBbIdgzk8H3hqTqFlJmO2jfNNJqm6LAtRGsypMxzMzjkwYNtcJuYxr2KPZbjyTOu+7kJdzYKokLW2l7cksmg12jfTJBURy11tmR2icips+ZqRrxaqYxnwCK7Uumzwg7wYbN2FB/JAr1xlIN4dMJiITN8o5BvIN7sLE4PFV5/2D79g5+sayF85mK500mJ+L2j7szH9EzZ17rBPWG3Uuu3PZ7ce9Cp6vS81PLnB4eQY80VVJfAHFy/MFl6hXLp9coHHt5ycXdNwV0ycXgNz+P7lg5GDFkwtMUZmhJxekouLNJxeworsQxhe8orY3nlwgc8PkTy6oRQUg+wIc7r/Um/uCHcpLjW3JnOBHVMhVCk4WRsUS+1oD3UjVBLMzAuU8RXSZ4VNyHFtDuilrGbivJEK8dRcid38A5QUJpYlsbXWouqN/NSdfsd/YFdWkgvh1KHxNnH/XKUB/VAWIB1LUiciFeMAe35W/J39J7sZrZ/vxLBaS5ft4/sz81D5+oWhxHsQn4Hwa9vfls/br+Ib4bq9of4ni874Xpf0x8t98p59G81Al+f4tFjPuNxUY7/nfbIg8/zI0oHN/sgzfzyR7MPml8jivMbV/Fbl2mwqwIuKrTbZf7S0hiXtPnnho/z4Jf9PCr5f7n34/M88juPPKB1G80x4y2+ef/Y2Qp/L2x48fJPnt0+fPr79n8vb/9QdM7KPXHz8pP/8P);lineShape=1;" vertex="1" parent="1">
                    <mxGeometry x="388.40328229048134" y="176.19984319911043" width="9.094032374099925" height="12.759533043448451" as="geometry"/>
                </mxCell>
                <mxCell id="12" value="" style="shape=stencil(lVjLbhsxDPyavRKUqOc5Tf8jQJzaqBsHjtPH35dbQ67J9Y6R28aZWUnkDEntJA/v26e3zRT5/XQ8fN/82j2ftpN8mWLcvW43x91JnyZ5nOTh5XDcfDsePl6fz3+/Pc3I+enH4ef8ht9nXu/EaWZF/nP+JWTi/O+Xr2fCfvd6TShUoyUEagUQIuVgCUIFrNAa5WoJhaQBglCyK0QmCeuEWomLJRQKYEulU7OHlkQxAkKkaLeUhDqIUk4+SlmoyjohVQo2SrpmY0BgH9bK1Oo6QY/YbJQ0bg0cWpiCPYNmJoPEadTFik9zHxIgCIndUtczgEzHQGy3pHIUkIegfhBLEEyoQwgXQoIGUn+l5gkZraB2cVvKmBCouBXUtMjTVLrFtxG22/5ZvL9TBHnOI0cXQzMTA62qkNjqoo8lV/Ds8BXqSPE2Z+1iv7X9WNm1SAyso+XHBrTxHXy1+69tVNnbGfb1S/EBKYJS9PgE8dX6svZRPG7bzLushRGBFbyrXVoo0Hm1mloHNK0cEO/f36hDvNNPDxSBfhbx0SLBEO8alFoe6TOMCnKFT1Cf3sBCDTQPHv30qiomqM/g9sOUQEFZ+qvd8bv3bybB+3F47X3Q7+LwGjH4/mzjqfpnWH+680ujiHqA38+Mh34sCz8GWB+6+PNifwXx8ewgX5/F5zHKXNXbBPRZ/TCk+ADwWp3c+2W08bUO6QlxSHatB2en6DBqzGqXLz4FBZREnSNC9yvAM2hJq56Apt5ZpbwgANXptOW3xHByn6domzfVNaqLmrjmZlKBjUln0mLzUCqcDHTqFZvpcmm2twnFeydHKkjbaVj3atRPYEsljJvA5TIhw99rt49iE6eZqUB8tfiwqhzRfKN2ia6hwfqu5dwNFBn2y7m9uBvaqOC38dVP4Xhe1PnT3QsEziuKz/a8Cdpf8W5ASzABim/JxacCSSjeN5B75+3OmSSo3/Ciw+qJ0KW9e41qyUQTy3xiO1KEODSyGlK3gkCN9oULQoJDghKSeAKaAudbjCNkOFZ//uPJfYI+/P9W87Lb78+feq7/77/t6E/n70Ly+Bc=);lineShape=1;" vertex="1" parent="1">
                    <mxGeometry x="374.4907688835981" y="173.03844902578203" width="11.783058074879516" height="1.6196423222972653" as="geometry"/>
                </mxCell>
                <mxCell id="13" value="" style="shape=stencil(lVjZctswDPwav2J4guBzmv5HZuLUnrp2xnGvvy9Ul6oBWZv2TaaxIrlYXNrkh7fd0+t2k8Lb5Xz6vP2+f77sNvnDJqX9cbc97y/6tMmPm/zwcjpvP51PX4/P19+vT5Pl9PTl9G16w48rrlYKMqFS+PlnhXr+vfDxan/YH2/si1DJxj4mmn6uAgqFagFMqa8DslC3gBSoVgDIVOwVUiFu64DUqDcLEGJwh5So2x1yogIAUaixBTBlQGssVO0OJVABLMVIwe6gREsAgECpWEcnqugOTDUYAEeKAllK0QIqCXBc6iRWSy0QI2l0YiuNxhSAp2ugZmmVQAIAnChaWkVpBSy1WWozQKgCT/fmj9QLdQYA1VKygEoZATqV6gEdXFoB0i2AqRWkpUDBakOvVfEWLiD0Whm4WgHRnUlXIqQpNw9gcAk98RLQEWDOW7cAEBBKe2IPaCAgVAlZPCAhWvPw0w2tDLKAAoqNUaUBpY0J4NTHWK56pOYBEd2h+IqivFXkaZX/IiACdlx2figj86xJwx9JAcjTsmBJfY9o7T4bKwBKoy/SBlMBtN6PUVR4pzTgPCcUEU19ISZ5jyZehByqclOyjB6A8reS4irEDQ9raqqLqBYk8Doi7B8BLS2iOg993a9a3atJ8A6ljeZiBjCMiKzqtDRJHNnwfqleZCatvAnoNWqQulIdoZhkJLqb5oFBFkgjV8/tTIfxEEajMNvn0UGt2VsvFx51eOU87PqxAHtKJrHnV5+gplUbPpfEsq4AgrR/y/YGCWfuFEcJnwFKEYhO7aODjc7Yx573ZacdohseKmyWchuzxQyIcBYo0c8CAqNfI8fni5HTVscfaz93mPftF6EcRvFaa1hd0x2gSmskzt4e3Fd7/ubPH9H7sy87AQ4NVdthcXzC81efV+JoFNfsxQ2HsO+s7MckTb0gMer7u60GBfur+rCvsNn533H7fXt9+Dvbv+wPh+ungdv//bcAXbp+R8iPvwA=);lineShape=1;" vertex="1" parent="1">
                    <mxGeometry x="374.2436358087433" y="172.73809996964044" width="2.848397172424221" height="3.6439133448474355" as="geometry"/>
                </mxCell>
                <mxCell id="14" value="" style="shape=stencil(lVfZctpAEPwavU7tzt7PjvMfrjIOVAi4MLn+Pq0QEe2saRdvQkxrzp5jCg9v26fXzaTu7Xw6ft383D2ft1P4NKnuDtvNaXfG0xQep/DwcjxtvpyO3w/Pl9+vT7Pk/PTt+GP+wq8LzidJeUap+/3vjST/98Xni/x+d+jlo+/ki8RI5IOk0H+/SEkE4KWlDqBNMrPIi9MOEIq0QABOXO9yhEn5NqCJq518quKIC1V8H6JcJCuT19iHNC8ab9gTWidfVRqxHxFKrgdAJTEISTYaGrLibgPUiTeAKEpcCCq+L4sGn0mWkaJoAKjEdhuQsoRoTSrE6Qyn+7S1ILmQNDgJfV3UtgT6fYBa7gCgTEOUlAYAq4wsqQwmkbA2FEK2gEZquzWJvUkIQ2J8dqBbX30oJiUtAypqsQBW3wAYQiPSjHANfDSAIJ5pSFLVAhLpMfi7BAvILHN+aXJrDaS+kadcLEAZoA6UUykMUMQnC/Cs7+UhSp4Oh1mDaRtOCgOgXJ0FeFLfiFIZCEFLw0sZOBoYIEiNFqCMQUmaWkBkHL0OzBWAJQ588GqjFD5g3NDvWTcGoA0A1lzntmESp9xpVGvfXBFox5prljjwITKK3gvIKAQDQGYIp9O1u18BVSopjTgCGm0CoUrpw7pqt+9P6jrMUa7Cw+tgnWAzaFzg5oonGsowH3hfQl80hKuSmEF2EaiB9gy3jIL1OkbsGeYb1j02G9yynV7XSeyrZAvwS82s1lW2l6gdPdiHK7En2AsACybbrKLlPjZ6Fv8subefXwzZLqv8IMHXzX0hnny92GPBSSV0QaSjEWcbHsiVjbjSwyJaY1ih4XCJ1coTa+a9/y55Hb2l9mClcXe46+PoL4smzhBn7WHJmm/ToRbYanr/7fuBPB7+H9ovu/3+cqev/7eHOV5djvrw+Ac=);lineShape=1;" vertex="1" parent="1">
                    <mxGeometry x="379.6043939245292" y="163.09968659017915" width="2.0659358376071983" height="6.1564681149093685" as="geometry"/>
                </mxCell>
                <mxCell id="15" value="" style="shape=stencil(rVnbUhsxDP2avGp8t/VM2/9gBiiZUmCA3v6+cjPexFL2bDLTtyUcrSXrdqTdxZv3x9vX+11w7x9vL9/uf+3vPh538dMuhP3z4/3b/kOedvHzLt48vLzdf317+fF8d/j79bYj+9P3l5/9Db8Pco5C6ULB/Tn80JhS+PfLlwP+af98gvdUvMZnXsdHygZfwfszVaNP8+v4Ssni6zqeqSSNZ2SvJ2YjkIFAomROiBEIFGJlQqUKrtSzsTlTAHckTuM4CzhiBwQSxToJ1I0TCtVZoDSK6AQmP99ScfCE6Cm7SSC74ZnzApHafELy0OhYyM+3JK/IIDRi07ck1+DaukBylOcTJP1QaKQwcmsI+EycgECiPKvkA4ylVHQseUcN3FISo+eExukgXvJN4VG9yIFcUvgELM5xXMgRH0H+5zzS/QSP9K86O3E2Sxi7q/CBQr4Gn3RB3cAXalfpw9fpU6Uh8DX4NNJ8qUVUQM7UQkWVotEhzuOZnKpEVIE+zVOc9c+jQ5zHS02Y41kcgvBZN8wI+6vU/jzffxgJdx7PWn9PHuQXe3Jz/Duq4P0ctP5uBOB5fCLvFB7Zy1kXICmJIB64DHVP8KjfV10fBA/ih4WeZIV3oB4KvkWFD/j9PN+POATEZ8fP9xNgn+z4OR4izC/vFvuOCYA6dz9gTgCpMCjgWDugUUAOlgvVDSOCBOOFH540JIyvs8Ok4214oOiKiDqY4FWFwBWu4+cLqjgDWHeAPJjOhXgpwSgjjT5hlOAL7fVb+hedYWkjI3WGbfir6Qrhsb0q4BycUGxA+0F+L0yYSB7gz2Rkgi3PpnzZcoAqKZUaoEC2ZPGmA6LCI0ppS65fSNR/EjBNQN6ANDJNhnGTNE2MIemwTZKxh00TZuyxpaecXhAQ6EO/0wJo9uk0Rc0NHvMm4UEz7+iTCbC5Ey1FbOJI1DUmp21II/NWqaIqXGWQx1UuqgTqcOSFZNe3Qb8uZNMigIqvpetbAmYe2BIwA8eWgJlotgTMyLQhYGcyj1usHfq6AJpCzVQpAnBtZcbWLoBUMnOxCDDaBcjgrWwQ32+M9nMs9UaITki6ykjnR+Gdgl6mCRUJaD3hdE73fRzayTS9TIsZjkOx6IwTJZHjYtS7sSzFE+2VvLahLK5cW3UplSRpEyjGnVDPKtU61jpr67o0h0ZLY9O0uhCch2TGU0tfOSpSvgTL6lJTCVTIOvvaVLHsBlmDXcwKLUjXbH6PxPiyzXLHo02R3lx3oosizyxyMMkwm/cjzzqLN5v9E2K5JuDMAcBgp1e4vOwiVvBOOQyXeWc2gRWmsuDVBRU4qBmaLTQOrQItPkG6YPUJcFCz9noYEPY+3eDFF/oLD1ImHtoy6V0WcBufkrbx8nD8bvWwf3o6fPY6/b/+ziU/Hb6Rxc9/AQ==);lineShape=1;" vertex="1" parent="1">
                    <mxGeometry x="400.68483063314795" y="171.83087200712797" width="36.07745115799378" height="1.7693004233445788" as="geometry"/>
                </mxCell>
                <mxCell id="16" value="" style="shape=stencil(rVjbbtswDP2avBISdaH03HX/UaDpGqxrijS7/f3oBXQsOj7FgL05Do8siucc0t6lu/fnh7f9jsP7+XT8uv95eDw/79KnHfPh9Xl/Opz1apfud+nu6Xjafzkdv78+Xn6/PUyR09W3449phV8XXKGYJhCH35cbgUL4e+PzJfzl8LoIj0IpDvGRctuOZyHOQ3wiBvEpUa1DfCaO2/E52nYtvlBF8Y1kXF+ognxLpTjGdxKw/8okY76RKVQAaNTGBGKmlLcBon/LCNA9CgB06g4g1MEZtUKljYBONW0DevFb0ipHxKIQfNmS8ggcU++24AwQCh0AKqWR2Jmt9LcBWicHaMbFrWOS8ZhKoennZiEa9ZFLyhZ0TMLUxicoW1DlqlDuI7sLlGeN/pRapA62lHW9MupBFVUAQOnqBNSpIIUmCtkDOmCfWkBNKwAQRA7E4gEVSC4p+aJPuoOkUzOTWwCQrSqZmzvWSg3kMAFcDmp8yFibucoMyFTQE7qReQYk6AJ6rHmUqEqqA4lq4UQ8oCKAukrzAEGVzsb+RQ6MclDrW51SQGytxMXXIQAuKaA4tuoSSHF1JSAxu93KwbUgJV9GW8qm4IUeGNehBA9o6FjZu/eiA2yRSaJ/hIA9KV3zStTIjVUQZSVq1HhVcj37QjBoEJNG3RMqBazRuGJfxzm00e+V3/8VULKNR3NH0R4DSl2Dtw2J5gu3ASq5EVDVmIC5yqpnFYGi1h2n0QVyh/bd2FKcAYkaoEZbuXEqZlW3Ad27cQpQ1Ne2PI9YQoJmh+qbnE7GDTiZBGsHiyEOiVrLJG5L2olBDqVZO1jMlQlsqegoMFJDJ9cA2Kpe6WY4HabbB3pwszFbJ74NiCaXGRChV/Kqo8QAO4pO8458DQouUxzNW8z+bydgbyPX8AJW16FYXHhEm/fir9YpboavKFfg3oNPVYsL/Hf9jgHnSF2dXTjqUMH3QDb8xsm41SNsNtH3mgDVzpbZNZzRUG4MXLz0Ix3+2zeCD8P14vo54unw8nL5mrH833++0FuXTx/p/g8=);lineShape=1;" vertex="1" parent="1">
                    <mxGeometry x="434.761844130923" y="170.51954037675188" width="2.8352763168571955" height="3.380071107991727" as="geometry"/>
                </mxCell>
                <mxCell id="17" value="" style="shape=stencil(7VjLbhsxDPwaXwlR1POcpv8RIE5jNI0Dx+nj78utq+2K2h0jQI+5OQpnRZHDEamd3Lw+3r3sd969nk/Hr/sfh/vz404+7bw/PD/uT4ez/trJ7U5uHo6n/ZfT8e35/vL3y91kOf36dvw+feHnBSdU/QTy7tdlIQYq4c/K54v90+F5Yc9CvvSASKFsA7ynagCZxANAJS89oFDhbYAk4n6H5CiCHYJQMQAhBwDRUeUeoHsCl/SIIfeAShkA1AHf75CFogBAtmHNmaLbBmSm1LtUdAW4lAOl2gMiJbRDoho7QHXkEaBQ7XeokSRigLOAlACgkjOABKmhO/xl/wxQtgJ6KyD0bK2l0XEdkKk4CygIoGHtE1dr23ML4NgCCjp0oJo6ADvXAreOGCpIt6joEH6IqxYESjUPqa4k6NTcKnIR1wyULM8isQA4VBCO2CQiQ35rjTpTQZUYJEJVxdC1qAqAsKZI3IdVkx/QDqHV/CxMyj5QQQooPTcSwyipS9novbS4bUUp9WcIESvZrCoNIIU82GFkqzjKWJikj5Kfr71VgKbJ99LHCbqkuuV68jEsuDpLb7N38NZVmZNk7BlUz8Rkb+yhP8VS27WFLfuSrf/o+ypx9vsV25sUM7w+FwI3p7hFYHODYOwrKIPpAD2F8H0+iVWfsIATkO1lGzDhVIuKsUdyqgQyXVggBjqhBDUJE8qIEMH6ryUE1Frtk40/UsbJ3hYYumXV3hCUW0e2dV7p4+mag1vxHArG4/hXMfaoRa1DW6H2yJ9i4+Ogwk23Lxv7jOsl24IUXC+mF+S2sGnf++9bu7plH80dQILis2YP8lWKbT9YO0PQ4OiVYQrGR8g47WWD8cjj1nS+gmZApYRaKLF9YMDdhHZ1YbjrI+rqPLme1QnfewqQoV/xIM96BuNS1m4CjzmGeMXjRjNbZazcpr2PqWU5tQwTwvunliuJ+5ha/v/UMgEGuqKrShv4bKaWAufNFO1jR5nnmHWA6kyfhytvF1H53XMj4yipbkkfJaVXADUaclPGGcBwtgtsZWNSMkA+CYNWxsb49YezPAACdGnqkfuwJg+nCvZrwyBI3CDGybW2YN0jO+WoPVJKbj3mwl6gvWmC49xGrNq71rMv7NH3XeuRF0+XaNAchhC1Rwqm9n3THDPkkGsvrbN9gk94bpjdIxRItkPOtcdgq0Vqz8AfsYyeXqfB7f/e1+zr9vrj39P5w+Hp6fLyvvy/fWrXpcszvdz+Bg==);lineShape=1;" vertex="1" parent="1">
                    <mxGeometry x="412.7148055577662" y="163.98239017178713" width="3.3090287292624687" height="4.1230983978212405" as="geometry"/>
                </mxCell>
                <mxCell id="18" value="" style="shape=stencil(7VrLchw3DPyavaL4AgmeHec/XGU5UkWxXLKcx98HrA3Hw56d3vIpF99WK/aQxKPRwOwlv/v6+OHLwyWFr2+vL78//PX08e3xkn+5pPT0+fHh9enNP13y+0t+9+nl9eG315dvnz9e//7yYawcn/54+XM84e8rLkkKA5TCP9cvguj1i1+vy5+fPu+Wq9S8LFfRdL68Sa/L8hgl2Pn6GCToCvBHRAJIEtYDpSqhEkCWZgsgO4DtoBLLAihVYicA//d6aa1imQL+u+IE1CaJAZqUtACa70C85gBbj2Q6/X4bYBJXs/YohVnJJLcVUKfdTgGrWXuTwAEpIsCYH0zCGtrdpCq1UlvN2rukRgHZENBIOjgAj9Slsx2q1PXSMYT5jDNEyriFsTOp2OEShUWfp7yhXY2lnB5cbTw2dCbYztX5To7CpetMkTNAWO1qfRLJbUCRvh7JohgLJkUma2k+4gwATFyT1DuA9UiaKHcPx607FN+BA2y9Q85iPFzL6mlnY2V830RXP3j9oZ7ukyS2hHAzkB38eR0qSpRMLp0yBp8TD4luv2EEv9ESlzqStwcvsWlOk+V2JZeEhZeznOE8nQRqdsoCTqJRVBJmgpfUTLLZyyW6zGiJLjbL5RYUWZQkp0aJq0n9DixOPVFsBbjVmI7RMk+8pU6WSi7tgA5eDpQkVaWsBVS3GnwGgOSsOivkbUCVtpq1eW6wO9gM5J3MYMpHvZitAAuUhp3hFHRJpkLGr2hrLLmQqeTSfkUIDXOOIjs0xRLtOxTiOL8i6ENzViUEYIdS0vqsFTcBPUyC2ACF+sHLK1S3WkTZDjbF3Q5wZwfwwwCwHVxJKQKYynBADQhg9XPInDWWPFgaB4Af6pYhp4A1vF2nNxJ840hgJaOs4QCQVrXTBBpmTQhggnI4bvW0Z0hiOxhq3JFSzNPtYKU+W64zQK0IYMzngKJoVqYBhnqEHbieHDtAPmxV9QygEEs6pdAZAKq6hzcNPputyA5AL21Y10eK8vAGqnQAU0qjTzjegR2pY+9dlWqNkXEV/cDYe9cd7V3Nz9QB4BHPmawe4ptyZZ/P2wGM08YPAiKWIK8oSljASxooLC9KjQHCLMsbwGhX6WU0Q7eeqMz9zlsbIM8APpMC0GA5oLAdgrQ1mIbdmCQ70IZrB2WAclAngQO81wByzbTn04RSwBOCsYBLY1C6LtKo0o3I935INpdxXVvXI7ngZ/qnHBKo+CPIkbwfAD9k5Q1Ene3Crh9gxFQKtiipTOa5DYiYoonL+2yi0AS1OUq9DVCk76g0vL1PBD/EQovc6JFWK3kjx2atqWG0+g6MvocRFe/A+rIUpR3MGtn8oKMU8G498KEgkEAulCrjIfi8AaaDH0Ole28sc5iE3hv8uFoH1rgzWrKp/vfDKzaxM0wg4y3Kz/HvJnAIkf0c/26A/338C0zmUoAprAGADFJu1oLTmdY4C5QpbPdNDfNDnkVzNzBi85+YMKkLnzDFiGb1KsYK9UG3jlEicXRDHnP+Z+mgkxZ35YT1TAXnV+PtIznPQck4hxGDBvSY0ml6wKjmEiMcJo40HA59T6b9Zzi8NqWDicOMK07WOFmeEyxnkRlmBZ7Lw5wInCw3XM4G9BELR+BverBW3iFc7OMD7Sl+8HX73eX+4fub/U9Pz8/XHwbs/4+/BPCvrr8iyO//BQ==);lineShape=1;" vertex="1" parent="1">
                    <mxGeometry x="389.44741658176963" y="168.4762474112542" width="7.826121441815336" height="3.394150401737883" as="geometry"/>
                </mxCell>
                <mxCell id="19" value="!! FOR BETTER UNDERSTAND PRE AND INORDER SE CONSTRUCT KARNE WALA DEKHO" style="text;html=1;align=center;verticalAlign=middle;resizable=0;points=[];autosize=1;strokeColor=none;fillColor=none;" vertex="1" parent="1">
                    <mxGeometry x="240" y="125" width="530" height="30" as="geometry"/>
                </mxCell>
                <mxCell id="20" value="" style="shape=stencil(lVfZctswDPwavWJ4E3xO0//ITJxaU9fOOO719wWryhVBa2W/yfQuSQCLg4N/+ti/vO8GZz4u59PX3c/x9bIf/KfBufG4353Hi3wN/nnwT2+n8+7L+fT9+Dr9fn+pyPr17fSj7vBr4hmKpZKc+T0tRE/W/l35POEP43GBD1T/avGc1/FMgVt8oAD2t5FcR2BAkBv53BIimbJO8Nf9FgRvgMnxBiHEdUJMFJMm/Fu5SUiJitGEFNYJOVHympCBDRwoqrg5YgaEQtwKIzAxuFIR3bQ2BNEKiEORMIWG4BlGuhStPUMF44PGG+Ajwac2zpaSg/ispDon0xq+qP0tRWxAaQ+wTBkIz5qrhTPDiRYBox4R2yCEOY5rBG6jFszstlWvtkZIPgV8QlDKy1RA9gjBK+UxGRw4a/WVYORYeylsSI+1l8StAZRJISgtSeCg0UJovWTFKhRpuVJblER9jE8oqjUQYylZdQBlZLKErXWq2Ypa1HjGOsptjQxkPFZ220jkglh2pcXbRA4ccCs7PRVUU7sjvJQk7FNuZSQ1dSM7s0rnTS+p3ibZ6fGVHiRE3UhYjEaBkM7T2sBxTo613qYKcTFwKKnds5VSufbTO/tzyXMzunMCqATgpX7GEAKq9P0UIwTk1n5OEsJjk1jBdbif9YTgURz0MFmrIJrc9MBQRwjgo24YXqTsCiFEfYAHFpvZvIVLkcGGnFIF7s6mS50Cp3Mz5/oVH7bw7f5Z7AVTZI/3c1G+7z6JyYEC2dmb/AZe+TMWMtD/vpv8Uc/p9FBfRxD/2OtrGy8f/596b+PhML0Ul//rp6EsTc9K//wH);lineShape=1;" vertex="1" parent="1">
                    <mxGeometry x="516.6332703468465" y="186.34518970763855" width="34.13483241363809" height="0.8623366216246658" as="geometry"/>
                </mxCell>
                <mxCell id="21" value="" style="shape=stencil(rVfbbtswDP2avBKkKInSc9f9R4Gma7CuKdLu9vej4Tmp6PgUA/bmODwmD3lIUTu9eX28e9nvEr++nY5f9z8P92+PO/20S+nw/Lg/Hd78aae3O715OJ72X07H78/38++Xu8lyevp2/DF94deMq9TaBEr8e37BxPOLz7P50+H5nbl0SmWwF+q8ba+ZWAf7Sr1s2+dMycbvM7W0DSiFagAUKroNqEaVB4BTLn0bYI1spOwczLYBrVEZQ1KlBELqlSQPgMwkACDsVRpJ5LPT6y4a1bHOxWAhui5pPxfOiDNg7UqqA8AKdQCoQm2UhgdZgPYqUx0L0TspIF06iUXA3yCvA2yRzkV950xvya9LdGGARMmUewQkAQClzDFNkHUiGwvRjRSoyQExr/WjkDh4KCSoSZV6AGQSlKVCKQA8DQjg6pMIEMShUV55YDAGXH1hkk0hoUEjpGvSQEs1kUpMK4O0OsDGpvbCQQ4OGJvapZGwB1n1aALic9IcQurLcNvq0brqB0NqbVc8dEDapZFzBDQEyNQ1AlClXd4mMUsVt2hf1aGikLxFA6DCWemAFkZfoYxCUqqBQ/6/ALNYOEuUwRHUNIqvZlKg1mZxeZjGAkhr68Qjh8JwtroHGQG+sCjiIPFo1wa15DnhcRirjwXc04HDtNMhtfIKIHAV8Iht5CC2jLargOTHcgAoFTCMpa4GGZz2qzPUyNASShLNUUbTemVtaCVeRu7FPIFgmHKQHCn4Oi9L11lwMDOrvdATD6YvUxpjP8+ZDfM2mgvcdWRZky/mjGSzvooUkEg/TEswhwfNosB3Fx10GP/bvehDc3+4XMEeDk9P8w3u/f/xyuav5uue3v4B);lineShape=1;" vertex="1" parent="1">
                    <mxGeometry x="547.436625754768" y="183.66425019635773" width="4.476692445405043" height="6.56478242042957" as="geometry"/>
                </mxCell>
                <mxCell id="22" value="inorder=[9,3,15,20,7]&lt;br&gt;postorder=[9,15,7,20,3]" style="text;html=1;align=left;verticalAlign=middle;resizable=0;points=[];autosize=1;strokeColor=none;fillColor=none;" vertex="1" parent="1">
                    <mxGeometry x="560" y="169.26" width="150" height="40" as="geometry"/>
                </mxCell>
                <mxCell id="23" value="" style="shape=stencil(lVhJchsxDHyNrijuy9lx/uEqy7EqiuSSne33AaPieACOm9ZNGqE1ANEgGtj5u9fnh5f9zpnXt8v5+/734fHteee/7Jw7nJ73l8Mbf9r5+52/ezpf9t8u55+nx+v3l4dm2T79OP9q//DniquRfGwoZ/5enxjK7v+Dr1f74+G0tg+UkrAP5Aq0t9K+kE/A3lMxwt46yhYCYpCASCVDgIrYVqoY4KwAcMwWu2QVoOBD8mRkDN71qLYBjmqVgNTz8iFABh0MxYgBTgI40ROATFzIlAwEFBlDZJc8BhQJ4MxUnAcZdIydXR+RNWYJyFSRS4mMcom5hKiRKXgBSJYKAhTK0qXk8bHWntcFECmiiq6UFSBTBGy1xpCRqU6VEgqCf5b8ztOovYw6T9iXegkvgIRTPRR1rj01m4BSKMljKo4McKkEMvIN/CQCujYHZMmVTAYBAhV1t1aYuWyoyjxU24twE8BMSNIlPrcKLiau+SCpUZeotgG+F9gKgG4yXyhYDSjAJW83XKrgDY4LTLq0Yvx2RcSNICqia8/rOgZwSr5HuD4kYL/08JW9B8Tg8JK2Rx3ODvEWKiDeRDZo+wSKjXu+G14QQM7sQvwVwIOm7rIutoqFiQ+6ITaXUClY8kYDUP2HqBtiO1WQhVD0HcZpMyAGBpiRFyAP7JIfiIduGFYVYQBkELT3nTjr0gEuMZeckm+z6iy657ZXoAZnyQ3HhCRl7MW1Lk8QtKU4XpIgb0O/ZXuHItZykomEbm22H6oN2btBWDXZjpJWuipaNR5Ii6BDaK0NhNzagmrPufffbaY6SlIxtPaMAElTu1hIo7DU1kpioFuY9a+afSYiht+gWttEJvEFYG8SYtzPtfzEUm+8YiZqsl1iCoD1Kget1SdWxHys6hKbaO5oe/V+UtW3OUS6NJkbYtASYzKZMEBNV5PZhwG3TVcNIDM9md8aQI2UmHwNIDM9mUEZkG+achtAHutkjo7DNmMyqTMgKgDeBTBA6YzJtoEBSvpM9hlMBDX6TDYmDEhqMIHKJw7rDLzyiU6HjFdKcdh+TGmh9gBc4KgUsuadIQdIkYbyN2SB/yn143i3N+D/8yAMsX7hJhCG/wf2ZZAX2J8yLDFwvGUZnz53nuOiB+erDlU8WVXdusKc2vOH933p0+F4vK5b17/r/So/uu5m/f0/);lineShape=1;" vertex="1" parent="1">
                    <mxGeometry x="611.100362427493" y="158.55870307635385" width="0.5022619215913957" height="14.775569969498108" as="geometry"/>
                </mxCell>
                <mxCell id="24" value="" style="shape=stencil(lZfJctswDIafRlcMCXA9p+l7ZCZO7alrZxx3e/vCVamaoPRncpNFfCZ2QJM8vO2fXncTu7fr5fx19/PwfN1P8mliPpz2u8vhqk+TPE7y8HK+7L5czt9Pz/Pv16eb5O3p2/nH7R9+zVylwjeI3e/5BZMLf198nsWPh9OduE/kaifvhRgAHNvxckGgkLcB8VR6QJiEAVDJuw4InhK4IWQS3wHRUwQ3xEg1dUDyxGkbSIFy7oDsiMENWSj3NuRMqWwDNVPt41ADpQgA9VJvdI0kIHAKlF6lmogdSA3nyBkik8c6/bNxAUpLr3WgUBmACvyqCiTjpkoRqaQ2egvAG9TtPADIBiFXLJCRSr4d3wEomaqjnKyXUMkpwGIDF98BhtxIHgI20rFl/JbRyagUcByY6gAIskHbULKARypp6xsBVEG5pdodEFBRF8qDl2A91CH5tFUhG+rQNhIVwV2g78ZqVcYq2dQolECv1GM/FBAMXKIsFoA2RPJ94O5a1VaNxqFGCzKC7RUKBKTTR4GUSHqVioOBiJm4z76sJQJqNJTWrJcpJ/AGHbxmtEehCvJbVOM+1CG0Zri+PIjtxhLaBNhaT2qffZza7F53q60HvyTLqrxrc3+xAK5Lw0QUEhBkFe8zmymBNHUkfcB0dQLxclStOIO5420z0uiB9GG7Lri2Za3ngl2p1HZQ9BqVbMWBZ4ZicW37WV+/KHqrO8gynabViBc0moiL8Tv69w9u5O+K68P/5f/lcDzO3w735/ZjQV/NHxry+Ac=);lineShape=1;" vertex="1" parent="1">
                    <mxGeometry x="608.9802289771353" y="169.70544686127423" width="2.264247146194802" height="3.7690038211709354" as="geometry"/>
                </mxCell>
                <mxCell id="25" value="" style="shape=stencil(lVbLctswDPwaXTEgwOc5Tf8jM3FqT1074zh9/H2pauiYoLSd3GR5QRGLxQKTPrztn153k/Db9XL+vvt1eL7uJ/0yiRxO+93lcK1Pkz5O+vByvuy+Xc7vp+fl9+vTjJyffpx/zif8XuJKIclzlPCf5U0g1n8vvi744+F0h8+JWDq8y8R5OyApudIFqKNStgOiUuAuwDvKvB0QhHwfEJQ0bAfU8yR0AdFTcdsBksn3JKVECgIyuf5GJVMErCZysccXUg9SpqIWnwVkTKHHO2ZiwGktmgwfAFWuFQoW7+M2nil7S1AComASQ2hqFGzg2eAjFF09P1o8AwkxFZNvIAEFEGLX42tJAJ/a5HWHd+D+npIMeCDQOAjUQ8FVuQ/4DPjJQ70CBXD/Wv2hXh7wU/FGP4k8si1S0zAZWkSiYPgv5MD5kXRo4AjyDYMeCpWE9BDygAf3F+tw833A/R05b/FoDDBpsnwK7kejT2ygPPjPjeENfDT8BKifz+IrQWomgG8prRdMrUVH1zS73sF1BJlBzG0qrEsoWo/T3CbnukZrC/ZFrm2BmjLl5pm3sVF9BqiuVFs0ywEFkEJxFPu2qQcAjopQZIP36D7amvAD79D53o4xPCXnIeEtHuU7zHluvrqOr3tEMvgERDc3LRv+BRR4NgWLRy40m45RENT03ZZx02jbRLY+kPqEPbSJz26v/8fXh49V+eVwPC6b9v3/drWur5a1XB//Ag==);lineShape=1;" vertex="1" parent="1">
                    <mxGeometry x="610.9669278557724" y="170.4404822928121" width="2.2610728502368147" height="3.3661579082917386" as="geometry"/>
                </mxCell>
                <mxCell id="26" value="" style="shape=stencil(rVjbbtswDP2avBKiKInSc9f9R4Gma7CuKdJ0l78fvUxuRNunGLA3xyElkTzkOfJObl4f7172uxhez6fj1/2Pw/35cSefdjEenh/3p8PZnnZyu5Obh+Np/+V0fHu+v/x+uZssp6dvx+/TCj8vfi2Q8OQVw6+/byjHPy8+X+yfDs9X9popp8FeKbVt+1xJ42BfqPC2fYp9+/f1S9m2l0BRBnsOVHXbITKJcyj9zaoDV4p5cIhCKYMdAnEZHSxHIGZbL445FaYagINSHXeQQqGCLAnVscppPuR6GZjSWIaUiEFac6BcR4fakbXqUALpeKQcqQEHDVTa6IChoY14TGuJVEBaqyVxrHRR2AzWPDpiSSMJqEMTCmPQqiQJOHBfrzvUSIpjiM5B4ZG0Eo+Vtj0ZwLtYXXV0EGrAwUaAg3crPQ3r4NMOhNnBGgjBe+lQqYAjVcpjCBwCBZDWvNigUQUbCOXg7VGdmXLzASDkBQ+LDzI0R3dVAjT0Qh/qs30mBuszqbNPcL4I6QJDAsaLodqB1IYFagOqzdujicq8KJi1KjgQr0WAGpMzJfUpQtPIaCmxr0EBVGsOPobSeWLrSG58GYoaCjp1EFzBtCHujBRc3Rqk/0apeHt0okJaF/agzxLFxfoZcbmncgu4wr7U4DOK5oT1patA6Xppw96pHcMEOj9TXIAOTlLPgIZqBNK8wgUBnL8u5lDsk+O/2JvQ8YOIO0TWASGLClgNQdNkpuII1iANesA0RBxjmDga1ExnhTw7MBScqp4NNMEj2d9hhPUkrjDnuzqU0qPaUndOxheGjTPpx7EOpu4QQ4k1+hjDB/pxutiM0EiYYycSdJJWOq1scYKM3WOHDMBBe9Jne4EhiA/Z+kNh9zsg2TxD0zH2WTXLIqx/1atZm/cZEY4QjyWosMZWgeJA0YG7WeJRaUY87Vq/NXX7QA3Em5rXjTa/QT7LYrxjlWld6OgpdErfuuE4mcYwXhv+TiFIvyKt2xdfL3zzNbIr6uyRPJjIdMxPgmzW2hIPEemVsNC98xVva4Mmzh7Rt9kndwGkAgA0qXo32kmQvfpvDxXKXlMDXn/g9RcTpfVr/Lq96SHHlpA3/vXr0sf29vD+Kevh8PR0+RJ2/b//9GWvLp/N5PY3);lineShape=1;" vertex="1" parent="1">
                    <mxGeometry x="606.5883853328163" y="152.14032083989034" width="2.1182393411283904" height="4.867455319625324" as="geometry"/>
                </mxCell>
                <mxCell id="27" value="" style="shape=stencil(lZbdchoxDIWfZm/PWJZ/r9P0PTITCDulkCG0Td4+2mwgWNkKfLd4/bE6OpLsge9eNg/Pq8G7l+Nh/2v1b3w8bgb+MXg/7jarw3iUp4HvB75b7w+rp8P+z+5x/v38MO2cnn7v/07/8Dpz5BycmzDv3ualiBw/Fn7OwHbcXQA1IaVmP2dkbwABPjRAEqAYgEcoDVAjnAU4+DakryAXgcIovgUKnAFkAVoNtYIMIBE4aaDw/4EgOWltuHBmkWDJa9afsFR7yWvVqj9lLQLESG1MNSMZVhdE0j6Q8QHRrBQERKP2iBBiCzCcERCdXToDdMrzclIdSElwyJZvDGINeCOkmFBKD5AqaldIxaHEHtFFfEs9aZUOVS19xTgJQJeeXRklIXSVXs6ICrCLO8XT1LqxfaKIbjVc7dByCvnGIeAlKVED1pghAbJWbQ2yihy0D8kwTrKqFNijuHe/mNBW3pWzgcFt/FcOn87D7dt8CeBsRt/2PpvJJ4/Ytj6dWnu5HEjPX4dqJcfrE8GB7dlVi9pv1bOMLscd+ycv9X4rnlwQqENvyQjckc/67cS0/ZJeij3l0H2XugGQh6+r23rcbueb3+V7fdWTpfmayPfv);lineShape=1;" vertex="1" parent="1">
                    <mxGeometry x="610.7971037713914" y="153.42085784416966" width="0.25158277529754697" height="2.17065792379695" as="geometry"/>
                </mxCell>
                <mxCell id="28" value="" style="shape=stencil(lZbdUttADIWfxrdnpNX+XlN4D2YIjYc0YUKg5e3R1mOIlkSd3vnv88pHR8c7yc3L9v55MwV6OR0PT5vf88NpO8mPKYR5v90c55MeTXI7yc3j4bj5eTy87h+W8+f7/mQ/+nV462/4s3CNUEKnAr0vV2JCan+v3C3Abt6fAxmlGCAJWnWAhsoGyIKaXSCJAUoEeyUltGyAqis4QG2IFmiMFh1AVbIltYLE14FCyFYlJgLRdSITJNolGtiRKRGq7ZzqQE4jooBtI2oFO4BUkAVK84EMsrrmBhIHKGMjUkV1VIphXCGqW5zO6W1pFggITklaQK4G0CKzs0KuaMkCGSE53lARrZlU6OB8dG+TXUFbGfyBoGFG6V8zykPjCLFcB87c/OkNWoPh8hI6MBbQofJa3UdysGtbX3FZJh36YUg1GJySeqzYkr6i53KrBeXbjFYnBjQa6wBofHozmhCHoVZZHTN1QP4HkDima09Dx0whrm7+BBKyE0yc1rQ+i43ofHRBtW4tDHHaEMYwzrym7cXn1ar2AxKvKXLteWuLSODg1ZNsYgRfUc0TWz831xQcR4GYkZweBxmBBHEmRz0x/Bm0AY6garpBofHfpgdfO47HebdbNizn98cdil5adjdy+wE=);lineShape=1;" vertex="1" parent="1">
                    <mxGeometry x="610.7063532467284" y="152.04772502736324" width="0.47897576004522435" height="0.48044509744843145" as="geometry"/>
                </mxCell>
                <mxCell id="29" value="" style="shape=stencil(7VnLUtxADPyavao075kzSf6DKiBshQAF5PX3aWdrjEfebe9ecuK2GEmekVpSS96Fq9f76+fbndfXt5enb7e/9jdv97vwaef9/vH+9mX/hl+78HkXru6eXm6/vjz9eLw5/P18PUlOv74//Zws/D7oJdE2KXn9c3gQJMV/D74cxB/2jwvxKM0P4i5J9Ey+jOZ9lhousB/wpDD5OtqPeCM9f3WDfEriHT3/KJ/TxnmMfMniqP2aB/kaxRH/IFxpkG8qidhPknWUx3lIvJKk0f+tiGYm76uVbxw/5jy1e+yEfBjj25oEYj9IVStfSLyCuDjiWVVUTyt4ieUiBSfVX3IiJ34lz26sUvwlHtVu7cyIqTi18gwR8IY5D0ec6/k6Z0DrFk5FzGQMnjSaYaN9ZKSS+2bJY4blKpHYrza+WSUT/zgn0ZQgLyURhbkizDUOWUdu4LK08Q2h9rQ+rtAkmybgaRdAFqQRFL502B5XSL3qzwowQbzqm7QxzDhkYLCI3d6sUDtyjys0W+qmN7DSjjiMtQ7YUqaAxBoVguvl+3gxdRJGt+KQkcQhRYuliOQnl05F4ujWVMUTtALMaVTIPP1zsPWooCeSjpazbQnV0YJR1MahomtVohB6Qs4KyAcSh7p+A+BI7oADGLTWIo68ocXeM2YvVdoVoGAaWymU6LR0RIExC5TpOl4ahbKRFH3vG4s3sE6FxmTIDi5NvdR6mGYFpCi7wxymOQ5ojwStk8LYzqvvjOaUgsVS4HFovdssGB51a101uNRJ7qk4uDHjapbA3IoGGFYKJOOAJXWrI5EyA7S6ZC9dWRyCLTNwK8tpKPix3CNwjGhDIZhIK+1AUDCjC8Dn2JFiZ+ILeDOmAbdGA+/CwZdty5pSlCkUS/+nIsDKTO1eXyhUDu+Q7KUbi0OzfAxx8IwPv/PrRYOgtbLZ0gcwsVdAwUwxgGvmlziiQBICDce4CcFnpA/2/AjXxus9wLmeA2hXTLbJTW8gXkLftbMh56Ho7H41rDZy6TyzzkWdYQmRmvUS0McaREq23uNWgc233mZQdr1UHSd9rU8jC3rPOBzIvFlJxMBHaN+xObPETLEUUAXGS2NoYfQe7N8cCfSeDRD4d1gNEGxoAnO2EwdKHwkcxkTDpSc3kDe4mSksqDErTJiaiqHGG4MryLeBBogmm8u8VSiO8h+n3d6SJbIyYwc/NHa+TfrYDm1sh8YC9rEd+s/bIbXseWPfqb2KnLlPxX1XQw+jkWpZ5MY+WG0GbOyb1XaPjX22djp35r5c7YZhYx+/sr+x719xNf45QfsCZT6OZNLv1ZJ+12fWE+KmfDpKfp3FslJO56x1pZH1nSu9i/NKUtMF4sGOEvwwoY+g5101WuvckatdBQ/TarrkILjwi9WmOH68fxy72z88HL6tLf9vP6bh0eFDXPj8Fw==);lineShape=1;" vertex="1" parent="1">
                    <mxGeometry x="612.8082626152494" y="152.14058454032147" width="4.956314766886949" height="3.5397136667765845" as="geometry"/>
                </mxCell>
                <mxCell id="30" value="" style="shape=stencil(lVhJchsxDHyNriiuIHl2nH+4ynKsimO7bGf7fXqiojQENa3kJs2wh9jRwC7evD/eve53wb1/vL183f883H887uKnXQiH58f92+EDv3bxdhdvHl7e9l/eXr4/3x//v94tJ5df315+LF/4dcTVKj4tqOB+H584qfXvg8/H80+H59X5olLccD6Ki+S8Ez+eT9L89nkNkttwvojX7fM5iY7yN2ll+3yq0sbv+yjBEUCSWEYATEAslJyEOABgUiUqR5U4qgAbVSJSnGwEpZe/mwAnLY9Oi5KIDgAEPwJKv/MiAALU0UrJd8dsAUwcpSyJWAkADSOgSuUi5VGkHMRnDhitlHmsRt9T5QQoEsgNMUvVEQDHkehGLLnxBvXU00lFR6WRUJXnjx+jVZMkEnw6Ka1ZGgPAcQZQJLISg9dGJCQt0aGiBI3RiqqjxEq1SBozrgSJxHHN2xQtsBsJjRZERx1QOD2xEgBhDL5SJbIbINIYS5WXmeakjDrU0JN2C2DyoWZxxKwLYPQDDO1Jc1hEMje03o62lDZWwhPHlI7STHsIUhigSBnLTIOnSbR6hxwdK1nLkokSSDATTA09i5gpa0+wUws6X3q5DKCs1OkK1hYRfs0CKlECTUvVAljOoWm1YgGR3eBtwQeAUQ3cYAK8Vepr6GC6HACJVVdvSxkAlDxUyWoBjpVj7S1qDSAiaZz4T+09Y4uQhUmkQPxQskQ3WYk03nL63toPTCS8nkKDFUvU0jplECMPKO+aLUCJSKqTWRvlxWjkKVpAI1bKXsqUcQwAIprdJBIBxHqhzhTGK2Nvs2uz8hStk0is4CNFnVEaJI6laOqvV4DMAM0SoCW8GcXSPl+sE4j54WKKMk8nW77RIFinBmDuQZE1iFNPW3c5HnyGYl3powDUUaQrnRoiOcM2OBfADSb4rrANAIynr/CZ7Gy0Vk4T0UXjqPTCyYgOqdiRY2F9rO3miSam3rm3OlAzgEDJBoqA8QMaABsIUAR0TFEQ+EiqBgZ0YyXw+0KsFLwdkFFtA/GDz5aug0IpMat3dqmBNulYaNh+giknMjLTbb6a4xiX8d0gq0GR2dTZgebKJDpR0Cuj7nR+maVJ2E3yXBnWp7F1YU4kJJxln8u6gcpT530GCeppuMKsz0h9tuQ2pD6pXJ4arL6QMBN5fLC8cFkqsRTQPgyu1lZsAF1MZFpCr+BbWWzaoNKZO56movNeT1mbDZY6B8pFEPBpdBm3aJ5WK46uMXK1+jq6ujnvXc7nWTtDhTJrEuQE+361JIFPeCX2OeIfz8O/Vn5HKladUsz1D1w+n2yJOK1BL59XW9Nd37NurWzM3tbRvlenycvRWfB/9+DXz+PHeen+cHh6Ou7s1+/tkh6Pjgv+ePsH);lineShape=1;" vertex="1" parent="1">
                    <mxGeometry x="665.6844430968453" y="158.73741043911932" width="0.6470750670908144" height="15.407910484363734" as="geometry"/>
                </mxCell>
                <mxCell id="31" value="" style="shape=stencil(lVdbctswDDyNfjF8gK/vNL1HZuLUnrp2xnHb5PaFqmEjkOLa/ZMoLAEsnpr8w9v+6XU3OfN2vZy/734fnq/7yX+ZnDuc9rvL4SpPk3+c/MPL+bL7djn/PD0v769Ps+T89OP8a77hfcFFCnYGOfOxHBgK+e/B10X8eDitxG2hYpR8ppLG8t5RYiUvN8yvIwBbstogMdGEMSAY8lEBPJMBJoVCrF1gTw5oiLkaUAHBkTVjQIrkvAJEMdKOAVlY0k7HRJ7HgFIoah+KXAFotcaQaRBMHiBERXEaEKiA1BCAzxqQKCANmVjTJCcJaUhkkwYID4imQElrWPGwjWBynYqMnHBUuAVYDwCWcmppKgUCbMNrxLyaziSmjHjtNUhFIF7FB11zcgIjJyw1oTYUEUtdHHKpXt0ZagEkUNVzMsXWJAuKdE5X1wJQ75sLoom0q43h3pLzlICGraoOtaiGjUN3GuHBIMC/klwVKaMKSp0GabiI11gHwgoAQ801sPcCfDsibpkk/b10TiOA7TTcoHUTAHyQmRJ1MiXGAENZ+yAzBbW+6CjrwIVMMY4BgcnqOHCBfYYDBV2jMu1Rn/GSGjr5vIQSFLVsI16bJNsDAw02trPdJnIg0q5VUOoCtX0/cdPGKsmb4oaSzopU162BuNPikTJIuq5ZBDg9O3GGraUzBm9VnauuDvcRkToTbFU3CpO+XdZatKa2ndrU1N5O5JpTn+KoskK/Y6Pb/3MlvykuD5/b/8vheFx+Htbf278FOVr+NPzjHw==);lineShape=1;" vertex="1" parent="1">
                    <mxGeometry x="663.0892070906392" y="171.15110521967316" width="2.950826890583509" height="2.6131106842787113" as="geometry"/>
                </mxCell>
                <mxCell id="32" value="" style="shape=stencil(lVfLctswDPwaXTEkwOc5Tf8jM3FqTV074zht8/eBqlEqQNW2vcnyLkGAuyA0yN3L8eH5MHB4uV0vXw8/xsfbcZBPA/N4Ph6u402fBrkf5O7pcj18uV5ez4/z7+eHCTk9fbt8n1b4OfN6ox4mFoe3+U2hIr9efJ7xp/G8wrdClQ0+Vkpln1B1vWQIXKlEQAiULUESVbClwlSzISShACLkRBINITMkpExZbJEipbBPkErZRpiyAhEkULBJ107S9wlRSIohdC1rAwT2EfToKyIEYquM3ilXIA0K7PEd4DPVtMEnUCMqm/0kVCJq0SdcgFLDkt2qohnoTo/M7acQQ3x066fFezv7D+6EBe6fN/tniE/eZz1SB/Usi1xWeOTLvhFcxPlqwt0nkLCkXS/SCiWwIzWNl1yiwoCQKLiaZuoZRii2F6mIGJhAc8iO0CgBF6gtm5OFdgpAUJdXj2+gqoWylXUMH0rf0RE3H6AAHTHJJmPUJwL16Evasc8cvsDOqNnZ5q5njAoaluxWIgpAE2GJ/o94vVDZFqhmqFI9gW4JBWcs4kuUKxRdil5EqUIf5OBFIY0aiJAbsa2qXokNqK5kH0EviAZkoUWMlqBmZVBWHXXEbokXpfwZv7n0I15fZW/bl95AwDdd/y4OH4FvtHu6MQf7eJJl83igIrWJE0WAQ9HUCf36HdxP2hayGzWpghlqGgcsnuGgOY0bFi8Qv+qDHy6AF+zUB60vM7Tl/87if8frw+/B/2k8nebvhvX//kNBX80fGXL/Dg==);lineShape=1;" vertex="1" parent="1">
                    <mxGeometry x="666.4920393400062" y="170.96759517767657" width="1.7973258852899086" height="3.0567343464993733" as="geometry"/>
                </mxCell>
                <mxCell id="33" value="" style="shape=stencil(lVjZchQxDPyafVXZ8qlnCP9BFYFsEZJUEq6/p4eNh7Fmt0Pe9pgeW1KrdRzSu6ebjw/XBw1Pz4/3X69/Hj893xzS+4Pq8e7m+vH4jE+HdHVI7z7fP15/ebz/fvfp9P3h4/Lk8unb/Y/lDb9OOFWJZUFp+P3yS5ac/v7y4QS4Pd5tAClIjDPApOhlQA5iYQKkJJ2ckJuoAxRJ/TKgrDdeAVUKAdQoeTY6NQnkSrVLNX9CJSc0k9q80S+/nAX0JnkGaKc29D5uvAJUeiaANJw4ALFKI4FrWWqeAVEKsaGq1NmtXZTcqFQJc6DbcPN5YsCC4N7Pnk/R8wIG9HoZoHEQc+MiK5cB+DvqHIREqRqTRMeLIJUwL6rkOWqpS2dXUklzEOC2wgE625C7tFeuNCcDEvAlYy8ZnecTCiQjEkD2RKr5tTi4E1oQJVSNqxNXQKbZA2rYHDikeCTk0+ITGgmoxAYIRKwzoEsmbM06smsALA6ynM9P6OQs3YZXMNmrXjIAiMRL0Ek1D8hMMkzM2bBmyHlRit5LliUyJUZOz9QwXk0WwEwNg9aTOADg49CksxOChJka1sVIPsCtrl6ZDW2+FLgyeymGMMT2EjdK90ewlIPYt+wBmSQEiq5GbzWroTV4rYRfCzkBqtJcqOsQw0sA15qAG4FfqTkbEo+cSnCR0yEk5wFJ2i7lmA217IxGjrKkbsPr2xNIH4AcdWV0sYFwCfzuOy914iVkkOuWkNTMSwCYO6HSVgOA4gCNshU2FOfWTskHL7l+zIw20oiDzwfQkcXhrYC864tfAaALdrJhvBVA89Kaj0NjZbQMsd5EOpBIa/AdlgUqrnFfdyslX9yRryst1H2k19oJNNr+oNzMTl0qDDF51+VCzSMzYDQu6/NhlIuzz6PhdN1YppMGCsf8/szb7uC7ejSgmXAiDMnddLiF1NvgG9xlniT3iV6CMbCyUqieD8rb2+LTMpp08vyaUuvzhfZ5aJ/Lbg5jYofzXQo0npTV7wAyHTHgbyemSgmUo79PEGNznvmcRzNPHFR2svVKr4OuILrnWcBa2a08aOOy6MdsL+840eeXmRGgCLnPUk3nDIvr5H0e0MbYuwLacMF5BoVdEsPmRGL2r1vc7C8iu1P1rAatEpFF2+UxyhUD9OyFMXMetV1nhBGLKenSGbkT+GoLyqxzpFGj2UBV4tgO/KeY4m/HVWSfsRJevA3JaL2EeroJDHFgszYKms7pnCCorIRnT1c1OkUC4EoUyMfisGwkdts21vgD4HaSyo1eAO5KlQZuUfmZfFANNuPBaFd3INtsFkGZCeYBVAWqH8AQSrp7an5foIlWhtjHZL0FsFWSDTJvAGx/huq/39AZK4ZvXYj/BwAf/u3fPx9vb0/r++3/fl+Pn067/nT1Bw==);lineShape=1;" vertex="1" parent="1">
                    <mxGeometry x="662.8575823665785" y="151.9532884543949" width="2.946209980241942" height="4.551639441568547" as="geometry"/>
                </mxCell>
                <mxCell id="34" value="" style="shape=stencil(lVdbctswDDyNfjEEwOd3mt4jM3FqTV0747iv2xeqhooJ25D4J0tYA4vHghz46WP/8r4byH1czqfvu9/j62U/8JeBaDzud+fxIk8DPw/89HY6776dTz+Pr/Pv95fJcnr6cfo1/cOfGVcSBJ5Q5P7Obzy4+P/F19n+MB6v7QNwbuyRIToD4CGkBkBkAyKk2AIyJDQAQsE3AI6AFgcBhJazB0wmgNqQAoEnE8At6ejAW6QlpDatMVef9wHyGRtACpAMD+gcONcgio2YSLQxyRuXHwNygaw8ZGCjcinXXlsAxWQdWedVADk8BnipXGnb9TMPdxGM4It2YSY2QWTNuhhpSrU5r9JajGbC2puLfawe79o7TVnqTIa9h0itPUMuRjxc87EACJJ/DKAIQUWEUIyUeqwJuQJ4o8whA7oeQGLw3BNSjrWTN5K+FcqVtE5tpjxI3SwPGbLiYDeGRJxboVzpvEzAqlXt1hbRCqoO9vCIjsbO+RSOqF1YEiDzU1gDLJFBB1g0a0vG6CYi0UljnfQKca89QmrjX1kNyy7buHtIC97KclsGZeP2pDq6G9ez2LddurL/uY7VxgNG0FqxcoK5EdSVI5LE3wq8fQTj2u4LXXMrJ62lZCYHvWaLwNZ4se5OV0f6fvQMGJS9pXJSe0rK3tKHIL3OHfYxQo4d8aTUxzcHfbKz8yki7Vp7u16i+djTDt0H/lV7efi8XbyNh8N8Obn+rm8j8mq+yfDzPw==);lineShape=1;" vertex="1" parent="1">
                    <mxGeometry x="667.4567945271652" y="152.30532610277277" width="0.30364378607122317" height="3.526111176186619" as="geometry"/>
                </mxCell>
                <mxCell id="35" value="" style="shape=stencil(lZbdUttADIWfxrdnpNX+XlN4D2YIjYc0YUKg5e3R1mOIlkSd3vnv88pHR8c7yc3L9v55MwV6OR0PT5vf88NpO8mPKYR5v90c55MeTXI7yc3j4bj5eTy87h+W8+f7/mQ/+nV462/4s3CNUEKnAr0vV2JCan+v3C3Abt6fAxmlGCAJWnWAhsoGyIKaXSCJAUoEeyUltGyAqis4QG2IFmiMFh1AVbIltYLE14FCyFYlJgLRdSITJNolGtiRKRGq7ZzqQE4jooBtI2oFO4BUkAVK84EMsrrmBhIHKGMjUkV1VIphXCGqW5zO6W1pFggITklaQK4G0CKzs0KuaMkCGSE53lARrZlU6OB8dG+TXUFbGfyBoGFG6V8zykPjCLFcB87c/OkNWoPh8hI6MBbQofJa3UdysGtbX3FZJh36YUg1GJySeqzYkr6i53KrBeXbjFYnBjQa6wBofHozmhCHoVZZHTN1QP4HkDima09Dx0whrm7+BBKyE0yc1rQ+i43ofHRBtW4tDHHaEMYwzrym7cXn1ar2AxKvKXLteWuLSODg1ZNsYgRfUc0TWz831xQcR4GYkZweBxmBBHEmRz0x/Bm0AY6garpBofHfpgdfO47HebdbNizn98cdil5adjdy+wE=);lineShape=1;" vertex="1" parent="1">
                    <mxGeometry x="667.9406468665201" y="149.67057717115046" width="0.47897576004522435" height="0.48044509744843145" as="geometry"/>
                </mxCell>
                <mxCell id="36" value="" style="shape=stencil(7VlJbtwwEHzNXBskm+s5yz8MxIkHcezAcbbfp5UBNWJJKmEOueVma6ql3ruaPOmbbw93X+9PwX17fXn+fP/z/OH14aRvTyGcnx7uX86v9tdJ3530zcfnl/tPL8/fnz5c/v96NyGnv748/5je8OsiF6XlSSi435cHPomLf5+8v+Afz08LfJaSBnzwEtM+vkguI772L27iq0w/LfAapRSGz3HARy+lMXzxI751i/beP9qbqjjH8Gm0N2dRqn9yA77EA/3z6J/qJQWGr6N/qulD3t9EAd8kUHzIiG+V4d2of3OS9Qb/Ny/BM7xf4TPxf5GUEd+IvVka6B/Ek3zO6J8DfJLsb9HHqlVvsTdKWuGZP+PKnzxeiv45yAdd5SfPt9S9N+O1e2wHD/qUSvUpEqAegyjB29tG/XOSSPTxDg22hsIC4FX8mBHJSSEaWQP3Y4ijdiW3BYq40adaREmP8xaiOgq4XqabAjYj2uhVy6tAVLKfoa372hN3W6BIHI02v7E4XDWeE6lnyjY+ihttTqIMX3CwBonEpzH0sdLxThKpg5h7mVzxbC5Z0uQR73uabOOjVMgiSazOLIvHwdekkpTIrpfhrE/uo2FbQDHpwhySbQGrg9FiVXFMpYIhiAezoPZRvShNRm7KHNNZoPVE3xawpIH2UrqftwUi9seiXKXUm8lcB04CSYxSxEPHTn1GbHdI1wnHYuRURlks9UaVmkWacZCIpLQaDSBfaKlzylmg0KnZMqpkAqw826r8TaAyXmREraENjNi1JglUaj1Z9gTaapQnErhJAErad/a8J5CBXITeRfaMxi8oZfsmAKPKYk+Nzr2CFwL0C2kj+QqzIeJAtyfKvKTY+exJYirpqoBCj/2eAJSoBY56Sfs0XqQGazMmANNkom1k/FzDtEhvZSoZjQIiWSjtsUgnjwLUrQWp9vQFppLtIg5toF5qnTouvOR5AdWMcfDkC945nFkWamXp2rDfWzJFbkQYA2HBj7yT6aqCAusztwpME2VsGws/7E05dfiJxuboim1YJFj/tkkNnckW7UgmRPGdjCw2eebX3JCxmlUsOYyewOZgTyLbVTOSB2NphXGyiI0mBc7JAhptuwljG2lVEUbEE+O5BdtAyHzhXrENW28Y2zAToTPZqtEYtbf8Bk5GV9AYseIKPZLTeYG8Um9GWzXhjusDbXwaeowWXJ3Nk9Cw20/bBlsQc1dgETV2rDjtj6NKpiSrnhBwfzO3NdKLbZ+C3I6J0iXbUGHfSHzlMyeCDdM2wDb7iAPIKray8aB4FGB9LZFisESA47mDbcCv1jjbBthm//988f/54uH5IutF//h8UXGlPzgvj8i/pvN4km8RZ7Jt7JUND3Eww7k+ivNyuq8gXUtX9yetL6I7eIVjIZ5vYTW/52OZHTyckAR+QuIxXvaGRvxvXR1mX6Z8YsWvfaIt1yHBMTxroK4z3Rkf+w3PDh7ulzw/BfOYP14P/Jki4tk5Z8AJM80cNrhx0E948v5Vvhme7Qa6YnN6UI+aEM8Oy2MnxAv/M6Jy6/3qMd7+uF7mfjw/Pl7ugpe/4+WvPbpcHOu7Pw==);lineShape=1;" vertex="1" parent="1">
                    <mxGeometry x="669.4981918951316" y="151.9076543166254" width="4.825229327929784" height="4.589191424877754" as="geometry"/>
                </mxCell>
                <mxCell id="37" value="" style="shape=stencil(lVfLctswDPwaXTEkwec5Tf8jM3FqTV074zht8/cBq8oRQXlt32QZK+K1C3Dgh7ft0+tmcObtdDz83PwZn0/bgb8Nzo377eY4nuRp4MeBH14Ox82P4+F9/zz9fn2qlvXp1+F3/cLfCWeNIWMqzJmP6ZWhbP+9+D4BduN+ASiFUmjsPZUI7UNq7AvlBO19+33LVDwAZPK2BRRy6IRAlhuACxTDZUAuc4QzgB0GMBmVI0PsLgOSJ59bQCYGMURPrnUpRPLlMiAwsW8A9RMgrd6RdQ0gWWK+DGBLqU1rShQBwDGF0gCyowJisJlcm6WcKIAYbCDTnlAsWdCstdXaoAvDbpVWSy17pB0RHQRQ2m6VhncgSwJgowGo0jZRYQ1IoPkkSyVoQEYncEfpggtnyXQuIUCm2MVcgChFCn3IoArSF17bo0byKzX434qX7KO2N8D/MFNx0UUJCEykzNoe+S89mbS9N7BgvjsAkb8SpzuBQQQ2dikVlxBxhPwdICLyd4NEAFe43BPH4hOUgFVqgjLbc4gLABokkqXYMS0jl6TzOpegHtk5J+fp+bURrI9P4tydAGJIs+IuQwByFNZyBOz9ij0anffad/tRHQmIOxTU90X9oP+pG2qMKmZ0QmVsIrGTrmM1ydNcw/XBLMRqXZLRb4Bc87kpF8sFijkYPTbDWQ/WBU+WUrVRiR6giVBm+VmsYBYEnaJOqyx5UFPt7MBijQygkbLXK1hdVNEJYfb4xlVYAGrvxLu2eKTIj3d5sY+tQuK7Qv1+UPaIyuJ/sMreg6mTo+aagZu/MKtof5DA507gzZzgdWm0Wn2vSCnruX/FvttbrvgTNZFxvDIgTbojn3U+uuH2etWtTPuD+uHuy+kNAHn4ugu/jLvddJVe/q/vzvJqunfz4yc=);lineShape=1;" vertex="1" parent="1">
                    <mxGeometry x="624.2565361875951" y="202.99298274525268" width="1.4027558262187951" height="13.178029433003758" as="geometry"/>
                </mxCell>
                <mxCell id="38" value="" style="shape=stencil(7VnLctswDPwaXzEk+MQ5Tf8jM3EaT9M446Svvy9UD2URtNbNpZODb46ykMjFYgFKm3Dz+nj3st2we3077L9uf+7u3x434dOGeff8uD3s3vTXJtxuws3D/rD9cth/f74//v1yNyGnX9/2P6Y7/DrGsVBIUxS738crmXz5e+HzEf+0e17gfaTgOzwzebceUIhdhw+OAsBncqHHMzlexyeKyeIT2ECkEi1e6jo+kOQeH9qOVvA+Dvi4jmcKA94JSABlZ9df0jreDetnYoiPBq9PBPy7Yb+OKli/IzfowXuI79czKRbirT4rpYzwpdePKrYCPWSKwfITQH4T1YFPdP9Evg75gnqObPER8B8oD/WVQH6Z6lBfAaxf3WCsX6A3T8lbflD9+sEfVOFQz8VbPNZ/6vlXvSE+HeVe/6q3AuulmvsX6D++ueUCHwLSj7Dl0wH9JwpjvQN/i5SrxV/wz0Gf7/NPvuSfZdAb9s9k11+w3qLFM9RDMny6xtgKno3/CORT3ZItnrE/9/yoPiP0Q+MnqrcC9KZ6DhbvwPojSV+PvpKA+1fyPT9eHQnly9uBBq/Hl6HBkCC9RbsgxSM9qz31CchQD6FQ6gn1ARp01A5gHIXhhJV4sFylFLTU7G3Pi6mp8PzMp5KXLiBVHFDtE7K0K+dVkZsptIDq4BNEWtdqAZIgrRpghC0Z0urdMNpIac189RG9NKRCr9YAM5xpQEUBtSV2DsDdTFcsYgPQuCJzdc1yPfFwPiLbCedE9fmANKROk4k2EZujL2hCPVkDoqGpwKLWADO1TzyAEtIA0xYmGsAYops2tqRXIlpSomJYilSBkekCzOQyLRLloQx7iM1J1tRnqnrKDC4IK40Ea04DzHSnu0KnRZmb6yIA6lvadLnINJoXNMAM2EpDRixJm4+X8kabrsRDPUBaSyuXRYCgAtJDThkCEK1p2LTAU5cKwdJa20H1HQEgD9U39c8dQg/iIA8lUO3tu3DrrOfbYrJL0kaJfCll26kjlkYsw3CeqaBhQ5oLzbPAhWnD2+OdjmMVZHo6D/ZL8g7OhzpfmQO2BiBv9XrC6MXntdkDaUwTnxlBGfbd6xHpekT6yEek6yum6yumj/yK6fqK/vqK/j+/ojf6x6/ouc15iyEInhetn+jMgvgcDc7D/qKCDr2BunaD8/hkE+bg5DoVpMWjE7jijeAu4IttMA7vt9oJbnaw83ixA5byifiRJt8THh0FghsEAd93TV8oTcNrDv+P949wPmSxBq0OeYGf93yjvYzXH6cPwg+7p6fj9+Tl/+0HZL10/Pgcbv8A);lineShape=1;" vertex="1" parent="1">
                    <mxGeometry x="624.7284322591232" y="203.50418229797293" width="3.797049324052794" height="3.9034432947579436" as="geometry"/>
                </mxCell>
                <mxCell id="39" value="" style="shape=stencil(lVjZbtwwDPyafSV0UuJz2v5HgCTNomlSpOn19x13Icei4wn6tmtrLF4zpHTKV9/vr7/dnlL4/vL89OX21/nm5f6UP5xSOj/e3z6fX/DrlD+e8tXd0/Pt5+enH483l//frpeVy6+vTz+XL/y+4HqXrgsqhT+XJ7FKL/+efLoAHs6PW0CU3GcAnoRjQMvjewNgEtLxeo0S87S+SSEG1ewNauMDb64vVaq69ZV8P0cJbXY4SIvHgBR2IVWJxONYxGaPU5LMATq7jJiaEoBKnk3KmQOQozADmpgRp5PUOUolSegE0CTMZVFUEnE6IyZxAtQggSQ6w4c6A7IkYhIMaHOUahVrpPTqqOQV0CURLmiRYBNAg2gl5Em+ljRL5PRMc2mo0ihBANocVjUpJNNWhsUrfzL1wZp0R+guke3QPeN6EiOMg0l9Dmtv0kgeuvnEWZROdkBY28wHqxIJAIlznEYYKnEaedU5D8Z1shbJ5gFKANCIPDsdQxg0fxuhYtVv0Rmg+FQDwEidUM1zqpF81k2gM7H4uDJCpOgZhMx1JkzJa+VS8YRB8MFJn+EJA1TfsSyJMnFtosEDEmtBNsR6A2BNcRHX3Q6FNIhcJJl3OhKtzNWLK8IaSR6yjra8SVx+B+B2UFHmAwrBqQCkivmwp1wfynMU1uJ24BzNYUwKGwBrQSiNtmOcMcZh/AkeUIh8o7xVvdPKGAenow9rZTvEEfVN4t4TAbdDpU0OPoRdtbJMQ8iay8Mq6EdS6ZUPlGIAGz1wS1HO6bhTDQaotivvSDmNnlXmHfo6Qh11RZ136Fwq8bq4zh744cFGqa2zQ6GNGq/d4NoiHVwxHul+/iEmYcRzFNVGu2jpXowxBrJRAINrnqOkifdpUH52GkbShoIzlpt018wcHlHmKBWjYTUvSzh2JTZKD4VY1wdaqzthhZizU1zwhQelLUQmgy+jVOgIGke819nKRjc68nf+PiLciT04c7oRIEba0XHkcxlrY0w5Ujw3sKLDs2Nx8RnDiEzWlzK6zFgP5hNtQUE6XvJZVVdzX9czfyF2bqLn9kOo3MGKHyYtDI6vJJZG7FnmXndrEPkG5h0GwNg5bJ3dV0CiFxmb48GK4JPtssVcRChrluXFCcebSu9KEKaSPYAdSTB7uLwtlyHMpDrmpw2gMafLziRwj5QS+rY7rr4HiH7uXExiPgR/vl2cJsX0/9eA7wPw4/XW8e788HC5tNy+97eUeHS54cwf/wI=);lineShape=1;" vertex="1" parent="1">
                    <mxGeometry x="618.4737410834432" y="219.2921252058389" width="2.4820225924169272" height="4.653045120201915" as="geometry"/>
                </mxCell>
                <mxCell id="40" value="" style="shape=stencil(lZbdUttADIWfxrdnpNX+XlN4D2YIjYc0YUKg5e3R1mOIlkSd3vnv88pHR8c7yc3L9v55MwV6OR0PT5vf88NpO8mPKYR5v90c55MeTXI7yc3j4bj5eTy87h+W8+f7/mQ/+nV462/4s3CNUEKnAr0vV2JCan+v3C3Abt6fAxmlGCAJWnWAhsoGyIKaXSCJAUoEeyUltGyAqis4QG2IFmiMFh1AVbIltYLE14FCyFYlJgLRdSITJNolGtiRKRGq7ZzqQE4jooBtI2oFO4BUkAVK84EMsrrmBhIHKGMjUkV1VIphXCGqW5zO6W1pFggITklaQK4G0CKzs0KuaMkCGSE53lARrZlU6OB8dG+TXUFbGfyBoGFG6V8zykPjCLFcB87c/OkNWoPh8hI6MBbQofJa3UdysGtbX3FZJh36YUg1GJySeqzYkr6i53KrBeXbjFYnBjQa6wBofHozmhCHoVZZHTN1QP4HkDima09Dx0whrm7+BBKyE0yc1rQ+i43ofHRBtW4tDHHaEMYwzrym7cXn1ar2AxKvKXLteWuLSODg1ZNsYgRfUc0TWz831xQcR4GYkZweBxmBBHEmRz0x/Bm0AY6garpBofHfpgdfO47HebdbNizn98cdil5adjdy+wE=);lineShape=1;" vertex="1" parent="1">
                    <mxGeometry x="618.7520714851956" y="223.5448621878915" width="0.47897576004522435" height="0.48044509744843145" as="geometry"/>
                </mxCell>
                <mxCell id="45" value="" style="shape=stencil(lVjbUlsxDPyavGrku/1M6X8wQyiZUsIEevv77mnqk2M57JS3XLS2Ja2ktXfh5vXx7mW/8/r6djp+3f883L897sKnnfeH58f96fCGT7twuws3D8fT/svp+P35/vz95W6xXD59O/5YVvh1xjlVUV1gXn+ff1Ip7e8Pn8+Ap8PzBtCK1NE+icvEPkgLg32TFIm9E5cGe+clE0At/bwrIEtyBBCkxAEAl//5dBVQqrQ8ApL4SgBRwugznK7+fUBuUsYdQpRYCAAHcCOgiSNHygirHwARiSFOpyJ+zHOsEkmiU5BQRmJ4yqQIIhhAlkaiFLP40YcMrhKn4aKOYc0IK+FSVIlmhyKZ5CHUvl4HFKU7hGzLp3ipJKwggqmfkkTZkUJP0wpAWBkA9TVyCYTPgQCctLFEq3Y6XgegvuoIcLQeUC55jBKKlnUNjyZgAEliIoBkyYc+EokPPvQTr4Amge3gbQGhtQW2g/aor4AgnhSQQ5rGPDS0BRIl1yt+tUdbIidC2oK1T6TeVFyx9oH0mGn0NHRa4rDatgr7TM4z9TzY0xz3cG/sKa+lTOdRcn5kp0z2rMvbqQB7RyiH1ZK1D6SQ12hv7Fl+m8TJvpLzgy0T3xzTFqLO2kdiD3+rtS+E/1PvhX0j+U29XldlcVFL7xFiKoBGAuonQjcaUBA6Wns2nlAwk338UEE2Smjt0m9DCDaQtbebbUGyDtejsS1INizFTwXpmKKQMhWMkvVzl33b9QmBytSg+fk/at+mBhSpmHCu98vNiGGEdsFKLgwxJR67aGdGbRyQrfrAIKYA9PyxC2HUKysy7U1tIybYmERZOnMkJ4nJlTCJCaU+LMQbAZBcrDAX5o3MgKjLpHLQGy0g0lkPjRaNzvRc+npLDUhfWpxxku+F3igWrTxGKa9LvCff1eyA3JMdcEEIIzVwBWGKIhYrcXDJYTsktTM2rpm5DohWpOGQ7Eip2aaNS0kjUz+DrWOmAw9rXlXN5jrLnAZzjBrHKGX1UEpn/+ZKznZAQZrEuUyv5DVKHkeV81QLoguZ4d+oem9qL0Wpk/G6ve933cu7Sya8QKN29p0mMq0W+t8Xe6YFMTk0Gnuq1aKdPUqlAq4myfqr7DzZPidw6dWKnf3K419nf5kWX5RNsvFh9s1qL6V3oUW62vXZBfaiLDf8If5++KHvPwD4cHlXfDg8PZ2fJbf/23dI/HR+wwy3fwA=);lineShape=1;" vertex="1" parent="1">
                    <mxGeometry x="677.30245998552" y="202.62651515965734" width="3.030647068557993" height="14.92226854671056" as="geometry"/>
                </mxCell>
                <mxCell id="46" value="" style="shape=stencil(lVfZctswDPwavWJI8AKf0/Q/MhOn9tS1M457/X2haiiLkLWevMk0lsQuiINDePrYv7zvBnYf18v5++734fW6H8KXgflw2u8uh6t+DeF5CE9v58vu2+X88/Q6/X5/GS3Hrx/nX+MOfyYcC1UZUez+TiuJSvq/8HWyPx5OC3tfqXJnz4FcBQAm3x8QCvmyDRCKtbOPkXLctp/9nQl4SmB/H0h6h6In8dsA9pZyiFTdNiA44v4ErhQzAMhK1EwBcIiFeAVIDERKVlV1KYGw5UC5lzUkCkCl4qn4XtZACZAulXzuA4cBog6EDpAjFUC66kXoORS9LIB0rSSlA9RMEWWDc+Rcj9DQgMjpEbUnUYU80FUBOVuA4BPYnKC3TwBAKBcLgCcIuV7XhQ73EYXiyicBsVbdTZJWnEK3QC1lAqFTgKlLIy0kkwL6nBtDjU9gE7ncZNgCJONSakm1JavLFuCRSsVmdY04DmJL2QhALskqcIkcKN9jXJ0FoFKmgCJWVo+zuq4A9XOAQoICpy6ZDNKcwoDQl+NxBSWQrCqTnvkgcNkCIOnSPF4CUOCKrQJjqUKBy60vLwAO1Znc8msha3iQcZ8CiA4bse8Qcyu+D1hNMxlfjaKN3HQ5rRqo8VabcdrsBVyN7NtFmAEOdpQUrUvjPANIqwOm8gVu88d9gLNXQwEeTUzcxp3FtIGqBmvnd5Y0qq2+WNLKKqC5VWXt80F1Q4NuaFVrtsfpsJocdP8C+o9vTXwmIHA2iW2YWoy5eO62t0IZgZj51eDtcQ1Tj2KvkIcC8dyamr2jCgjrS8B0Etey+759JsfGHuWN2mcx9mjo4WLnVQeTQO2r5RuRP0LJW33Q/tLku+mP5m19IZgWwrCYjo+cnm8gRv6v7HGC8boyNsE2+X7mafvYXj9u7+i3w/E4PcOX/9t3ty5Nb/bw/A8=);lineShape=1;" vertex="1" parent="1">
                    <mxGeometry x="677.7985332245203" y="203.5115322391398" width="4.981743859465669" height="3.7225608039002727" as="geometry"/>
                </mxCell>
                <mxCell id="47" value="" style="shape=stencil(lVjZctswDPwav2JIkODx3OM/MtO08TRNOml6/X1X9VARIWvTvjmO1iSAxWKhU3rz7e7m6+1Jw7fnp8fPtz/PH57vTuntSfX8cHf7dH7Gp1N6d0pvPj4+3X56evz+8OHy99eb5cnl05fHH8sv/LrgkkoJC0rD78s3WqXb32/eXwD354ctIEuzCZCS1HQMyFl6nwFVtB4DLPkrARD0GFCK1DgDcGY+BtQq0V0pSojHgKbSZoCaNHKlZiPEAYhdeiCAKNpmgEkuJIa0OwExkMIVlTzHEIMEkiULktMMwJkkS6lJn2PQIEaylHaVRlozyZI2XwcULpIsaR5l+kfyaZQyA3KSTGKITaoDdDESQyxSZraaSWCALDVPgBIkdQJIYjM1io3aHwHifEJF7Qk1cKUyn1BRGZJWZKnPqtHySMN1anR/Qg+iJIYcR8tvAIVcCXXtc+F6pGzNNrK+AnRU5jqgjHZZAVmUnVC8CHSTyoI2MXelKolwCWKsc0/3JtYIQCU5AKd3hqh0D+ikDmjIajsAGSgJQe8ArB+WAaU+6MzIB6k0n9ZAsgQVarvCGZuiKsHROw3xPAL0HfmMkA8j0GcpSiJSmcogwqaBGDUg9z7oMPh71KK+HwLVJbRoij6GyAB5UG2TJdoPZTiLTR0qoQYAycmM0YGCFu3zjOuFWgfE4Puh8aDT8C6bflCmS0Fa8QCm3qi0OScQAp1Z/48ovkdbp3QFl9xACbSng8T5+Wp0nqy3XWcockR/392/ZGrH1AuxNRpv9q1g8KQ8n/P9wVymqpi3833AkkKaGZ7BJQgy25hnqGP2bTYN5j+RIptDVm5Y4Q5dzPApkflP863Whic4tAyz4uVhkY82GTc8I+Vogb+eA+A9U7G8Zfc801MsGW5R0uF2rz/fvToW6rZhb9IsLFgxEgkYyqZuJzEqXRsVWUOAErA77ZRoCYI1gg3er8QOdCT0dQVZAUaNJJZDN/zhdiPpNZhrxwvYMiYuNfgYFuPH1EJ9J2BuFUIly6PZN/pibA6WkZMNoDGbB/KV3ZWYosLUzWnNkfoRsN/FAA/E+hPt5UQb1GAb8dK/ruF4pZcxNQeNqCILOvg9Caoa+YLrVbVQi7RoxEwNXbeOo53bt6iNneA6wPybiZe1/ToAgyN5ANuTkETLuyuxE7pfDpdLMosEEQg+rZH5c91Ro7y2Afznm7rXAfjw8mLw4/n+/vJecft//yIRX11eQqZ3fwA=);lineShape=1;" vertex="1" parent="1">
                    <mxGeometry x="673.8719510775578" y="220.26345395717323" width="2.5942973190846845" height="3.859462551887797" as="geometry"/>
                </mxCell>
                <mxCell id="48" value="" style="shape=stencil(lVfZctswDPwavWJAgudzmv5HZuLUnrpxxnF6/H2hamiboLSdvEnUrgjiWICTPLzvn952k+f3y/n0fffr8HzZT/Jl8v7wut+dDxd9muRxkoeX03n37Xz6eH1e3t+eZuT89OP0c/7D74VXK1U/szz/WVYclfhv4euCPx5e7/BF8bHHC4lsE3IllzqCjxQzIDgKtSNIoAB2SJ6c6wghEvM2IXpi6QgxkS/bhOAplY6QMoW0TVCLU3/oXIj9NsFncv0OJZMAkzRMNXeEKpTqNsFVSoaQmxvWCcWa5JihX4U49Dt4mBpC2eA19xyIG/ls8QKioDEa8CgIjm0iVaYSAMHb4pkJyKeREltCRVHLVMYzAx9pmCNbQgYF7ZnEEDx54FUleGcJBaSFmuSNlwSfQQMXLSFjt7LxUiBGO2hiBktwINLq1QHPIG5ppToLUhgq1eIjOIB+HVzKwH5p7riLGf5/MHjVG2i/EUjFR5ATaQXvQGlqCg11g/zpXCurewLKiDCIEbfi3kpSNx4BC7CVR/URIGihub5NadBQ0s2lPAhwQl3ns4Sr/l/xFffBpiRXfIKtXHveUAYeiJfWceyVoqQ2n2wFoZrGnCmBvFCTau8ibf1IWiRbeYyRMohayE15ruNLgLWpw4pRbBF46KTq2RO0lTKonqxi2BPU0aivFbFxcC2z1vHDBtwEcx0fR3xC9iQ7QzKcFIrOOtngHfCoagNbPJql5sJNFg/kce4uweKB/TU2NbzhPUghHf2CxQfU/opVR24L6/hq5xwHletusrwRkLB89tryf7w+3O5IL4fjcbli3X+3dypdWu5j8vgX);lineShape=1;" vertex="1" parent="1">
                    <mxGeometry x="676.8390627013733" y="220.54657272034626" width="1.2999044973957574" height="6.771749795963669" as="geometry"/>
                </mxCell>
                <mxCell id="49" value="" style="shape=stencil(lVfLctswDPwaXzEkQRLkOU3/IzNxak/dOOM4ffx9oapSDEjaTG6yjBXxWGDBHd+9Hh5e9rsUXq+X8/f9r+Pj9bDjL7uUjs+H/eV41acd3+/47ul82X+7nN+eH8ffLw+D5fD04/xz+MLvEcfUZACl8Gd8UajWfy++juan4/ONeWTK1dgzRd62T4kSG/tINW3bc6YejX2gELbtM1Mpzj7Ltn1JxNn5j75fA3Ey9kJcgL3+bf2PiWLeBkim0C1AqAJACyTWo6GGCFCpu5ADtb4N6OqxzSk3aiDoXilZQK4TTdYBjaRZ1mkdAS1imGkwIzo1dESnaAFamgCYoUEEWzlhEnRC9C5Jn8i7XohMzQJaoQSiFmWCbZ7WSUCpS/ZBaxoE0LvM5JzZF3DDlUCxLY4AEyA3yjavWn2Upqx1sj71OQ/rgErRttBQS5DXXKjbIdYzJVBqPYHtlNQeQXzVGDwgUAc9p1lqNq1a6gaCLosxoIAIYtBSS/CAgMlUFycUULiiY2ARdAZBF6HsuBSpI/K1SWxmgM4NNO6bH2W9wPmtLhV3guAsVS8oSm80+zSt4vqhfyRZbdHUHZ2g4z15wH92bZGviwckELTSOy+CjkimVQ9cDJUKcmmtRZEGDUPAAVTZ0QkqiwvyoTpolthRQ2chKlyYHLhpIAZT49MACVRt4YbtALgkWgfbD6oxCYwZVahgAbVPArAOaL6na6SEVLFOGjgru8YAKt2SX/l0CUSCIspN23Es0CVJiyU3QkGpdZKPeScrk+ptrZXRLXEBz1ae5GMWaj0T97TrOF1EO+hprn62xjDtsuurffazNUaoouqxExR1iQFAfN1igS1d/KBU+4RE11N1sAcRs2dqxDMp+XZWezRW4yKhTAz8n686t/kE+VmMl6FgwJ/Fzq2MCKBeYfraPI3gPUPb3FJaqIHs68XRsqFCUUvTPfbdPIJaffIe/KG5PrxfuZ+Op9N4Y7/931/R9dV4vef7vw==);lineShape=1;" vertex="1" parent="1">
                    <mxGeometry x="677.5085238408454" y="219.95672570913712" width="2.8631913058525242" height="3.1999897328494713" as="geometry"/>
                </mxCell>
                <mxCell id="52" value="" style="shape=stencil(lZjbchoxDIafhluNbfl4nabvkZmQhimFDEl6ePtqSxeQvPyGu2Xxt7ak35LsFT+8vz69rVfBvX8c9t/XvzbPH68r/rIKYbN7XR82H/K04scVP7zsD+tvh/3n7vn4++1pGjk9/dj/nL7w+8h558i5CQvuz/9X5MK/F1+PwHazuwBapRbU+EKe4Xgf9fcDuQyB0jSQiPGKnJmhkUsAKJS0ySFQxYD3GsgUIwZYA40aAjJVbQMzFeSlTFnPwIVahUAsCoiBsoMAZw2I31AcMoWqgBRGRgctpSSxx0vyeoYcKTUMJC1WRwlFOtvAlZNVVwEtjeqHM2jx1TzvkGUgUNQzNNmyYElV1K9taAy3aCqzmE9Ao4QAR7FaoIAlRfGJtwCSBns7w0WiWiQkbfVGNBAISUM9UICYEkXuvARs8FZKMj4Ar3aJWBJbBesJVtsyPoGUUYiLHR8KWH+ySj1n2uUFxVk1J6DMxWI5ypFy7QAQ5Bgptg5AMQu2Wk31CCg1tQWjI5BRDgtuLcCtAkQzQ5tzyNUlNQug6pN4LrCXygYziFtzB6A4SOBq6QCk1UgldACIg4gvdEtCNbp0ymhzhbyye0K3Oxk4VXZnl8Ec8Kmfc/SFLDKQxanHuRjPYDffO56l6zIhY9joscjORMDNhWVZRdJEmVKIK9sEmFKIa6cApjUcVOcJ0DYM6v8EaFkMOoypidJLGvQwE6BnGHRJAiSd5wd9WOwK26DTk7+DtmHQSwpgxD3oVqX+Fw0M+mEB6l0dtwBR74dBTx8dVdNh4FODAKaeD84lAhijBycfPuXQ245WLEcx7SR8dJPvm/3mYKWKXefpYMMT8yyz83iUUkX43n7foxRZ7dZx0J852QDgFrKwPari8dXZfYPXI+mw3mOvdP4mx2N/ytEiWf+jeJ37jtv0cPddwQ2APJyvJl422+3xZuPyf3uVIa+O1yD8+Bc=);lineShape=1;" vertex="1" parent="1">
                    <mxGeometry x="622.1044189311112" y="219.83610043403326" width="0.27628869610586715" height="8.234805803011662" as="geometry"/>
                </mxCell>
                <mxCell id="53" value="" style="shape=stencil(lVjLbtwwDPyavRKiXpTOafofAbJpFk2zwWb7+vvSWNC1aHuC3BzvUJFIzgzlQ7p7f354Ox5ieL9ezt+Pv0+P1+dD+nKI8fT6fLycrvp0SPeHdPd0vhy/Xc4/Xx9vf789TMjp6cf517TCn1tcjFTbFBXD39ubTOX24usN/3J6XeI7yYiPlPI+PgfiPOD1RQX4SkUcPoR9fEkkPOCZAu/jK9tyhk8UBeAbcR/wlQTsXzK1MT8cqJT9gMaUxg1xpo4CxBI4B3Tq4AhdKxTHkhUqHQRUyi5HTD2CgE7sAhqsMofgy5Az5QT+RaMw9lFhWDg9dXMBQh10RiurSmeK4NRSSMYACVbL7V4qlMdelWql2W7u7Mmg3SKgcjkRlzFA2xVsKUVjiwV0zJ9snTPjO2yNRKmt8OAE0VK+wAtggzYBe3wEehQoj+TRxiogQdqnDi9UwXmDb1MlUwV6GjzVejGB3TkvR48PgDfRM7Mrz0D+VQ2rxyMS6GqywgPml1X/ZKhFagfJn5dBflbiqPgO8XlVrwb2I5TcfoQayL+uNhJS+63C8wa3fjcG7eS/i8ej/SSvWQsp3mmgNeEbknYqKwJnSMgqPkECdD14hdMCIAFaGY0WGAlQMPlY4APcj7MZbThEADY5WxCggvxEy/aSYGhA+yy+mSsuLCMBB0jd9rswJWSsRV1xLLHaHhpYqori2EPC9mY7YPag2bo/UInmu6LoCANo07L9PAckqmiaEBvi5gGnm3RvB3TL+hwQoNNMc+DIzFSglbXkWyMFWGnp3rwn+UYB2UayOUD9Galj8wMOC670fNtYTMvI/wr7XurmWNt6Gr2BNOvebTaklUFRBfOKCrybAZlNQbYDihck1pkNETp7C+F5CNgOiN6jpi2hGY3tCrQIQEldi6ReipCJxNWtUQMC2JJegaqzKRsM9/DOphpUSV6JnsBr72Q7Y0617qgtAsm4n2K+uFeCyg4Px8DPXvM/xOvD/28KT6eXl9snieXv/huEvrp9v0j3/wA=);lineShape=1;" vertex="1" parent="1">
                    <mxGeometry x="622.8254783690467" y="220.3677674478751" width="2.445602721111166" height="3.142678179061671" as="geometry"/>
                </mxCell>
                <mxCell id="54" value="" style="shape=stencil(lVnbchw5CP2aeaUkIQn0nMt/pCrOemodO+U4e/n7pXdKsqG7jytv4xnoluBwOOALf/h5/+XH3aWkny/PT3/e/X39+nJ/4Y+XUq6P93fP1xf7dOFPF/7w7en57o/np1+PX29///iyWW6fvj/9tT3hn5tfVuK2eZX07+0bJi3/f/H5Zv9wfXxr30iTs8+JcgYOTMLeoVNCbygk/kR50GjAIVP3byiVWgIOiTQ4DMoKHXL3QcJRGtSqt1eqfG6vNLKzr0xF0POTv0AV0oHsq7dvK8gn9iPYKyUcURnOoTM1nORcvIOdEdw4V0o+BdKI0ZE6de+giSqIkaFMxTtUUoBsq5RQOqpUwBuKUPW1MzIl8AbuxP5Iw3BXzx0MBqPFNyCgtkYpXHqQgDz0QtVDWwXWjuWVQx6YBkjcllcPPrHMALBaXmUHjYyqrVH3eejvvEEnnyyHSgPkYSRi9QU0cIHmWS7LoVIFYR1lkuiiAJ34PXMoPnHGMQk55HnFRWJCDTuk4FBgxemOJq1CFFzaoFZ9pq0GBTnkCbXVS6xEATTEoh6aj2EJoNXSJD7TxoUDVRzHAjIHBmE1qq4+0ytsx/ar4lfBQSo2e/HNx6IMSMnOk0MxEKPzlIijNi90FtHQbOtUEGcU1kPznIxzbC/758PzK/VQONQB5rZKD7U/Ce2YIFNEUIcQ7ZmKz6/ArmP24b4629DZeUI8B9Qudt8gvwzQ6EAWUC7RAVFX6xHRJvkQwRskikSHhBysrfZ4pIbuYPopFiVqzFZkI/RZfGXTtF5QCSS67fk+aX0+4Oz8IcmNBNEcx/vWKRHPMpBjUVbQYS3FvQV7RiSk+yJu6Dy/aS860/ma3wxIRXekZYhjwHImKSS0gQoxbf27+YhmmcR07NCi2ix5ovzYQaIGKUtDHztoVJuc52R17DCiUjNJgXpfTmnOHW8nIxDXseTrchhT+Jw55EDXDfYDC1OYgI1h0SW2RPhbd4Ej89ipFimwBWrfKWDr+UgX7SbgTZSjeuAdfykkjN7ndLYKqGDZolN1LIeGSzpNgbwcBO4JaiH2nDpW6zoev3hq9teukOAcvLViH9fxzkiYYy98LduzsTZMFoYWlAibtFto/zKZ5Gy34POgZeL3ONOTthb2OgQrR+hJgnnebwoqFbSsoeRJaUMWOH+ae4dlz/ONJ/ZhEbEN3aD89wxWIKum2PmNIwXY5zhPMD5/idrIpAiiL+Pb3czFqMzicG0jF9TvkVmsESLpInE3pVPKnK2mko+nBQBtE3e0kuHUuylLb58gHHKOUvOdtVSJ40GCSmTbt45gD1d3NYrrBHdS2wI4B/uCCUvi8xs6v8R6zLPgju01bh1MOqP4a+wCBY6Lebf7YbgQ+O2F+rv29uF1e//t+vBwW/6//T1u++2r238K+NN/);lineShape=1;" vertex="1" parent="1">
                    <mxGeometry x="626.9871902396776" y="220.08521684086531" width="2.752456075711373" height="3.8518777903908252" as="geometry"/>
                </mxCell>
                <mxCell id="55" value="" style="shape=stencil(lVbZcsIwDPyavGpsy+czpf/BDKFkSgkD9Pr72pOmoBi24c1xVrKO1doNL07b1aFtjDqdj/1r+9mtz9uGnxpjuv22PXbnvGp42fBi0x/bl2P/vl8P34dVQZbVW/9RPHwNdtGRV8XKqO9hRytFath6Hix23f7KQlvSTlikSNHfN0jkWeI9MTjAkYsCH7P/dB9vyBqBD2HcuYlX5GTGnkkFhFcSbwOxQ/iUBJ41JX0fz6O3vw5EYhCPpyjxkTSDfmnSWuANmQjwmREyfk0W+M/5TvxnB4AOOd80YZwlhw7w5CUhTCANGlwKYmXHDGnAuNrABdiyOqRgMEerpPPgWdCFUlVpkCxkXWmbDCmPpQM0KryYnBAogKQz72SRkoZzX/E6avJwLpNMwMfH5tKZUWnmzT17SohGU13JO6iglW5dKjxPF5nCP7rrJ3P5y9qZOo3x9U2A74GYxu5c6QQgaDLEkyGjANqVHBlZf23GCt82COTkATkijxqQphXlLI1oZFR9F/DI2rkWzpNCaVdB+YDrVKUdIlkwx3VhY4AKX3cuaxGqU02NokWAG4+/QuZY5MXl2bPpdrvh1XT9f/pMylvDE4uXPw==);lineShape=1;" vertex="1" parent="1">
                    <mxGeometry x="627.6016516875343" y="220.23763907763646" width="0.7290749145474419" height="0.21152712103678503" as="geometry"/>
                </mxCell>
                <mxCell id="56" value="" style="shape=stencil(lVnLchw3DPyavaJIgi+cHec/XGU52ooiuWQlsf8+PdmQWmJm2pXbWgZmQKDRaHAu+uHb46evD5cUvr29vvz+8Pf189vjRX+5pHR9fnx4vb7h10U/XvTDl5fXh99eX/58/nz799dPm+X264+Xv7YnfL/55SAlbF4p/Lj9RaXHf//w683+6fp8Z68qwRb7LjWd2yeTqIt9jGKNOBQJdXUo0tgbomheHUx6OHeIXUJbHFKWRM6MADStDl06CSkmaesZkLbMQgrjiNOhSSVZMkllsc9xvPLQvov21b5Iofauyhl1tHP7JrbGU1SUpLRLWlFRmhRl5w1xsa+RwhQJ1RXWtQ6YnJZsRVEL/A3V47QVyZ3gNEhdc9SDRBJSqj5JPUsmsNMkZUVRb9JJVhUwWrNkgZ4hV4nOIUklbyjJA8PyeMSxA0JakWplYPHQoWbfOnBgvdYQsfmQEjl062Ir+CxKJW/oKqa+Dv/167EDmn09NKDBCKajG1cKa23A8bh/JtSmg0oib4CDO0M17hAlrSHVQtMKh7jr6UiytGFz7bhSRynPsuT6AXBkRN+7DynPWXHsUCWvh86z9scO6OA1rRjAkWSpJ19preMRx2jFoddKgxbYOGxV2nposK2SQwM5be1pzGxjDQSN4RxAC6ynm8S10mny+TFrFD/fwOeUZnZ1gCzJBHyYZ93JEvA5YW84uIFi0khWEVFwHDBo58y+Z2cf2fNRI8cAUtnzm+/nxkvQPa022v41SPDxMAUAcnCzqo8HHNsnCY6EB2zP7B27oJEYRtOYxXeAyKQAOIArACDHMgoHr4QjbRvMzr6WDF3AQkLNsnmHSooGUIRdnzH5D9S1XUiJt4FjIxyakfzWN9HXwVhIaEz1Dmx2wsGcwqBaGBEV35lMkCBHxXcCZYo6hOldZ7Ki9TH07jqTUZ0NYni3Z7ITndyLs++s04JnLm7fdswYG219aCEnCTE+mIbscUib6aBjLT4b446McIbABNtuoilWPvYGE3MOmc4bS56vtUthKyRG4FqGnEbvHTvUIc+mAw5NzmDN93KJNK3Wx7pyp/CoJDQ/ZAEuRpExhBHynUwt/BXV6VqjcLXdurABmGlzwH/FNzYOZQ7V70hQiWyb33Yu51A5NqJXbMYFGJSz6yBTUS6EvUORzm4YbOxc06FRgYSsO5o0owoJdS07BxZSxSRx4/MdXmfzU82/gpW6hDFep8PcUY43dPWyx/jFh5Yhc+4qx1aYtBsn265IQkpxd2U4ZcRxk2a/YADf7FrC/A1gm3k+zqovdEt040k+RVhQEklR9LckEIusykGSW2wbvfLccRgkCkM2nu+YvlMKm5cP0z7TFTKN2Xe31LLhpl4UYqdVphg8pnVq6ZPbxerWR9SLTQXQ3cqPiQMiFl9hSBK2LUTz8z/y+5dNgPh1hF2obtvQeoRCb5DQ9g5DYYzSM3s3BgMVndstRXX2kV1FtjEu3u0Zk+pu4PzE3jwJ8ctX3e1SgYr47TtK9vkkCMrRr7+RUgrstTh7ts7meZ0xIU0H+PZ8dfaMIrb4Vw5VSnH/9zvTz+3x4/2j1pfr09Ptm9j9//uPYPjT7QOafvwH);lineShape=1;" vertex="1" parent="1">
                    <mxGeometry x="681.9021054592466" y="219.5304152380989" width="2.914371047361596" height="4.698658404925161" as="geometry"/>
                </mxCell>
                <mxCell id="57" value="" style="shape=stencil(lVvLchw3DPwaXVl8guTZcf7DVZZjVRzLJTuvvw8YFWeHjWWPdZN2gR0OAaKBBviQ3n3//OHb40P033+8PP/++PfTxx+fH9IvDzE+ff38+PL0Q/96SO8f0rtPzy+Pv708//n14+v/3z4MyfHXH89/jV/451UvVldlaEX/7+snwZX8/we/vsp/efp6ls+uxkU+ulyJfHKxLvL6QSHyAdeTXWhE3rvoF/kyP7grH5prZZEXlxKRry73Rb46YfLiQljkuwtkP4Pu57r+4F0lLxySC2lViK4IUQhOVgvoM2MnCt5lWJI4H/YK+obwgOo62SP9Flyuu05sJq7n1eWCa0S+uL6aTH1OIpOPq8n0k0xslp3AeqoLZEPz9IBDvtH90dW29cj4acKNfAL56BKxl/GglJ0n+xnxyKQyLbKRB5dOh8U38rLuf/bOU/my+luOLtD1l3X9WS1C/EHl1xCXZXrITh7W33iMQ/niZ5Dcya/npcSL/YH9LMlVai8IEKXQABERAorQ86jy6/6X5hJ93w4hvc8TvfFnv5530ZBH5fPq/5Lo+ybX1/2RPE/ELj6s6xfFGCJfECJFzwvxT43GazyR7oT8vloHICzMiLGJzwDBNdHz0pyAvO4P8c+O/lzFlQtAWh2otnmEdpCX1x1q+hMMI82RbJGaTFFYVh9qmZ5JxVwwQiszzO8SibieslZplFPQBbdrjb90d37FjdZp6qG5VoXcxrvGFOJcwKEQOBJkNFyP9Oirb0Os69wO6qwNFIrzxLlTmF+fFBpD4zQTykOBu7eiKeBlrzTnHXDaUYEFAMXTFFGhkydkA7G90SUpokIMGApklxRSq3kCs4Niqn1pmgUGFwQVMnkHRUm7S8yXFCahNhiWZolmNduqmRQJZAP4jLey8kbirN5O54HlsqK/B7uUaFwa2LQGYz2ijTyh+pl8nBSYpRVtEjwh0Pyr2gOkDk8MVysiuka+TLa1dhO9G8WHplU0xNbqIsn5WzLhXqjzKd5UWFKeuH1fQeYCDgXdaGK4dgSVQ4HnVbqJcbV05YXdDT4OhcO77isoKkMqww+QOjO4Rj0+ua9gtnUkS8Rb9UBC5NNsjFbLYtJPodF7RCFQyNS9R5xbo4aGBRaMVQEqJPGTxtgqrLukKb0nUWMorJbWmoHxIkMBip48vWursO6SVkkXu2TLMIYP3VBBiknCdylDoaqoR4LAUFgPkOIqq7SHwuremdNrqpCAXuNn+paKnIrzyM6DID6kNuu/nQK4Rjr8d6eA/IVMqN8eUVhS5mGmzNB7KFxGjQSUR5w1yy4ugR00z2Q1qEY+sHTy/KUDoqjWXQx2NRhDJjCIOoYPHevQwdQRwymg1NVwWvqyQlEhCwKZFgj0CcZwt+J9B7uQkQ32gQF7xHIgBr4kj2ySKjBg19oW6NHBcbMEq0425cSnspxv5EtAwLaZjd9XyPjSqsBq0Roxmxk8OqOEPYZ7rX+Za4jh8QMn8hVk+xpmQqGRT4wvaQ1PaZmEByhwyBJDU4TDHXflgHRUYLlGEaS2g2YCjIrKkzk+FAKN3iXeUaBkl0fWIXgaZnJFOlwVCrF0Nnx+4NmMVrvIa1DPyKbnpIkvq9cTelKjKWUyRVyjtYPKAwGqyRgxQTI9Nl5Jq3zBHlh5ozzlM8x6hNJK6aD7b/KsJ5dMA0AoOA97ASFL+ep0tJdO8mz9GRMY4fuZ0R9kOuxOvuF6GNuTMjbYKufDsynbaB6cTMOs0rJQ5YEQb3PDdvuPpfDVeYxQ2FLoSCY+NNqvUXmstCl/rv4PWFYn3bCTB387qN/teawPb7BvQJi58J9gGiQ0W06mir/w/4jsy8X5Soirl+f3TfJaMnn0f8YeaU0GJHWdDrvjRoPxH0a+NtOMoBMBgxmFTgHNeUsyPCeH+GJISMpMFUMOBE9ZTs2DoLBWBdoBC8i5aJbCtlRMfaYKjcQ4KZgTjJ4SY2orgozmcpTabROkTwosTIycGlLkPA25y9rhXGqK7JnC0Uc/KTBkGmydSfMp8VqxXaOFBIultZtpF95MbUfdfS6GWFEa5++dyi2WfjTTD9aCjsVrLXuBc9GSkbn3KKzhCfGKqYUINoZOGEPo8cSNQTBG0gTMQUatT+zQk5mSEVq6d5MlXMBsL5PuPjEijADvMtOIE+fC+s6DXVu99Qbt9xUaRuKRm7AlNTMblGfwvK9gLJ0KX1LHZnuqnDzumL2nRs9DN00tLajojJz3cz7pZ1nLjiTkFS9q13TBvHbMga+43T67xj/LHnfMCq/46Y5H7ooBP9r9Z46d7xIQeIPF5wrQHCmcOOpmNkQuaM6Ow28SOZHa0ZckUzpBj5zt17ABgG4IC+mTGdrFGcz/Az9BBVOBgcScn4aMrArl47qZERwjN8zSweSgnk49dI/t+RZpKtAaOp8CKxu7bMdU5qFQKJelX2fTtGXO1xK2tkdbmCmE2So/FDpl/GrH1oXuG3sHTZjiGgTUMhfcLjbPee6gWSIgijoLQ0UxR3S0S1i2LuhLvdCCW8yEnh4p1o4c9UBEBUY3a8UBPdjOOY9yb76FBYGSzdRD40sKmIeOWEjyn9xnQXJSoGNDFdP7ATFkSWMKCJlXT0eLc0Rq9Abd92v1bkZoOFmbDO+vChfsFjSSO29gDvojowIrmzTthLaWOhMjrKKpFdVdWZyJGXOykfySeG9nnjvvXUSPBXJP9KVDQ2TvgRZmWhkCq6ehT1iaWDBdHwMp7K5GQsM1ToRrSY8jlkIDUwg4UqaYxeL96FTAO0TKO5gerMIuJQXmzYMTrvNZY5i6U4BhvQXB86wlPwtKBau+mmg9kxHeNFVq9C4FGKB6igwR61zhvRpT5ip4sVn7gDSRFFpdecR/xTpWBHisQBXqGNfoMcRrvu3peiB7vpjl9+ifF3cFPLayLu4i+Fl/HPL8roO9LsbvUngcabu4q2HkL+6CWHl+18Sj/1/cZbHykYZpK39YcCcPjAen27y5Dljo+fVIPadE6QuPoDGahQwD8O5a8rQwCljbxUbHZU0r6GJGJiJLEDkFa+Ybx/1K1us26w+T9N3EZ7ye2GnvVKY1T/Qrm0VpGE8UxenwF/rP7SbGDlBxeoBTciGa+5X8Nlow3RFeA4aMVBPv5o65FgiJc9hsl2ghWUbnvgZ7DS5Bu33qMHCpI/ArGgmz3cBv6wlOuvkreejO+lmrbZPpgvLs9yvuv6f7OZp7Zj1sf8xtDt78Gs3nCPKMxR7uiL/PLimoPLAgnvrnPXka4dob/aGZsSpeLDVMOQKN6G++AX8pr3/crtt/evry5fW2/vl7vJ6vH71e7U/v/wM=);lineShape=1;" vertex="1" parent="1">
                    <mxGeometry x="618.8155568120171" y="174.25201306461162" width="8.572407422463554" height="14.712010018293604" as="geometry"/>
                </mxCell>
                <mxCell id="58" value="" style="shape=stencil(lVrZchw3DPyafUXxPp4d5z9cZTlSRZFcsnL9fcCsObtszjQ1b2u5QYLE1QDn4j/9ePzy/eHizI/3t9ffH/5++vr+ePG/XJx7enl8eHt6118X//niP317fXv47e31z5ev139//9KQ7dcfr3+1Ff65yhmxpgk58+/1DzWLq///5dcr/vnpZcBnO+KD5HyMt+L9iLeSA8PnOuBLFUv0cRJG/UsSQ/TxYuOId+LNMT6IGc+biziifxQz6pO9FKJ/EusGfKp0/Sx+1D8FCekYXySN9xmrFHJea/r1bQJRPNnA2r7/JmDFeCLgpIwuEZJUSwSC2FGl4MUwlaLE8VJ9lUCMYJOU8VZ94juoE8AOTiK71iopDAJqGeYXGghuPLS6FnOM5tmjSrpEZDvoeqMdbJZMDq2+F8dbUsswS3v1pVEl9a6fltkXcJIgeiREgo94SRp+5Mg+Sx191YsjnhdUXbgiyUT/4KSON6TpklxQiGI94D3TJ4spgLds/dJj/YZnbh237e/w5Lwa6Rn1N0T/uMXtHZ5ETQw9N38QH3sQfhCfJJ/Cq/+EM3jN5egPDJ+MpHwG78ScWt9LOLV+wHhZ4JPEyX8Yvog9ha87/kbwWWvTGXtprZ7ikeID1g3TS9U+PvUydMMHEl95534y00erzJgfLNW/WLGIZ2RIuVKCCtAT9j5+Yk9WKsNHzD+O5mflelCRlMyRGlm0wBXEk3pRCuZzR0tqVXeBKt8dZB9vMZ97mv+rw/yp5JLkc8XX0d+CJOJvVZcb9Y89YezjQ7+OjY12ur+Pn+p1ptxS8RXYvTiGT1ivK9cnY3wpQaEbZEmjAZT+sgpcyxRhW4ezL6ApDkLMU8KuAmAzFajsDLWz7Tsa5woXyCiQiVtbY7ALUkrOEsu+RDmnlCZXZon52Ikmo52LzZ31f9R06t78DOhNW3t3JBALClD3q1iQ9dDMdCoQpmt1CwE4dOwt56FAQgHLkl7FoqnuF/m1xoQClkdEmkJo4Xw/24A7gUVUF3tyhzIdenGGOjVni1uC2rCww36MLkxdwV0TT68q4FFg4a4F3HUZEHmKoEXIwQDlA0F9TqBgUW+G4EUIu1Ltk1hiSpOpPR3yqQBM1azjqS/i2E7LHOs063bEu8rLqGqjGmPIlW76IyoDhs69YBxSpQB46kgOZxuJW9liqxZ7eTmkkh7wbP1GVZG6WWKxmQprr8fwE9UO9P6VyjuknmzuW/xMVQPDO8zZgdqrtTpjpvB9DHnYSiE+MnzBQbrnc1wNMWxFGGtrrSa2Fplk67mVdVz/qVXm+LkVX+CnVnaBn0YJC/w0qljgp1HIAj+NWhb4aZTD8fOoaIGfRlEL/DTqWuCnUdoCP43qFvhpFKh49q4yjRoX+GmU6Tor/OColLf6bRRbAZ/Y+pqOp9EA0b+NkjH/MOrURtXwSELzjy9I5iIdVfvYKcatPrLRTxvlj/rU7rBHbwWQP5WjMELQ9gfSnugjTyug4EHa7LMdPD6Q3F4D9wVsnyZtApuS+5R6YqPe0m7Llj4v2QQCnQDZifqp4dnIsVF68CNLZ1iNe8JzXqRDtZtdN4HaL3pfwEoCKuTpmK8NcYALZRqcpfdiG5dz9BE5Y4OZEp3Lpq7uFjuWPtpOL3PKFix9pHajPsVQ8qS1b8yNJfDQwbGysk02p3Q41lT2y979LD77KdtnsW+w120fLRAfNfho3tpAYl+DtezWmB7goXbf9coHArZOG9CvLqB43OYDB3gzrc8eLg2Sm9sc6AjvEM8ePqbJgTa9rPrt4QPpfgy+M7S5KzUYNFfqQGzIapCstB6c3ufZr2pWeP1x+4Tn29Pz8/ULoPv/x09+9E/Xz4X85/8A);lineShape=1;" vertex="1" parent="1">
                    <mxGeometry x="680.3726173019979" y="175.55001980423594" width="42.07306498614239" height="6.472183065308266" as="geometry"/>
                </mxCell>
                <mxCell id="59" value="" style="shape=stencil(lVjbUhsxDP2avGoky9dnSv+DGULJlBIG6O3vKzdjiLXxYXhLdnVWsq5H3unVy/3N034X+OX1+fh9//tw+3q/0y+7EA6P9/vnw6v92un1Tq/ujs/7b8/Hn4+3p/9PN12y//px/NW/8OeEE2rSQYH/nh4wBf7/4OtJ/OHweCZeqOokHim0tbgo1fnzlXIA8oVameRFqAJACNTyDEiUEKCSxhnQKKY1QCPFWUNQynENiEwtzIBCJQNAGRYPgArlsgakSFJnQCKVNSAzlTkManEAJuVCMschCiWgoeiI6xsgjk9cBjSfeDFTAibVRHE+dKwU6hrQmNQBTCcIXIvjiAOQ7NAKAIWyAwSqSEOjyjMgEQO3CjOxQ9TxZGVTm0+dBaqwU+e5ILJSApHrfk0zII2qXUUuzE0jV4qoyVhFztlXmCqo0Z59s0n2JILcMAOcSSUTg7ZhPolOQx1uuFyjjWR2a2XYBSwTZK6gqsRIg3gv9RJBfcYO7UwqIx8vA5KvIIs9g3Yfg/dSC6QgNXQTaUvHCDRYZ2RnUhsj5jKAfWMyQEMa2AeuA0AuhUZ5Y1IBGgyg7AERtA0DsDOpwoqzIeeaqwEinorNBc5SA+SSmSTqAYrP4FMjjzm5AtTiARl0Ywucm+wGQFTAADVsADj5QvaAikyyOc7eSwEDvEnGHT4ANB9pxMg6YJMaaGYZIG3SG0W6e2lTcQXHoWw0NETJ2BfQ2ZxcJpN6FRVVUBv1cgZAU7EXhHiAoIKog4ycBSKDTtYBwQPQgOhtw6VrgSSuN6ZNUTMu6rKpoII1fA5gPJWdWwXWaGffc5+pDVLdqD4ONhUTmorZ7ygVs+/E4/X5ZEdUwKjznN+V4dpknNBxh4K7QA5+5SgJzixbCNwZjGEpAJTgI10w/zGLk6OVFRLXal6a0ztj/mOJwLNJ5gY0goy8uDFqixTaFZs5ccPWFZj0PtLOFgJIvtX3SksWRuTbKm52q+0o0EvRHzoxXMGNrbt+HxtMb0sNN9mtpDJwa86DRL4BFPKf1PyQs/UVeSmpP4OWEcpVE0hzpNXigAb1ZgIp5tKqvuJCgutrKL4JBIHcob+eAVJgpCV7pitx0MDLgOBrWvAymj1fsukAwsa+egJsMZsLgTfzFuLSnHiAxrhpKzBcm8UezzX2c1DGMreyff46D564EA/JiWNj3NbGgzgsxIs6ccSMxLdphpUlpBtxULnic4Zhs/rk/eiH4vbj/Sr27vDwcLrJPX/vr27t0enaV6//AQ==);lineShape=1;" vertex="1" parent="1">
                    <mxGeometry x="720.3493156295751" y="173.4933842701639" width="7.302785784867575" height="6.257193706556441" as="geometry"/>
                </mxCell>
                <mxCell id="60" value="left wale ka inorder =[9]&amp;nbsp; &amp;nbsp; &amp;nbsp; &amp;nbsp; &amp;nbsp; &amp;nbsp; &amp;nbsp; (ek element)&lt;br&gt;right wale ka inorder=[15,20,7]&amp;nbsp; &amp;nbsp; (tin element)" style="text;html=1;align=left;verticalAlign=middle;resizable=0;points=[];autosize=1;strokeColor=none;fillColor=none;" vertex="1" parent="1">
                    <mxGeometry x="740" y="155.82999999999998" width="270" height="40" as="geometry"/>
                </mxCell>
                <mxCell id="61" value="&lt;br&gt;postorder=[9,15,7,20,3]&amp;nbsp; &amp;nbsp; l r n&lt;br&gt;so left me to ek element lena he&amp;nbsp;&lt;br&gt;aur right me to tin lene he&amp;nbsp;" style="text;html=1;align=left;verticalAlign=middle;resizable=0;points=[];autosize=1;strokeColor=none;fillColor=none;" vertex="1" parent="1">
                    <mxGeometry x="834.21" y="237.94" width="200" height="70" as="geometry"/>
                </mxCell>
                <mxCell id="62" value="" style="shape=stencil(lVjLchw3DPyavaJAgg/w7Nj/oSrL0VYUySXLif33Br3FyRCcaUW39ZgtEGSj0eBFPnx7uPt6f4n87fXl+a/7f6+fXx8u8sclxuvTw/3L9dV+XeTjRT58eX65//Pl+fvT59u/v971lf3X38//9L/w44ZLFGoHRf55+8AU0+8Pn27LH69Pu+VBKIZpvVCt5+vt77c0rVcKfL5ehDJP60MgyeeAJCRzAiFTlHNATsRlBjRK7RxQEqlMgJ4zANREed5SrKR6DlDxW5JANQBAo6IzwJIG19ASpTgDdHw5BtiO53tIgSLIoTXK80Uno1YBTGImdiEqMdpTI5mzTo0auIimFNsEyBEDCtU8AwoxPtc6cyM3CuiY4iivASiRBBSEXXWcky6ZEuC3Fioz+4qOmj1jX5u5UZkUaIAGSrMGVIElV5XqfNM1U0aATM1FqCOrY4AMVdkAViIoAo962XQpUAanVCrV+ZQUJ23X5Oit9gVFiF5a7SoroEanmtuSFTUouWzHOm+p2TGgCMbNWZiMvwyokdSTrwkpqGkTCb8lozfYUjJuuggVlqhJqdNK0xEFHcUAriUaoIGkhb30NaxLsfkcdmJ4hoiyhABXbW32IGvUqNXrjAEqjsDLMRVw1R2wREhAKw0g7AHICxjA1WhrsEbjIq4GCChC81rZtiI85UZbAGBLxj6nAg13lG4V1qQRwEo4L/eAPFmksOSQUUEYYMmh4Bx0yUGBVspmCvf1gAA8yLwHoC1ZQc5J/48aTWuNYn7ru5LoBbFchKItqe8Q/SKwCvByTKhTRz2gqyDtU8pLBGRd3w2Q6m2i2TrEPnO2aelByIimvCiZQCWztuhsYtuq9qzxxpka5gMVHKu19uTmLB1t7Bigw+7s3AaaCEpYHFMabvkYIIP9GyDCeihlUG3nySKKYFSbk66YfDUO7d35ygQi2Cinc8WZNRXkK6uf/cyaMoigi86YNS2g79ohOq00f488mWavSwUPi8YcN1KbNUWjXNvmhd0UxAgQF0CG1LA5y22pT3LgHrqLnAuoz4rgHlrxdqZPowiQx4CxG3jhDL7UQxceNI1uRNgN7UjIrILZPc7kYT+O2Wota066mwMQoYYhjNvThsKkTTWch+svTkjI2OtSaGNEOJb7Nh5jdg9A5Q0P5yIE+J4TLQcnlZQRM7wUGy+AsLL3oAynPva9x1iCl7NbjjoVe2/Io/DO9i5ueQR1z17gGfYo9mZ708rjFyXvjmw5kIjgafCGvfO3+tby5t9V0WbEyxXDOhTvHBmOLe985H1zuf347z35y/Xx8fYcvf9///5sn25v1/LxFw==);lineShape=1;" vertex="1" parent="1">
                    <mxGeometry x="929.1157223118157" y="196.08471265876778" width="10.184816625485292" height="47.65568427310173" as="geometry"/>
                </mxCell>
                <mxCell id="63" value="" style="shape=stencil(lVfZUhtBDPwav6o0o7n0TMh/UIUJrhBMGZPj76ONa8HSepv4bb3u3tHROmYjN6+Pdy/bTebX42H/fftrd3983MiXTc6758ftYXe0p43cbuTmYX/Yfjvs357vT79f7ibk9PRj/3P6wu8TT2jkiZT5z+lFJhn/Xnw9wZ92z2fwSlIcPAlJXcc3yuw/n6hBfGsOL3l+s4If4vClUpJ1fCfx+Nqp5XX8iPY0pQzik8w9f0AfNAogVOrJEUYj4XVCZhrqCJrgCeZzqp5QqOs6QQpV74PKfOZFQhEqgcAwazWTjug0A6dbphoITB3krSdir+teqYIoWZqqV2pnKkgZjVL30jDpAafVtOcTV029wGkjaIsE5IOaD3VBAIlTpZQiQdEJSjWY1Ocz1wjDR6kOkg7qgXlWwjvDSg47ob4nNaaMnWg+ES1RQol4r/kzAqogS0T3iTABQ5PGQkx5VsuaNkJBfHZCJ67RB6g+a8VlEaUECUHfUx6QNozga9QyLfiEEvQ94LQyQl/KFddoXhYE8qEvTvik5Mzia4taJRKg+DR2Y3NaQCczQtcYVkZh1di+jaDXEXT26j9NMi0NTAhOm1orMmksukamhKJ0LWH0CxMFhbVrXGb6+7p1mWAl7wk2FVE3bkItjNEKtVSF1PclWzYSMKkUSv4EraQgSrZshAJSvGFNK2VYQT9GxuWRosS+qD9a1WWCxLE4sFxt7vpGNhJsZDV2GVOGgLYkcZxMBQrskTlHZ1sxsifTCFu3wC3adOfx9qYCvE1LXwmpzCP4Ip7jrJJZJGtwDnAGkjN4sB7uF7zQGzWgNqtAn1smhV8Poee5a6xEMmwiPC8Oa4GXAEeVkuNtjefKWYG3GuAZfF1i3BnOYrtUpBB3hvDWA7yBNnLlvfdTuD18XLEfdk9Ppxv6+f/xSm6vTtd5uf0L);lineShape=1;" vertex="1" parent="1">
                    <mxGeometry x="928.3428011292481" y="237.93599658656802" width="11.942005438325031" height="7.491080528597967" as="geometry"/>
                </mxCell>
                <mxCell id="64" value="&lt;br&gt;postorder=[9,15,7,20,3]&amp;nbsp; &amp;nbsp; l r n&lt;br&gt;&amp;nbsp;" style="text;html=1;align=left;verticalAlign=middle;resizable=0;points=[];autosize=1;strokeColor=none;fillColor=none;" vertex="1" parent="1">
                    <mxGeometry x="760" y="335" width="180" height="60" as="geometry"/>
                </mxCell>
                <mxCell id="65" value="" style="shape=stencil(lVjbUlsxDPyavGpky9dnSv+DGULJlBImQC9/X7kZm1hONuXtELTnSLJWWnkjN6+Pdy/bjefXt8P++/bX7v7tcSNfNt7vnh+3h92bPm3kdiM3D/vD9tth//58f/z75a5Ztqcf+5/tDb+PuFqppoby/Of4iyMf//3w9Wj/tHs+tS/k3WSfKDOwj5TD/H5P0QGAUOEZkChVAHAU/ATQEKJcBpRCWWaAfgHEXDSGMgHEUQYuFU+1zgD9QgYAJplPIThyIEs5U52DDpEYAWI/pgEoFEHQWXoSOyA6eHDZ9fcNQCAHgk6VJM8AraUEAMmmNVbyBQCkH9MoVk8OBJ2Y3HzSKUI6qMduPodUKIAYNIl5zpLmLYG0htxDHIBAxQOAX76gxQJiEPV4pqiWYwUEktBDHACBMShdeD7pRikA8GUB5O7keUDstTkApTPkPEDIzeVdlYOgkXnuWR8AfHBO+TUzrnoqCBB71gdAYAxObLVqt2XAB8cUDCCRBxTNFGf+VHwMzhZGGy8oZHJmODATg1NgOxzaB0DEGnC19gXQk8kHa59AwGzrVO0Fvp8X/xlQTe2NPwUSZ+lfah+gfXDWHvVs7l8/sWdUoov/2ovA+50dCVffn9LiP2IAlbrkB7WJfjqn+cf2CwEY9F5nJ1odQ/GS/87aI+miM3nxB9X/EH//za86+3OdwLaj4A6hTdlbe3QAbOex2qN5zF01ndg7TPiFAKipr/6MsXAp3qXgPPQnsbVnGO/n7JOV7zpi0ASoFA2BAxRQug2IcUgwY+LSUpQUiPLZClmd9JAD1ZKs1D52zpPe9555Ij4i2A98sKeg8kbAGNBB7A0g9r3tvOLirnMHIMBJL2KlgS4xHgQtqgSMzKxw7Qqr8k1wAwmqTebmpTtJAF+I3FvDAOg8B80ixj5chnrPna/nAdXOA10xKqCD7hvJrMtafGgpWva0qAQFtaT7hulIGlUCWdKcGOUbBba87G0P00SjHqYLip8BusQgFaWFYDaQEPD6q013rqXAsE2WRZlKhFtUCXYSKqXQSSuDDeN0JynoVmFpM01dAU5Xb7/QNgZ0VxNsq3QODivdBsJcfAmuy3WUZrfX8QJacRNn1j4AMqi9mYYM9/02W72xR5Vdl5ugobcv2ZvLMix2VEuYts3wkqZpFes/2uea+Fvyg/3JNv9IbTZtZv2JV+zt+9E92YlY/Lh9RHL/07eVV+314eNq9GH39HS8WT39v71K1Z+O17By+xc=);lineShape=1;" vertex="1" parent="1">
                    <mxGeometry x="872.6212604204436" y="314.74003025206" width="23.154834115414086" height="23.449617975922045" as="geometry"/>
                </mxCell>
                <mxCell id="66" value="" style="shape=stencil(lVjLctswDPwaXzHgGzyn6X9kJk7tqRtnHKePvy9Ul7IIWuvJTZZ3CRBYAqA24eF99/S23Xh+P5+O37e/9s/n3SZ82Xi/f91tT/uzPm3C4yY8vBxP22+n48fr8+X329OEnJ5+HH9OK/y+8HwkLhPL85//b8jlfy++XvCH/esS76hyh3eOclwnOKEaewNMggiZUuoJhYIHhEA1dIQQScAe1GNXO0L0FGWdIFR6j2KFe84UfYdPGeITOenw2VMqEN/7kwulivAmZ8VRAesXKn18igYUxMfFppmZUMkjQqXQ71gchQRkl2yOJVAAWwiBYu+SJIq8TogqY2OhNJncDirbKIlKHeg0M8U+bZVhmgsT9zqqHrqkURdDmMNwk1CFvHEptzCsEWqxBAEu1UqpP/61QGkowYhVCQVpiTVMhiEUwHFTExItAelbCbHXhr5B6pvW85ZQkEtiy/AUB3AgpijmgYASoUVpsCDIQrL6nnKJCX4gOAcJ7GweUB2bCEOmGclVXRrUl0AVmDbtLYHRpjMFs+lMBbmkVWU4QagKKKHKQEBRkia1pUtY3qHYTbs7B8hZQkaZnrW5SJxDYa2tlC4IBVtIg/g8qMb6NydLuFP6wlAEKtKSSq0nLErVmpjKaAJt4rOEIkNctX4D9WWtZMZCogxaSprDPhMibFo6S0VzqH07hLdbe20ezwQHUx2GeU9ULWjIDeR7lwQPWC61UrqYNgI6crYYi8dRpTAMWKif+FZ4Z3yGXZettouuAEI6tFydQCMIENsGqhMuo4CS9OunBHWtEuvxUYUOyoVW0D4+Ov4VdDLthB5mi2tXDNNHriZXLzHm1sOweeo1Kfeinq41iCCUe5ccrNmKN/3ftc61NtO7fn2GlwzFp2LwEUla4xEMHtWVyXw2eEbrO3trw8Vazxhb/xnsV/EmYdyGk9UiZP1BClJ8TgaPbsF+UJxrI+VtfGwn9opHHfnTXxbu4vXh+hnjZX84XL6CLP+3nz301eWTSXj8Cw==);lineShape=1;" vertex="1" parent="1">
                    <mxGeometry x="871.0553053995859" y="330.47276487517945" width="8.614740263703606" height="12.569701467007325" as="geometry"/>
                </mxCell>
                <mxCell id="67" value="" style="shape=stencil(rVjbjhoxDP2aebVyj/O83f7HSssWVAorlt7+vk5HmZIYDoPUN2B8mNg+to8z+aeP7cv7ZnLm43w6ft383L2et5P/NDm3O2w3p91ZPk3+efJPb8fT5svp+P3wOn9/f6mW9dO344/6D79mnKHMFeTM7/kHJlf+/vB5Nt/vDhfmnjh15oWSv22eKeTO3BpK5ra9PHb9/1tLHgE85TgC2AJAJvY9wJHl2wAnj9MICBEAEqUyAhIAeHHRjoCMkhAp8QhgBCjEYQSUdBsQJM+uB3gyDgAk00EBwBuiEM8oAPAh+sa0C4AFmY6JvBudDgjAVIYjWXKA3cmqI0kqMwAEigrAIEopk1dcciAPWQpIZToAeucl6pdsBUfKkYoqIAYlmplyHgEFANhSVIlLwAcOZFRYDcg0CzX6rsGUQN6YKfZBSo3uV+2LafXb7JfEX7eXCPYF7SiCCJXSaqvZGzLY3qfh/xNgUSmK2MIr/IKhwThLBUWoUOlJ4ROcJNYsLjZElC4Jklxf0TuRJI0YMM5CB8tZALH3uiYSez2Mt8JtHF0HSEvqiVoPiXzgVrwLIJIHtSOA0A+fWhwo1dwaUANIC0FtVQC2B0ijNfhIAyBY2DD0kaQ+I0qcclpmSQLDR4c14AJSeTNQVmliWLIPMS83lbKS2qKD0p367ItHVApqSVfqUzSBv1OffQtIvk27lU1GRovBURraGBcoDnWfLPnekYZGfBGH/4VQw0EOBaeDmj7SA8JD4614ioBOen4WET6gj+kJLe8sILBaA3Bucm6lyhCARbJE6RgBoBmnlVI9EqghrcUEEIEPWu0JIINOqfWkhNWCI2nFKgA0drUm5iXQK1V3dfohXS/sQsuM3hwEUEBV692kAkCU9PZTASAPer8Spw14g97gKluBD3pHrGwFAL2FVraitVXtuTVxAKA3aQEwoLfe1StbQab1bUAlHyrR8bpB+n0A9vo2w0DBpy5LpO0hNWZUXzUUgMPyVPMOVKeOj4XboSHbZyxj2SODqU+YNBx0MaElemx9f519CE0TrDuP1BEqAuWvVAWSJPr2iWH/Vfmqdxjw/CMf4CB/8G7urrl8+HcN+Lbb7+dbxMvn47Wh/DRfOfrnPw==);lineShape=1;" vertex="1" parent="1">
                    <mxGeometry x="819.5762376553417" y="355.2254666016594" width="12.481240679148671" height="0.23603605619206539" as="geometry"/>
                </mxCell>
                <mxCell id="68" value="" style="shape=stencil(lVfZbttADPwavRLkci89p+l/BIhTG3XtwHGvvy9VYRUtbU2QN1kernjNkDvow9v+6XU3BH67Xs7fd78Pz9f9oF+GEA6n/e5yuNrToI+DPrycL7tvl/PP0/P8+/VpQk5PP86/phP+zHapUNbJKvDf+Q0T8/8XX2f88XBa4XOhwh0+kMRtfEk0pg6vlHQbX4VS6PCRGJxfzf/c4RPJuI0flULvfyHJAF9ojB1ehELYNhBeErhYFKoJfKKSlj6liWIFBoFS75MqKShajZRdUpkKqlr0WY2VIoghW5X6GFImBWlK2tqmGWSlETRGDDRKXzghBS5NOXEGFQZtnVn7wtXUjrjvkm/VcaRYgEeU2eNRyIGy3OBBrwrl4vEJ+MNUa4+3BIG+49ZkC97IB7hmRHD5yRRBm3Jj+oJPxCBe88f5r1SAP+KJaUQqoIOEqno8g54OLXsLXppYbvRDyR5fYb/5+gbIgNSyvcpPAARIN/0QKYJ4c6vOql6IYKl1+6p/GPSn+T/6/gwAHz1/rf+RVKtXFMNXWF8/ChgPS6Gx+g+gBAnJjaAwJGQsPkEYz86fTBX4czPJrMAJEjg4Asc2bTfwxfmvkPDi554RAM7iT+LNIPTLio0MtK2oVaD/gg0lOMUspT0HbHKi/SNx+3s1WAOoceY7oxuxpnATwWWbGFtd7huMXofUEg10qJrs90QzqgpecJxyiU1WtDXefEESrENlr71i0xxor+2x4lxSyIWcvZpKaN11v9KZiotB8Aq1qO3KAMlRio3t7wLWRuiWATsFhoupLXWpD8FWW9TcN0tggfpleO7PtxR8sGT2ghrxwFQvqFiPpvz0bMbsN7wTPGkBbVXYcZlxPvOdyxw6/5OXv4/x9vB+03w5HI/zRXX9v7+Z2qv5VquP/wA=);lineShape=1;" vertex="1" parent="1">
                    <mxGeometry x="829.0745947545793" y="354.3675021353767" width="3.414978396356436" height="2.495198291597341" as="geometry"/>
                </mxCell>
                <mxCell id="69" value="" style="shape=stencil(lVfLctswDPwaXzEkAfBxTtP/yEyc2lPXzjhOH39fqB7GIiRv25ssY0VgASzADT+87Z5et5sU3i7n09ftj/3zZbfhT5uU9sfd9ry/2NOGHzf88HI6b7+cT+/H5+vv16fJcnr6dvo+feHnFaeFmk6oFH5d3wg1+fPi89X+sD/O7KVRqYN9o5aAPVNNg31kknYfwNk7FO0N3weYAxIHQAqUQAgpUpERwJTrfUAUqnkEFBLgUvP2HCmV+/aFEo/2SgFEYN93OUvEGQagZQSUnsZ7FNUxyyoUQcQWYB2TkCMFkGarizTWRTaXQAxqlIxBFyEGpObck9oBNVBWkIVK7ACFAmCpVcpjnluGldcaMXtAxoDSRkChCGiNIVAIHlFBg9oRzflUSQCvBsjuhEYBAwJ7gIJEmAOpeUBFibB2dJpx42EdYbxHf0SLAKBUxQMy0gDtpTADRETTQmWMBwW5NoDTMeMBabcB2qI2GLGkxGOTGm8FnaBevA0AT7DvLToCSl8hdfPHzkQsVT8e7ISIey4uXEITayqE7GmFxWeltgBkVHythzgrjQTEctIN8QDYQW2lWgW5VHsLzwAFsVQWLllUyKVMdaECDTVQ7mo9dwllOvcR9Y+Aon2MfwACCch0ZtIx6CpQKzX2Ifgx5Uof9uuD1zwey7vE3rTro93y4Aav9JZaHylWzKNLtjMqKI1KZVQZDV3Z1j3yG6KYQ4DUxYRjawZAUfDdxqlnZT0HftEwyhRtV4sDbJ9kQFCsvoyitR9ax9TP6KiU0RLNXeI+AIkExGBllJ3SQ49ESVwVUQBVp9zXlm5vuxjqA/YRh74TrNuL75uA+0z73jWzBzWnmTQ5+4jsbbD67zOoUa2+yQJUIrN3/kc4EHSxg0XYk2bvriSpE3DXfpQh2+8RP7Vr/80eyZwuxo2QIH7+81r7d3t7uN2hX/aHw/UKPv/f37nt1fW+zo+/AQ==);lineShape=1;" vertex="1" parent="1">
                    <mxGeometry x="819.0969279426191" y="353.380427350131" width="3.4420088930579054" height="4.512197370978079" as="geometry"/>
                </mxCell>
                <mxCell id="70" value="" style="shape=stencil(lVjJctswDP0aXzEkwA3nNP2PzMRpPHXjjJNuf1+oHjkGZL2MbxKFJ2J5WMiN3L09P7xuN5ze3o+H79vfu8f354182TDvXp63x927PW3kfiN3T4fj9tvx8PPl8fT++jBJTk8/Dr+mP/w54XqhqhOK09/TSiHN/xe+nuT3u5cL+VaJu5NXkr4uXxuV7OSzEA8ASNSaBzTKaR1QhCp7gKmk6wCpNLzJLJTaOoAHda8SN+oFAJjYAyRRATaYiaN6QKHEAGA7eKOlUwMAJRYf5kwJxHmQJC/fSAUoZDzyG1SLC/JRmvU9AwYlQIxJpeEATUiASuYR9dRrFkjgo2KfvdGWHQwAVal7o7utABt6IikOMAoVABiJ1KfbUMqAqzpivmmduXUdYP/z2aANJqgujDbAACUgp0TJ+1U7VayT+nQwsxhZrdRSBCC6Tp9DGVMqwAgD5BoBA/DbTGSv0oUfriPM7yVuAY2oJC0CGgKUWFun6CMjSjTC/FBRmbGyFWzoNECdMUCkX6eMAS3s0GAKTV4KgEoK+sMUh0UKNbSDaTwWABRpIxNHQEcJMRYJ0eZfrCVEHRHQcAbpInCCOtCVrLYCjtins40XAFSPDRADYZ0dccOK3yKDUKOe6pBEgKIy0KguMkgx+yJdFYf6VkA3MgUbmDoa4ToVz74xIJmmGc7vMGReud5Ia5w2TMkE4iAyZ+QZwJCuNrH10NuNrsBLucaUazyPONfdGhtENbchjWJXrAx73CJ7SqcE5QO1C+NxiXQxIKLRpM00PssLDTTwcSx6NuMmUFbzmFvNxRQtyKN2EvEuYkwKMZV8zGxPBcQWjROi0QQ5dYpROJxkGkAlG4JjPyQGTmqZiq+R5/PW2kAZUjNBlvYczw1pnmuuy59J9iGPZhiT13aLvJFsoQ/Sv8RB7xN7azyJpZlUa/LhqJdhpeuNkqccw0Jn8iFrjNKAD8v/4zNPr7HHytzXV/3j5fF55Nbrgs/l7eHjbuJpt9+frjYuv8e7DFs63YPI/T8=);lineShape=1;" vertex="1" parent="1">
                    <mxGeometry x="834.7712688532913" y="352.7169778152962" width="3.3555148886852018" height="4.552794785959834" as="geometry"/>
                </mxCell>
                <mxCell id="71" value="" style="shape=stencil(lZrbcls3DEW/Rq8Y3i/PafofmYlTa+raGce9/X3BaqiIgM6G+CZbXCJBgMQGzjnFTz+ev3x/OgX34+P97fenv89fP55P8ZdTCOfX56f38wd/OsXPp/jp29v702/vb3++fr38/f3LGDk+/fH21/iFfy6co5QHFNy/8x89/v+PXy/DX86vN8MDuboMD5FKOx4fKaw/Hwt5MD5Rjsv4VCml4/GZelnG50reH4+vlNMyvmTy5Xh8p/HVzfgaKOfj8d6TWw2ujQowwAeq6wzNUwAW+CS3tAWKAQC8R0ECzQGgqiVFcmhJnXKVgAczBE+pKQDsEsdRKgoAfuPAuANUANR7S0JAl6E0AHQU/L0lIYAPzx6QqPctoFDRjkNAo7A3Q6cWd4DkKW7NkIK8AiwgUVPhDYFCbW+GTm7L6MxG+y0gbjouF3Jb25rbvfMAgOKo7QFhM1oLh/fWiSuF6h7QZDY0gOo2PV395q1R+erdA9LuDBwabguou7vUpqZ4EGiO4tYMnDPrlg1tN/hamtngUSBTEEviORHAyihKIAMtxkAXS/J4hqpuDT/v8/tAoyhscFDNMCAugdqhEmid0mo0Rxfa1u5keLMiC0jB+SkUrpKvTd8fAW01mjViRjOwm9bbu/gZv/cBldj5eq5AwvUkbcgBy9Y85dRVR3MSQ0Zz8K3nIfEZRDNUqYxZfTgQGl2JRBamAXm6y2hl6Yt0KwO1qRnQtrI4ETOUmfWOAJGB/DVjHALrto76CpUDzsnb2KiwxhSr1aFQNID1yIVGFRvRRBHn8IHo8/eugKcCCojh6iQBw9VZAQ7Fd5fiO1zj8QgQOnRUCHhJUcxghqtIcqO6xidILIkLr4TjWyRqLu3C1rbyCSogBWnHjTNqhIYCUM4awaeW1LHjRLk76llsgzxAbnY5Hj6jXMVjq+U1wCkFO6KL2GiwBB/btBrBZ9QIJnFZ8gmCF/42UGW4cpkDj9z13roCbd48R1kurq4uPCdydaIoxEOaee8oU6c1Q7CeKejIcSCISi5RQZ72SsRhxcSAMJrnDMjTbuaPK8DqAG2rkz0sdiW673nFQgD1BnNWUwVBx7exFqI3h/BBrfvzvn1QTQ8jMCD0OgOo96grAt7XgvZV1RwMJASoqsYCVN1kAaoyMwBd+1mAqi4tQNWvFqAqZAtQNbgFqCrfAlQfwQB0p8ICVC/EAlS3xQJ2g093jAxA96QsQHW9LED11SxAde4MQPcGLUB1Hy1A9TctQHVQLUD1aA1Ad4EtQPWZLUB1si1A9cotQBXtFqD6/QagnyhYgHpmYQHqqYgFqOcuFqCe7PQKK2T97GgA6GFTlQprCE1UUnO9oACkf8YTNuEHji6gEn2YX98oLCT6vFPBF6Ga6ao1WKZR9/OJ6qp1+NgyyyuDMxjyWpIqoHjjMbC49LKDYky14CIrUCC7neyPjc4PKATclNg3VaiHvy8U8XA5OAY8ft1Pj9s+qqDsc8LHhldYMqjVZPiEWRkbYVNM7WWYzn7MVW7W6wfDQxTDsWNFOsZVgpMVp4Ol1ObLEuZw/vDzvYxv55eXy2sdt9/L9zj4X5d3QOLn/wA=);lineShape=1;" vertex="1" parent="1">
                    <mxGeometry x="835.2701483072203" y="354.57721844549707" width="31.965611648188116" height="1.2181085710977324" as="geometry"/>
                </mxCell>
                <mxCell id="72" value="" style="shape=stencil(lVjZctswDPwavWJ4gQSe0/Q/MhOn8TS1M457/X2heqiYULSevMkyliKuxZJTvnt7fnjdTSm8nU/H77vf+8fz85S/TCntD8+70/5sT1O+n/Ld0/G0+3Y6/jw8Xn6/PsyW89OP4695hT8XXKJcZlAKfy8vArXw/8XXi/nL/nBlHs2+OvsA7O3vpH79BOyVYhrsE9W4bZ/Vr8/Esm3Ptp9xfSEF9jUSx8HeIsC8DWiJwrihWCkBDyT2gC8AJc7bALWIyxiiRA0BmMQBmBrwQW0DLglKiqoiLFXQEZkpFPCJRnGsu2KZqQCQ+pYXQIFOSCXJI0CpgDA1pTp6zYUiyFyLPSgLQKgoKCamOPpQzSvgNCuF0YfaKCBAJh63ZJvMAFDEO92YFDRoydTa2ECBCsi0daiMHSQ4cdaRPJaGCgnimEZ13NJcwMDpVKmyBygCcF/vGoB8KCsfFNJGylTFO90AMRkgOKcbZIGZJEZi0tq5bQsgLkpMCfuQHKB0qtoCqAtr7vS/FVZxPiQqDSZOiwckXEsheUAG5W3V6pjPAIKcllUeMu6H1YizsApy2njOhbVCIpu/4IqvQdaYfXDFJzgPrU/Zq36AYW2rsCp2eqGtZYyGG9JkieLVJ6A2yati0t6Emw2xYrKItmSl4wCV9HNNzZ0MN2nDJaJQuUFMq3ItqJg+CzClwOOQs0kc8URxtNEKpD5TCq42WqAMosQr1Wqju4IvcPWqz4RjBrVkg7+MU9GWQCOoapdHCyBBsdGqV66lwckuxr1jP9isj0hh2aAeAVn6yPhYw5k6GaOUAwlw2r7gtPE86xFg0SILoEAxbYUgTupGOOSqVc5YrbH10f1x8RlHjFMxmqwEibMgxjHTMcDEGRu7apWeyY/VunplXKE2sRNP9WesirjbSxm8fPKMhGVJ9Aq3UgbmwQ8ehsIteN3GkB2NJ9wZAzZA6Geid/MISmd9qIJDNvTZ8n50RgrSCpmdeQSdspzbl6rs3b+RpuiOwXB1OwT7awiBJfapW4ub5vbwfkHytH95udyvXP/vL1Ts1eUyJt//Aw==);lineShape=1;" vertex="1" parent="1">
                    <mxGeometry x="864.6526549518751" y="354.218338359119" width="3.970711256904748" height="3.4041187544267895" as="geometry"/>
                </mxCell>
                <mxCell id="73" value="" style="shape=stencil(lVnZUhsxEPwav05JGp3PJPkPqjDBFYIpQ66/T29cWlYjuwlvxlazmpmenmN3evPycPu83wX38no6ftv/Oty9Puz00y6Ew9PD/nR4xaedft7pzf3xtP96Ov54ujv//Xy7nFw+fT/+XP7D7zMuiMsLKLg/5y+qEy3/vvlyPv94eNqc90FaGQClSY4E0KSEEVAl1uuAkCXqCMj0CaqiBqCS83VAdFLcAMitP/MyoEiJIyBSQFIJbQCkRt2aijQDiBKI0dlLGY2OTRxxK26c/AhQaYkA4PUx0lqlNAKADXUERPHES7mKH6mhjgOK5BEAsjjmpSw1jQDfQ3kZkKSMXvKFA9Qa7UE+5iUvOnKp9Yy6zIzaXbKyW9SR88GSO9F0i9WGuUrw5HyWMP5/76SybIs2FzyoGAhAxY83goY4YnIMksYYhEhzAYAwRhlBKMyGCaBJKrMhSByZGr00brQz+QyyMxuiBUB0EiFSXHmw0aRABAAX8GPyQEMayQUokI5PKI5yCVz1Yy6U2EN5GbBeYFNMAhPi0jVuZben5EN6+pHeNVJqwCcmHyoSlOlqkTB6qaL6EMVYqplRjEBTGiXc6GqLNIHwsxGx5mkCNciueYKjXmpluhIAxEsNspenKxHyNWhEsoBMIg1ArpNbCVsBMDW6adfyq4Bk46D8CckAkgRmQ+3SuwE0Hodm4pApl9pUQfFNYVxKnQgbQGZGx06EDYCpBrxuRADPTMxo7XHdxKHwJwTjJeVsVat84FJlXlKpU8Y1ImS4sSnTADD1hk+yiQPqNHtCnuLgeut+jUtVLaAxt6J/nIyOzEvIB2fdyhrEJeOmwDlig3euK+MG0Ygat2meWdST38lKX6ItJdwUpoSgOvNRQEVFsT2coxUCQ54zKdRorFHIbUbw+QStgq1yhfYzeS4pqWvVtVZdTUbAD2zccJPRnrIpZcsN9AJMjpeWzfQCGCzZNOB6q7CZ1xmZltF1DPUyTRN+o680SVrWUfNaq6vjlTIfyuIUaTiaNXHa7JJiGY6JlxTKNF4JU45nK4Sp1Y2BA1YnbgYC1hsDoGYSbbTVBSCOXgpK+xkA2jS6VpKiGOfVqMC6DbocuLUDextFaaDXOW91Ep9Qar9vP496wkZdtesALmLLKD3GgHe5OfRu7f/uD96b84XS9G3rtN7HUxIhE83o4DPlRJkseMdkAAyJQqLtHoYT41N1VMHwhDQajcxhmy4UBsOKyKfKXK3RGH1ZB5qTXbEkPmtgSLSClPu8f60w2FHa0/4QOm8ivZQ7vtKwkzGmGVIN4XU/KhgKA6tVILNZjaH0MHojG02ka6CR9tMiF40KW7MGmz+Vz1feloW67qaunNdiz3violWuNvdnSx9nV7I4n8h9nB1LcN7T80avEQDWLEy98BIwaq8z/vR0Q+xswcF5tipxVt/BOLYrneoTzmd63hIU2sVS4IMvS94/jw9vb2buD4+P5xc729/tmxx8dX4LpJ//Ag==);lineShape=1;" vertex="1" parent="1">
                    <mxGeometry x="824.4142251871527" y="346.44091539161616" width="4.527842777272346" height="5.134770564659725" as="geometry"/>
                </mxCell>
                <mxCell id="74" value="" style="shape=stencil(lVnZbhw3EPyafSV4k/3sOP9hwHIkRJEMWc7x9ylmwcmwZqcWeluNWEP2VazuuaRPPx6/fH+4RP/j/e3194e/nr6+P17SL5cYn14eH96e3vHrkj5f0qdvr28Pv729/nz5ev37+5excvz64/XP8Ya/r7jokh+g6P+5PujFZfvvya/X9c9PL7v1xaW4rm8u5fP13eW+ru8u9PP1wbtePgRIrh12iF4AqmuJTahFAMw1srlKm+HUSoDsknAqvJrrCgiuNgGAT8ICaHgijE7epXWHlqTRKbq8JkZFKKMAZBdsBURXqgAUjkOpLqgdmvOr0dlcTQLQD4DkgnArAG0FpOpMJF8yF1YbUnBRudU4cIi9qcDhSG0F+HuAsEYaCZ+UDfD6WnGoQa/ikFyh5HNJ2exdMd6gi8yI5vyae0GXNMqBSAMl2IXN2IFoD6+IoqRhA2X38ILyanBlPdLIRsEBeF9cA53jDMxZ/RDLZDzRmZHzCuhyh7yR0K7guvASDhBWtxbvahCAPnlxB1A8VgKXA17R1H2Vna1xyHWm421Ac0ZeAlMKQEW1rAWXUaEivevGvFtqNNdFwVUQHxkd9JGaKwQAy9wBEBcHyfYA5NUG+K2ISANQVy/BDaYAKJc1Ds3LbAWAdmjFdXE9VGOju85WHKCuR8K93kS24o5Naxy6SeZrlVPDoryxoBP8SgIWplq5DUiTIzaAzlZoHbpPhg1qh+4KqR/NreMA5NbqsoiDVSayZlLMWOMLBXLJhA3WOA4AFBEHA5ElBlS1Q59e39ngxYViNnX5DtBFTQPAStpLMRO8Zzf16KIKhDmjCkpT758BqEZRQVXlhvG9i/5E3bvwK4mNkcAK0GYm7LNPFDUAsTBAeulQ1LBB6VYAQmMvNbVDmWpnFweZrgAcIp2U0eVQo2Fee2c2xPVISFfFMwDQkdomrs/ikI8lp3KpszoZRa2OBGlRGXCn5JgFTIoNANqhRu8ArHEclP4ZgENqyMAZKywkX1S5ZNxaIr1lLn0YEJn6TItv3FBGl1yZd/1tQOM+zu6MNTKTgOnkQ5hIMA1CFzaM3Fy7rB0/30bAxsxbKJ5paJIaG6E6PwggmrXc8Ss0GRX10DNaJsbVaoSmK0A5FES8B/BUo0227DUfihrUpwBpys5N6matjRMzWdnk9SmA+qzgogjcsGEF5OyyKOoa+FZE26Sa/GI8wkKvqJTrGPaQDVEOyfBv2mH0dqIe0BlS+4o9VVMDn/BEahs53QagHjLvIMcIdcr/nQ1JjbASBw6RDnpQESkOVRJTPMyLRnMpjhQrxyEVPc45zIzjliy3AXl2t7txjpJk8dDkhyJ7lHhgjTHzUl5qPGwpcpoDCymVwnxwNm6lOGuuT5nbh23AezY75YGXvH2S8f2mx5SjEhI7NAgHjSRbSydkqa1ynAy3G4RG4dIc+dND1EMQAKhbT3oCBxuI6FOXUgkAmmkMylFDQZsn3pW/HNsfOW9rx0+H6isAF6RqHVDsgZrvqD89HFQGpI1XO/jZsO0kq/x80vgqgWhQKjqmOcbcDUGaKn/P01zoGBOA0CY9bIAsr/TxGYuOVKQWC4e7BzuomUbjVMJ6xfOZlZglOV4O3KmbHlL6KdN26xWF+UMToL8ibOywW6/4wnMhoIsowt7jsKRLivesO3uTKeQPQ4AmGdXzKL1Xqc39HF3uujA5HuIx95jEiPOEKTD3XZ4o+zDpf79e6ZAPfrm+vx4//v9M/u3p+fn6lX3/f/6sjkfXT/Lp878=);lineShape=1;" vertex="1" parent="1">
                    <mxGeometry x="846.4204741866901" y="347.8828862247997" width="7.636984737898393" height="4.08676758698003" as="geometry"/>
                </mxCell>
                <mxCell id="75" value="" style="shape=stencil(lVfLctswDPwaXTEE3zyn6X9kJk7tqWtnHPf194XqUA4gczO+yTKWABYLCJzCw9v26XUzefd2Ph2/b37vns/bKXyZvN8dtpvT7ixPU3icwsPL8bT5djr+PDxffr8+zZbz04/jr/mEPxdc9lTTjPLu7+VNoRb+v/h6sd/vDh/skyfW9sxUACA0SlUDWj/iNsBRiQrgIzU/Bni2gMAUQEgcqToNqORBSOzIsQLERLmOAZWCdpCYWgYOvHWQCrkGACtWpZCBAatMTpOUK+U4BkiG7wEswoiUyxggARhAdVSBh1aoFAVogQrIoVUqWnstwrq1RlGH1CQrUAcBvCttAeTO2xCg6yBZsYOAbJKuxCjpRs5bQAPSuJ63AMQnaAeJ2HpoUK1CYi13ASKVtgoJtLQIwXqonegRwIe7aPWrSuOOmwEmB5EGojVQNHUQ8SG1RuJ8l7wTse7puYGQ+DL5VcdFRGtZ5RAoYfHFVYt+0kC+WkABY0YA1VtaUdLsZHrraSw8FBxTNVmXLuBhEiu5FqRvoclUrnXihoVwFlBRSLlLZ/nsXnkYqilYF7AS9wKS5KhpqgWuApH7LrIAuPu8vQpkO45L6k01WgVY8zp/FgFA7LX6MkNWV9qTTcAD7Xk7+CJer6pd30KAlLJIXzPkEyWQgFDq9FTi2ten25vGShay3aCvQ6xdyUvOcH0TGSVdA9fb7/Zi4ihlY+9Ac0pFc7T2IGFZfIqz8aDzQ1fY1R4uVrHP6IVQuOrlZBcA30U7sk/aPsCRLfYm/gg/hPP5WqMJ8y/xN2PfgKSFn6TtF42P+DfbSIGz994r0uf28nC9j73s9vvLde7j//b+Jq8ud7/w+A8=);lineShape=1;" vertex="1" parent="1">
                    <mxGeometry x="874.4527105351083" y="354.722214044057" width="2.701033600808802" height="2.934533980108308" as="geometry"/>
                </mxCell>
                <mxCell id="76" value="" style="shape=stencil(lVhdcxoxDPw196qx5e/nNP0fmQkpTClkCG2Tf1+5NwYscwu8XYj2bGlXa/km9/SxfnlfTWw+jof9z9XfzetxPblvE/Nmt14dNkd5mtzz5J7e9ofVj8P+9+51/vv9pUbWp1/7P/UNnzPOUCkVxOZr/iExWf//l+9z/Hazu4iPlFnHh7wcbx1FowHFAkCmqFZwcEfsKXoNcGAFZ8k5DfBgBZfb+y4AwS0DfCAbB0BZBgRLdlghgi2FSCEMgAR4k6SNBiQDAIHCCABljYV4KGsCVRIhuKIBlgEgkBvEh5hOmVgBDBmwpWyJey1JGVAO2RP3xEVDLgBAIk4dIEjSAFBkx7kDeNfWvA6Q9/U8OG6Cvw7I5HumLXkcn3rt4aKWosVtiCOM9/37mQxoHolPfcIB51uo9KoosNeskfxUgTwF0Gx1hb7/rSyBOCvaVsXVGLSCAEIvI05UcNLcF9VhoQrLue9O8U2ou0zB6xWQrQpA9Q7nppTrgKTLKlXyiIdE2WoeCjA9AaS+rMJ0vrFCn3SBp5vkbHqiQzPypXhl29wcaik+9r1gmmcuxavz/6T1JRm5Pl8LHVjiYy87jykurdwt/oYkit6/5abbewGiKsSA7Kj3X6Eg4eaPSqWnoWmxpgpQ4NH8OMDpLck4AGVnrkxtEXi2HGtqasvc5oelg9MroqXQ6OC0zUxOneYhD2lonXpwgS2N48XZlu8cYARgAGAckerZi2aqYQirALTCMOZVwEODZAUApsdRtRo/KOs4DFcAYHoct6urPTTQ32B6vDLU0w6UdbyUnI3zzmtPOXF/372qnvCgSMO97WJKWQCooa36FIwPo1RhvOYgQlkYsn3/i0kVcJGU7JSKLBkgimFmE4tKsKA63rfuvm8/YlAWEDzkK/6E5v6hnmJPaEod+Lpx+xr0UC/y8P2PfSi4HS8P568Sb5vtdv6ocfl//RVDfpq/gLjnfw==);lineShape=1;" vertex="1" parent="1">
                    <mxGeometry x="875.0058105873773" y="356.0709994227182" width="9.876737851420488" height="0.7065769175099811" as="geometry"/>
                </mxCell>
                <mxCell id="77" value="" style="shape=stencil(rVfLbhsxDPwaXwlJ1IvnNP2PAHFqo64dOE4ff19uDW1MeneKAr2t15wVOSSH1IYf3nZPr9tNCm+X8+nr9sf++bLb8KdNSvvjbnveX/Rpw48bfng5nbdfzqf34/P19+vTZDk9fTt9n77w84qLkThOqBR+Xd8EqvXPi89X+8P+eGOfGuVg7PVFWrfnTlyNvZ6YZR2QhXK2gEI5rgNqIBELEBLgUksULSBlCmEd0JkKW0CnAFwSppQMgJkicEk6STOAHCgAlmIIw+UZ0SmBxEmhaoMolRqKulG3NNVMuQNeGxUbtTKNeK2aWFsbTXlgUHzdF99EHEhEqoPFGSDU0AnsY7hhehkRfOr0iApoin3QfhNEByfESlIsoA3ilgGFxJ1Q8All9PwM4NFUay4lB0iUAK+x+eqTgFkSD+gyunA5D1pr1qWutIITtOlruQOAJlWli3cuMXJJKBUfNDcgloGaK9dIPQNApNJ94go6QQFWXbU0GLCkLlVX3koD6geh4AB99NRaj/pqFQzIxHdNLSjTcVT/DaAXWHw5ekBEgOaVTFkSBKgUHaDCPEwt6mpJ6xf3tNelhEWg3WllHE6uCZlYlrQf+v8ElDJEZR4QYWwHaxOlWvnWmRXQzMqUbGmUBmntgZKNocQxJ5cBWq1uUGe4ALXqlY8bVI16xxLP+8cyrUzNioAOVhRDTtQsrdqDKA8873gzIECX0p3yTfWL9koSt1YGLEuUXfsQo/70yj2vsYvmwetFG2W1Yu52N40VsKnmNr/a+dC82K/z0MuVUJ2aphH7CpHVreejvpdLh6IdUGFMrOXSHEn/MI8g1EatOnO0q+lcEf91pLn/eDf6u70+fFzEXvaHw/Ued/u/v7jpq+uljx9/Aw==);lineShape=1;" vertex="1" parent="1">
                    <mxGeometry x="883.645384913603" y="355.3698011159345" width="1.8327006195094842" height="2.6151997740290307" as="geometry"/>
                </mxCell>
                <mxCell id="78" value="" style="shape=stencil(7VnJTh0xEPyad23Zbm99JuQ/kIDwFAIIyPb3aefhYdyeKYSUS6Lc3uIau7fqas+Bz55uLh6uDsE9PT/ef776frx8vjnwh0MIx7ubq8fjs3468PmBz67vH68+Pd5/vbs8fX+4aCvbpy/339oTfpxwkXJooOB+nn7wFP3vHz6elt8e71bLC1UelheKbn+5d+TH9T5RQQBPPAL0QAkBAkUZAYUEAZjiaDEn8gIAkVwcADFQRTtE4jwChHwGgEQuDYDEJBUC0mh0ilQwIBtAehMwxiFlKshLqSfCAihUEjba7FC7VXtuTQYgFJAN6sRoAaVAwMvzOiC7Hvu95MtuAqBI+40jVbTDVA8KYOQlR9Vbtxa0g+sFvwqcBFzTY3prasj7juQpIEAgHt2qFeeRDUx5DJzWdGGYfGE8UhCc3oV4LNHAVFEuCUkZma924tkE6PMMCahVCdgQMqUxDloOIPfYddZawgDrTV0YRs5Q5gRBYLU4mfUeeChGCoaIqQIHRaUHUzvdxZvrU7A0rCwMaFsZ0fS21irQBpVk3EBDjGg7e2uBmoBMzuoR41KGhJTVJaMN0fUGvw0oPYtXvcoBAZC1Tkz1FwogTYunPNqgh0SFULj3jUVjaCIhTZLJjYldpNPsNqBafqna7kDpVNdFywIQ6FZ9nnGrLDplEyDZtk/dAVWblF5cK4ADyacAmQCoHqR2Cl0BkBQTmQrOUQASQAGGkcRDgHfOhrr5FeSGiG24wr1n7wGM8BGVVngHb46kyYQA1YZagx8QoFiN3rIF5UburLLeAWefE2sDUkr6dwrWSwJYQAFGNGgcKig5BRjVrZHOKL91h1EDCJ4cmg2mRlUKoXTNGyWXcRxkKmo0CGikZ55x6EjVTj8KYBQH2bABddFWD9V6qaJcEtsVNXCoozSAST7G9TC1IFkmrl1imkqUUeCq7VmtQv4koEZLfStu2+tB2RREhWRZSu8HKzchv5Zpbm3ZB/xagh3hKp6Mm3gYaaOkt+RJNOKhQBZo2sLMGtq0EICnAct3btsTcUa2Ru7B35aJ6sSx5DjDFqTjlBnWVbmiKw0d/s0YGiJFELg0Bc4vVbutvZfOvwByZ89tQLZHatcogJjUiWaa0SkQ9Sx1Yh3T2y/yehvA01VXgG7VgclwpY6NCBBUCUfr1ohGOA3cuEPAI0cI/e/1bRfwUnA2l1iNBiSgJ+axgFjVMqgHnXn8CNDBDul7HaVNo9bsQoLpr7ntQjcU/2+7Xo70r992TQNHSyUk4aZ2IrCdaDeZ2g+yeJo2WvdBTX26Txco1LN1qFIYarjJ3oG0ezGQptMViKahBwFzliwyFMTLhLq6FAPedPaSLsJgTeMqdwG0s9yMkgGykLN3kh7OYM6KL9+JeDvz7RWpw4TVGfZ1OXqrEnpdvy5H6pdt1mOqmlq96xPAtviwjd71CWNn+bvemb25XD+8vp67Pt7ent7urf+3r/P0p9OrQD7/BQ==);lineShape=1;" vertex="1" parent="1">
                    <mxGeometry x="876.6340320738911" y="350.5299929320938" width="5.339423038139459" height="3.5844755893020035" as="geometry"/>
                </mxCell>
                <mxCell id="79" value="" style="shape=stencil(lVjZUhtBDPwav6o0mlPPJPkPqjDBFYIpQ66/jxzXGqRZt8PbsrRmdLXU602+eXm4fd5uhF9eD/tv21+7u9eHTf60Edk9PWwPu1d72uTPm3xzvz9svx72P57uTn8/3x6Rx6fv+5/HE36f7FSpydFK+M/pjZCOfy++nPCPu6f3+ErSHH5QQngmLQ6f8AWjU2Nv0KgwMMhUq4+AqaTLBn3Q8DdIoV6Agd0QcqTLnasGrVP3LuVCrQODRDU7g8KUQAy1UlJv0IjBDUWJfR2qkCgwyCQ+6DqoyGWD3KkmZ9AKZWQgVHyWmtIAaZVO6gvXCw1QOMmxl7q1O0hrUuo+6FFIgEupkgaDQRm4ZN1fvEuaaKA6kPi6GWMzKPQUsuE7wMuS8nd4xE8h/hA+Uf6QP0ytTfGC8zm2qQ7YE0zMES+gJTjyRq3PG8LngG+koIN4yn9baHEhn2FSGD4Blgllz0qb4KhemRLH8xn4k2lIxCPWl6n/G+wHG80j5h8RrJCmiEfxzucPahn6H85XErCeLD854hvMZ5rOV+CPLNk+r0s+t/ilBpoGyoANPSZCVuDQTABbPRAfCYb3zEzgfmWgyNQQCRIyDqC2jNT/x4OBMqgHAaVXN4YPYGBGml6S7g1kEW3rLWQl8zOo90UVrhsYaXxTd1lW87qBxi1gEkmRNpjGRDsPsnVactxLtUEVWCoNT/zKcBGYXmJfOJNIAzTem146q8C+1H5dBRaqPmiTSAJu6Ba0j8EkUgJ16JNstPmBtofppe4NUl8G/iU1HvX+eQJe0vuh+ZJNHFAHnQZYg3y2fRc0HUOVedx3GvAV5NTw4fvD+ggEbOOHe8Az6ArDtxzxyJ8Ra8xwXBh+yg/igY3z6fyC/Ld1MWL+kf8aFVG65o+GFl0m8vp45GmDYA4cHeoBXwErP/xJfRVvD2/f7/e7x8fT5//7/8fvfXt1+q0gf/4L);lineShape=1;" vertex="1" parent="1">
                    <mxGeometry x="781.1622676778677" y="379.6516549464675" width="27.21443560822512" height="33.231797638372406" as="geometry"/>
                </mxCell>
                <mxCell id="80" value="" style="shape=stencil(rVbZbttADPwavRK73JPPafofAeLUQl07cJwef18KwipaOppCQN+kFWfFYzjkEB7ejk+vh4Hd2+16+X74NT7fjkP4MjCP5+PhOt70aQiPQ3h4uVwP366X9/Pz/P76NFlOTz8uP6cbfs84X8nVCcXuz3wilOeDr7P9aTyv7Qt519kHPZFtADuKqQMkJo7bgODIcwfImcRtA2KkkDtASRT8NkAchdgDKhUQgwSKpQcIReCSZOLeperJZQCo7b4FECghl7RM0gMylQABYgqtiU4QwH2WpjQglwqlPmhNA8xSslzSNCRAPmFLDXUSFa5WkmgBwgCQqIp1SQBbtUwsNmgpAOBtpSUSgyxVbSATgyMBlZ4AhhpaGfQHbwtX1SUUg3IzWHonBMgtxFUDZVQ4JV/PVm3RiujNVmb0Dw5xSTXCZMlhthYqvUuVKYOglWqhVw1lVwZc8s6RMyog7WRTBQyZNA9I+iqx6aAEuaGfxfC7kCDZCE1VVi0H/3AX9CoP/wkRxSI0igzoFFS5TJ4CbDpOd6XTpgOV8KnN2RXDoQ404VrGIh68sUnpMncz1HvXZGs12Bk00F0R8OLg7EQsbQh/nh5yvegl6Dw3vVqcJwbJD22hWAhEGdyemvQ0c9cE81PzpUE+zBE5vc5hez20ZzuYsTs+ki87olVmVrcjmboS7qqV2le/hwp7V9R/2uvDxz78Mp5O8zq9/m73Zz2ad+/w+Bc=);lineShape=1;" vertex="1" parent="1">
                    <mxGeometry x="779.594880253369" y="407.72744382071426" width="9.549492208138872" height="8.855350704278216" as="geometry"/>
                </mxCell>
                <mxCell id="81" value="left ka postorder =[9]&lt;br&gt;right ka postorder=[15,7,20]&amp;nbsp;" style="text;html=1;align=left;verticalAlign=middle;resizable=0;points=[];autosize=1;strokeColor=none;fillColor=none;" vertex="1" parent="1">
                    <mxGeometry x="671.16" y="420" width="170" height="40" as="geometry"/>
                </mxCell>
                <mxCell id="82" value="" style="shape=stencil(lVfZctswDPwavWIIgOdzmv5HZuLUmrp2xnF6/H2paqSIYLQdvynMLoxjAYKDPrwdn14Pg7i32/Xy/fBrfL4dB/0yiIzn4+E63urXoI+DPrxcrodv18v7+Xn++/VpQk5fPy4/Jwu/Z14plGViifsznzAF/+/g64w/jectPpBwg08UAT4n4hbPkZIAgiOnDUE8qdsnJCYfG4IqhbBPiEzFNwSvFOM+ITClNoaglMs+wfOSk4UQlRIgqJArbVaFiu4TRElTQ8hMAmKYst7+Qq2MZECoQbd1KEyZQR3It0KqUmFQtxqywZclzZ87ZItQ8QXYZ9LQ4UENHJV4Hz46i88goW5R8QYfId5IouI9aJyK7+wzxpv6Zsogn444W3wA9XLkO/tIcI5StHjkPxN7i3eoAyhIZx/qJ6fOfzDp5BN/PPBHSNniE7SvnT4dGHNC0ulHoT/c9Rea7Gwvjkn/wJ86ppPFl4TwRv/sVonvCahzCM3Q2pBdghJIUG2AbqDgBugHnOCG7ARRoH3uBB1hfrQTqIKC3YsPS7ZXPL70uA/AwQA42ArkSA6MlOnOaGfitF0AgtahZbYbhprQYneJKBSB6Px6qay7hMC2jzVLbd94gRtaLMsys+5DQh4QUrYrXd0uGASdw6LjtTUDBVDpKgRzd0SKoBNKsq1c6wLKVvHFGbwgf7Kd1W452MMbWVQZYXyy/qDJNU3yDo/yU5abdINH8ZZFMZv8YPvJ4hXb7/KPGnnCW/8zaJrN5P94paA+Ll1b1m0QB3zfK+i/+Prx8eR6GU+n+cW2/b99otWj+Xmnj38B);lineShape=1;" vertex="1" parent="1">
                    <mxGeometry x="681.7471851789735" y="468.5061375239568" width="28.665232914841567" height="34.95926418692193" as="geometry"/>
                </mxCell>
                <mxCell id="83" value="" style="shape=stencil(lVjLctswDPwaXTHgmzin6X9kJk7tqRtnHKePvy9UlY4IRuvJzZawJAEssKCmcPe6f3jZTZ5fL+fT992vw+NlP4Uvk/eH5/3ufLjoryncT+Hu6XTefTuf3p4fl/8vD7Pl/OvH6ee8wu8F55iczCjPf5YnkVL59+DrYn88PK/sK/nQmbtCMW/bZ6qps/dCDtr72NmH0p58aJ8omuNnSmD9SNKvn1J7smGfuLPPiViQvfOdfQlUKlzfdfaVyQP7StyvXzUjftveeXK1AwhTBgFylWIfIfEUASM0Zf8JcAUEirwNCLl5uAI4lIPSXl8BjgQEKVXLInU6BsA6sVHSsAYAKNfXV0Cm4kDelMY9kaoSCeRBCknP7BqIwQ5SKQ0AB/Ig6nSygIQB2figdAfUUECVwWmQacdMzDauDPitW4gpoILDpE5ECxDstTc71BaHrUTk0gOEGJBJATwAUJNUbsSBroISkUmSBaCiVkBKNkoF+ZApmChp60d50C5gnE63ANG0vtjEZQtQkgVAapTWSlcFEUCzV0AZaxQdqbbOuAZgakgZjoQAYruxAgQXUHU2SjDT0nrvKnEZRUkB5kiZMmjfCrCJK5SxD8FEqeLEVarZAmCU6sDWGyX6WYC6mAahToBLKkGl55IKtQc1rSJnBEJ194aMJqPsuY1/W0Jt6D2rGNhBR4FgnBY4O8zzYU+NlWR8LClDjc5bAG7oRGxGstkJwA3tQsYHVUUQJTfoiR4RiCIPMs1UQJ4HCdUR1AMise0YOULicYvGaoQOaASl2J8/4n7h7Y1kHhihvelH85AMR3ozTTq9AoB8JduNPJwXrou9myNJGC48jgJYPdvphWErLfY6wpAK2maTMUfDV7UzLS7F2mi+Ogyao+xVU11F6m3P7m6sboTVQRLM9+Te3sMidGwbVWhT4eb6n7mH37bXH++X/qfD8bh8M1i/tx8J9NHygSHc/wU=);lineShape=1;" vertex="1" parent="1">
                    <mxGeometry x="679.7207409683529" y="496.6217577098921" width="19.30806050327874" height="11.712145315610627" as="geometry"/>
                </mxCell>
                <mxCell id="84" value="&lt;div style=&quot;text-align: left;&quot;&gt;&lt;span style=&quot;background-color: initial;&quot;&gt;now left ke lie ek post aur ek in mila&lt;/span&gt;&lt;/div&gt;&lt;div style=&quot;text-align: left;&quot;&gt;&lt;span style=&quot;background-color: initial;&quot;&gt;right ke lie bhi ek post aur ek in mila&lt;/span&gt;&lt;/div&gt;&lt;div style=&quot;text-align: left;&quot;&gt;&lt;span style=&quot;background-color: initial;&quot;&gt;to ab bas pointer ko ese hilao and rec call karo&lt;/span&gt;&lt;/div&gt;" style="text;html=1;align=center;verticalAlign=middle;resizable=0;points=[];autosize=1;strokeColor=none;fillColor=none;" vertex="1" parent="1">
                    <mxGeometry x="525" y="500" width="270" height="60" as="geometry"/>
                </mxCell>
            </root>
        </mxGraphModel>
    </diagram>
</mxfile>